<?xml version="1.0" encoding="UTF-8"?><svg id="_Слой_1" xmlns="http://www.w3.org/2000/svg" width="189" height="100" viewBox="0 0 106 100"><defs><style>.cls-1{fill:#1b3764;}</style></defs><path class="cls-1" d="M23.49,9.12l-4.64,12.19h2.46l.68-1.95h4.45l.68,1.95h2.46l-4.64-12.19h-1.45ZM22.77,17.15l1.45-4.16,1.45,4.16h-2.9Z"/><polygon class="cls-1" points="36.42 17.34 34.11 9.12 31.1 9.12 31.1 21.31 33.18 21.31 33.18 12.82 35.41 19.95 37.44 19.95 39.67 12.66 39.67 21.31 41.75 21.31 41.75 9.12 38.74 9.12 36.42 17.34"/><path class="cls-1" d="M47.74,9.12l-4.64,12.19h2.46l.68-1.95h4.45l.68,1.95h2.46l-4.64-12.19h-1.45ZM47.01,17.15l1.45-4.16,1.45,4.16h-2.9Z"/><polygon class="cls-1" points="62.55 11.19 62.55 9.12 54.99 9.12 54.99 11.34 59.83 11.34 54.84 19.25 54.84 21.31 62.72 21.31 62.72 19.1 57.56 19.1 62.55 11.19"/><polygon class="cls-1" points="65.47 9.12 64.64 9.12 64.64 21.31 65.47 21.31 66.93 21.31 72.78 21.31 72.78 19.1 66.93 19.1 66.93 16.37 71.86 16.37 71.86 14.15 66.93 14.15 66.93 11.34 72.78 11.34 72.78 9.12 66.93 9.12 65.47 9.12"/><polygon class="cls-1" points="81.98 9.12 81.98 18.05 77.67 9.12 74.87 9.12 74.87 21.3 77.06 21.3 77.06 12.52 81.36 21.3 84.17 21.3 84.17 9.12 81.98 9.12"/><path class="cls-1" d="M33.28,30.64c.16-.26.38-.46.67-.6.29-.14.65-.2,1.07-.2.32,0,.61.06.87.18.26.12.48.29.66.51.18.22.32.49.4.8h2.31c-.15-.69-.41-1.28-.79-1.77-.38-.49-.87-.86-1.45-1.12-.59-.26-1.25-.38-2-.38-.9,0-1.67.14-2.31.42-.64.28-1.13.68-1.47,1.21-.34.53-.51,1.16-.51,1.91v2.6c0,.75.17,1.38.51,1.91.34.53.83.93,1.47,1.2.64.28,1.41.41,2.31.41.74,0,1.41-.13,1.99-.38.58-.26,1.07-.63,1.45-1.12.38-.49.65-1.08.8-1.77h-2.31c-.08.32-.21.59-.39.81-.18.22-.4.39-.66.5-.26.11-.55.17-.88.17-.42,0-.77-.07-1.07-.2-.29-.14-.52-.34-.67-.6-.15-.26-.23-.57-.23-.94v-2.6c0-.37.08-.68.23-.95Z"/><path class="cls-1" d="M47.33,28.48c-.65-.29-1.41-.43-2.27-.43s-1.61.14-2.27.43c-.65.29-1.16.7-1.52,1.22-.36.53-.54,1.14-.54,1.83v2.68c0,.69.18,1.31.54,1.83.36.53.86.94,1.52,1.22.65.29,1.41.43,2.27.43s1.61-.14,2.27-.43c.65-.29,1.16-.7,1.52-1.22.36-.53.54-1.14.54-1.83v-2.68c0-.69-.18-1.31-.54-1.83-.36-.53-.87-.94-1.52-1.22ZM47.07,34.27c0,.33-.08.62-.25.87-.17.25-.4.45-.7.58-.3.14-.66.2-1.06.2s-.76-.07-1.06-.2c-.3-.14-.54-.33-.7-.58-.17-.25-.25-.54-.25-.87v-2.77c0-.33.08-.62.25-.87.17-.25.4-.45.7-.58.3-.14.66-.2,1.06-.2s.75.07,1.06.2c.3.14.54.33.7.58.17.25.25.54.25.87v2.77Z"/><path class="cls-1" d="M58.49,33.45c.5-.23.88-.57,1.15-.99.27-.43.41-.92.41-1.49s-.14-1.06-.41-1.49-.65-.76-1.15-.99c-.49-.23-1.07-.35-1.72-.35h-5.19v9.47h2.23v-3.81h1.35l2.67,3.81h2.7l-2.83-3.9c.28-.06.54-.14.78-.26ZM53.82,29.86h2.78c.23,0,.44.05.61.14s.31.22.4.39c.09.17.14.36.14.59,0,.22-.06.42-.15.59-.1.17-.23.3-.4.39-.17.09-.37.14-.6.14h-2.78v-2.23Z"/><path class="cls-1" d="M69.16,28.51c-.56-.24-1.21-.36-1.95-.36h-4.75v9.46h2.23v-3.67h2.52c.74,0,1.39-.12,1.95-.36.56-.24,1-.58,1.31-1.01s.46-.94.46-1.52-.16-1.09-.46-1.52-.75-.78-1.31-1.02ZM68.45,31.66c-.11.18-.27.32-.48.41-.2.1-.44.15-.7.15h-2.57v-2.36h2.57c.27,0,.51.05.71.15.2.1.36.24.47.42.11.18.17.39.17.62s-.06.43-.17.61Z"/><rect class="cls-1" x="71.5" y="35.83" width="2.23" height="1.78"/><path class="cls-1" d="M36.01,51.37c-.3.41-.23.99-.17,1.47.16,1.18.66,2.37,1.31,3.33.16.25.95,1.14,1.1.54.11-1.13-1.34-3.02-.69-4.1.22-.37.76-.46,1.2-.5.66-.08,1.31.04,1.98.03.62,0,.92-.43.38-.76-.99-.54-4.35-1.05-5.09-.02h0Z"/><path class="cls-1" d="M39.05,53.55c-.3.04-.4.29-.25.52.11.16.27.26.42.38.25.18.56.39.92.62.88.57,2,1.23,2.92,1.67,3,1.34,6.66,1.94,9.83,1.85,5.12-.24,9.74-2.15,13.89-5.01.54-.39,1.68-1.1,1.62-1.82-.21-.63-1.29.11-1.67.31-7.62,4.48-17.3,5.17-25.56,2.12-.46-.16-.98-.35-1.43-.5-.26-.09-.5-.16-.68-.13h0Z"/><path class="cls-1" d="M25.78,78.77c-.29.04-.5.12-.63.22s-.23.27-.28.5-.07.57-.07,1.01v7.34h-.67l-5.69-7.23v5.04c0,.52.03.9.08,1.14s.17.42.34.53.46.19.85.23v.26h-2.55v-.26c.29-.04.5-.12.63-.22s.23-.27.28-.5.07-.57.07-1.01v-5.92c0-.33-.02-.57-.07-.72s-.14-.25-.28-.3-.35-.09-.63-.11v-.26h2.26l5.07,6.27v-4.11c0-.52-.03-.9-.08-1.14s-.17-.42-.34-.53-.46-.19-.85-.23v-.26h2.55v.26Z"/><path class="cls-1" d="M33.88,87.81h-7.27v-.26c.29-.02.5-.05.63-.11s.23-.15.28-.3.07-.39.07-.72v-6.52c0-.33-.02-.57-.07-.72s-.14-.25-.28-.3-.35-.09-.63-.11v-.26h7c-.06.73-.09,1.38-.09,1.94,0,.39.01.68.04.89h-.3c-.13-.94-.37-1.59-.71-1.97s-.82-.56-1.44-.56h-.54c-.27,0-.46.02-.59.07s-.21.13-.25.26-.06.33-.06.61v3.25h.42c.46,0,.82-.17,1.06-.51s.41-.75.5-1.22h.3c-.03.37-.04.78-.04,1.24v.63c0,.45.03,1.07.08,1.87h-.3c-.18-1.16-.72-1.74-1.6-1.74h-.42v3.31c0,.28.02.49.06.61s.13.21.25.26.32.07.59.07h.65c.62,0,1.12-.21,1.5-.64s.65-1.15.81-2.16h.3c-.03.29-.04.65-.04,1.1,0,.8.03,1.47.09,2Z"/><path class="cls-1" d="M47.22,78.51v.26c-.22.09-.43.25-.64.5s-.38.6-.51,1.06l-2.31,7.5c-.09,0-.25-.01-.46-.01s-.36,0-.45.01l-1.93-5.86-1.94,5.86c-.1,0-.25-.01-.46-.01s-.36,0-.46.01l-2.94-8.23c-.1-.29-.23-.5-.38-.63s-.3-.2-.45-.21v-.26h3.56v.26c-.3.04-.45.21-.45.51,0,.14.04.34.12.59l1.91,5.56,1.32-3.92-.67-2.03c-.09-.26-.19-.44-.31-.54s-.25-.16-.41-.18v-.26h3.76v.26c-.32,0-.54.05-.68.11s-.21.19-.21.38c0,.16.04.36.13.62l1.8,5.49,1.24-3.97c.2-.66.3-1.17.3-1.53s-.09-.65-.28-.82-.47-.27-.84-.28v-.26h2.64Z"/><path class="cls-1" d="M58.48,78.49v.26c-.41.17-.83.67-1.26,1.52l-1.55,3.08v3.06c0,.33.02.57.07.72s.14.25.27.3.34.09.64.11v.26c-.47-.03-1.14-.04-2.01-.04-.94,0-1.62.01-2.03.04v-.26c.29-.02.5-.05.64-.11s.23-.15.28-.3.07-.39.07-.72v-2.22l-2.53-4.69c-.27-.49-.52-.74-.75-.74v-.28h4v.28c-.3,0-.54.03-.72.09s-.27.16-.27.3c0,.08.03.18.09.29l1.99,3.86,1.02-2.05c.34-.69.51-1.24.51-1.63,0-.3-.09-.51-.28-.65s-.46-.2-.81-.22v-.26h2.64Z"/><path class="cls-1" d="M66.18,78.88c.7.38,1.23.92,1.62,1.64s.58,1.57.58,2.56-.2,1.82-.59,2.56-.94,1.32-1.64,1.74-1.51.62-2.4.62-1.74-.19-2.43-.56-1.23-.92-1.62-1.64-.58-1.57-.58-2.56.2-1.82.59-2.56.94-1.32,1.64-1.74,1.51-.62,2.4-.62,1.74.19,2.43.56ZM62.43,79.14c-.37.39-.65.93-.84,1.64s-.29,1.5-.29,2.41.11,1.71.33,2.41.52,1.23.91,1.6.8.56,1.26.56.91-.19,1.27-.58.65-.93.84-1.64.29-1.5.29-2.41-.11-1.71-.33-2.41-.52-1.23-.91-1.6-.8-.56-1.26-.56-.91.19-1.27.58Z"/><path class="cls-1" d="M74.26,84.42c-.27-.68-.59-1.02-.96-1.02h-.85v3.02c0,.33.02.57.07.72s.14.25.27.3.35.09.64.11v.26h-4.04v-.26c.29-.02.5-.05.63-.11s.23-.15.28-.3.07-.39.07-.72v-6.52c0-.33-.02-.57-.07-.72s-.14-.25-.28-.3-.35-.09-.63-.11v-.26h4.04c1.21,0,2.11.21,2.72.6s.91.96.91,1.69c0,.62-.23,1.17-.68,1.65s-1.21.77-2.25.9c.78.07,1.39.28,1.8.64s.77.96,1.05,1.8.49,1.32.63,1.45.32.23.54.31v.26h-2.78c-.46-1.58-.83-2.71-1.1-3.4ZM72.45,79.9v3.23h.56c.72,0,1.21-.19,1.47-.57s.4-.92.4-1.61-.13-1.26-.38-1.63-.67-.55-1.24-.55c-.23,0-.41.03-.52.09s-.19.17-.23.33-.06.39-.06.71Z"/><path class="cls-1" d="M86.95,87.23c.14.12.32.23.54.31v.26h-3.71v-.26c.25-.02.43-.04.53-.08s.16-.1.16-.19c0-.07-.05-.18-.15-.33l-1.9-3.09c-.17-.28-.32-.47-.44-.57s-.28-.15-.48-.17v3.29c0,.33.02.57.07.72s.14.25.27.3.35.09.64.11v.26h-4.04v-.26c.29-.02.5-.05.63-.11s.23-.15.28-.3.07-.39.07-.72v-6.52c0-.33-.02-.57-.07-.72s-.14-.25-.28-.3-.35-.09-.63-.11v-.26h4.04v.26c-.29.02-.51.05-.64.11s-.22.15-.27.3-.07.39-.07.72v2.96c.35-.02.67-.12.96-.31s.62-.5.98-.92l.77-.93c.4-.47.6-.87.6-1.22,0-.21-.09-.38-.26-.5s-.41-.19-.72-.21v-.25h3.17v.25c-.7.17-1.33.59-1.9,1.26l-1.64,1.96,3.05,4.77c.13.2.27.36.41.49Z"/><path class="cls-1" d="M106,100H0V0h106v100ZM2.18,97.81h101.63V2.19H2.18v95.62Z"/><rect class="cls-1" x="1.09" y="66.22" width="102.9" height="2.19"/></svg>