<?xml version="1.0" encoding="UTF-8"?><svg id="_Слой_1" xmlns="http://www.w3.org/2000/svg" width="189" height="100" viewBox="0 0 162 100"><defs><style>.cls-1{fill:#1b3764;}</style></defs><path class="cls-1" d="M74.82.74c-.26.11-.44.31-.54.6-.1.29-.15.77-.15,1.44v13c0,.67.05,1.15.15,1.44.1.29.28.49.55.6.27.11.69.18,1.27.21v.52h-8.26v-.52c.63-.03,1.09-.1,1.38-.21.29-.11.48-.31.59-.6.11-.29.16-.77.16-1.44V2.07l-6.33,16.51h-.42L56.14,1.7v12.55c0,1.03.05,1.79.16,2.27.11.48.34.83.69,1.05.35.22.92.37,1.7.45v.52h-5.11v-.52c.57-.09.99-.23,1.27-.44.27-.21.46-.54.55-1,.09-.46.14-1.13.14-2.02V2.78c0-.67-.05-1.15-.14-1.44-.09-.29-.28-.49-.55-.6-.27-.11-.7-.18-1.27-.21v-.52h6.42l5.3,12.76,4.83-12.76h5.98v.52c-.6.03-1.03.1-1.29.21Z"/><path class="cls-1" d="M105.44,18.56h-14.55v-.52c.57-.03.99-.1,1.27-.21.27-.11.46-.31.55-.6.09-.29.14-.77.14-1.44V2.78c0-.67-.05-1.15-.14-1.44-.09-.29-.28-.49-.55-.6-.27-.11-.7-.18-1.27-.21v-.52h14.03c-.12,1.45-.18,2.74-.18,3.88,0,.77.03,1.36.08,1.78h-.6c-.26-1.87-.74-3.18-1.42-3.93-.68-.75-1.64-1.13-2.89-1.13h-1.08c-.54,0-.93.04-1.18.13-.25.09-.41.26-.5.51-.09.25-.13.66-.13,1.22v6.49h.83c.93,0,1.64-.34,2.12-1.02.48-.68.82-1.49,1.01-2.44h.6c-.05.73-.08,1.56-.08,2.47v1.25c0,.89.05,2.13.15,3.72h-.6c-.37-2.31-1.43-3.47-3.2-3.47h-.83v6.6c0,.56.04.97.13,1.22.09.25.25.42.5.51.25.09.64.13,1.18.13h1.29c1.24,0,2.24-.42,3-1.27.76-.85,1.3-2.28,1.61-4.31h.6c-.05.57-.08,1.31-.08,2.2,0,1.6.06,2.93.18,3.98Z"/><path class="cls-1" d="M52,42.04c.74.3,1.47.72,2.19,1.25.21.16.39.24.53.24.18,0,.32-.13.42-.38.1-.25.18-.65.24-1.2h.6c-.07,1.19-.1,3.3-.1,6.35h-.62c-.14-1.19-.34-2.16-.61-2.89-.27-.73-.72-1.35-1.35-1.86-.42-.4-.94-.71-1.55-.94-.62-.23-1.24-.34-1.88-.34-1.23,0-2.25.41-3.06,1.24-.81.83-1.41,1.92-1.79,3.29-.38,1.37-.58,2.86-.58,4.48,0,6.05,1.68,9.07,5.04,9.07.77,0,1.39-.17,1.86-.52.23-.16.39-.35.49-.56.09-.21.14-.48.14-.81v-2.56c0-.83-.07-1.43-.21-1.8-.14-.38-.38-.63-.74-.77-.36-.14-.92-.23-1.69-.26v-.52h7.99v.52c-.35.03-.6.1-.76.21-.16.11-.27.31-.33.61-.06.3-.09.78-.09,1.43v5.2h-.53c-.02-.37-.09-.71-.22-1.02-.13-.32-.31-.47-.53-.47-.3,0-.77.18-1.42.55-1.52.88-2.96,1.32-4.3,1.32-3.02,0-5.34-.83-6.95-2.48-1.61-1.65-2.42-3.97-2.42-6.97,0-1.95.41-3.67,1.22-5.16.82-1.48,1.94-2.64,3.37-3.46,1.43-.82,3.06-1.23,4.9-1.23,1.08,0,2,.15,2.74.45Z"/><path class="cls-1" d="M87.76,59.58c.3.26.58.4.86.42v.52h-7.97v-.52c.67-.03,1.14-.12,1.42-.25.28-.13.42-.36.42-.7,0-.32-.1-.73-.31-1.25l-1.58-4.3h-5.73l-.68,1.8c-.49,1.26-.73,2.24-.73,2.92s.2,1.1.59,1.35c.39.25.97.39,1.74.43v.52h-5.25v-.52c.86-.15,1.61-1.07,2.26-2.75l5.98-15.33h1.82l6.37,16.41c.23.58.5,1,.79,1.26ZM80.41,52.97l-2.59-7.08-2.73,7.08h5.32Z"/><path class="cls-1" d="M119.64,42.49c-.57.09-1,.23-1.27.44-.27.21-.46.54-.55,1-.09.46-.14,1.13-.14,2.02v14.63h-1.35l-11.39-14.41v10.06c0,1.03.05,1.79.16,2.27.11.48.34.83.69,1.05.35.22.92.37,1.7.45v.52h-5.11v-.52c.57-.09.99-.23,1.27-.44s.46-.54.55-1c.09-.46.14-1.13.14-2.02v-11.8c0-.67-.05-1.15-.14-1.44-.09-.29-.28-.49-.55-.6-.27-.11-.7-.18-1.27-.21v-.52h4.54l10.16,12.5v-8.2c0-1.03-.05-1.79-.16-2.27-.11-.48-.34-.83-.69-1.05-.35-.22-.92-.37-1.7-.45v-.52h5.11v.52Z"/><path class="cls-1" d="M88.06,98.85c.28.25.64.46,1.08.63v.52h-7.43v-.52c.5-.03.85-.09,1.07-.15.22-.07.33-.19.33-.37,0-.14-.1-.35-.29-.65l-3.81-6.16c-.35-.56-.64-.94-.88-1.13-.23-.19-.55-.3-.95-.34v6.55c0,.67.05,1.15.14,1.44.09.29.27.49.54.6.26.11.69.18,1.28.21v.52h-8.1v-.52c.57-.03.99-.1,1.27-.21.27-.11.46-.31.55-.6.09-.29.14-.77.14-1.44v-13c0-.67-.05-1.15-.14-1.44-.09-.29-.28-.49-.55-.6-.27-.11-.7-.18-1.27-.21v-.52h8.1v.52c-.59.03-1.02.1-1.28.21-.26.11-.44.31-.54.6-.09.29-.14.77-.14,1.44v5.9c.7-.03,1.34-.24,1.92-.63.58-.38,1.23-1,1.97-1.84l1.55-1.86c.8-.93,1.2-1.74,1.2-2.43,0-.43-.17-.76-.51-1-.34-.24-.82-.38-1.43-.42v-.5h6.35v.5c-1.4.33-2.67,1.17-3.81,2.52l-3.28,3.9,6.11,9.51c.26.4.54.73.82.97Z"/><circle class="cls-1" cx="103.09" cy="97.66" r="2.35"/><circle class="cls-1" cx="53.58" cy="97.66" r="2.35"/><path class="cls-1" d="M0,48.51h1.86v4.54h2.91v1.48H0v-6.02Z"/><path class="cls-1" d="M5.24,51.53c0-.98.27-1.75.82-2.3.55-.55,1.31-.82,2.29-.82s1.78.27,2.32.81.81,1.29.81,2.26c0,.7-.12,1.28-.36,1.73-.24.45-.58.8-1.03,1.05-.45.25-1.01.38-1.68.38s-1.24-.11-1.69-.32c-.45-.22-.81-.56-1.08-1.03-.28-.47-.42-1.05-.42-1.76ZM7.1,51.54c0,.61.11,1.04.34,1.31.23.27.53.4.92.4s.71-.13.93-.39.33-.73.33-1.4c0-.57-.11-.98-.34-1.24-.23-.26-.54-.39-.93-.39s-.68.13-.9.4c-.23.27-.34.7-.34,1.32Z"/><path class="cls-1" d="M12.16,52.54l1.77-.11c.04.29.12.51.23.66.19.24.47.37.82.37.27,0,.47-.06.61-.19.14-.12.22-.27.22-.43s-.07-.3-.21-.42c-.14-.12-.45-.24-.95-.35-.82-.18-1.4-.43-1.75-.73-.35-.3-.53-.69-.53-1.16,0-.31.09-.6.27-.88.18-.28.45-.49.81-.65.36-.16.85-.24,1.48-.24.77,0,1.36.14,1.76.43.4.29.64.74.72,1.37l-1.76.1c-.05-.27-.14-.47-.29-.59s-.36-.18-.62-.18c-.22,0-.38.05-.49.14-.11.09-.16.2-.16.33,0,.1.05.18.14.26.09.08.3.15.62.22.81.18,1.4.35,1.75.53.35.18.61.4.77.67.16.27.24.56.24.89,0,.39-.11.74-.32,1.07-.21.33-.51.57-.9.74-.38.17-.87.25-1.45.25-1.03,0-1.73-.2-2.13-.59-.39-.39-.62-.9-.67-1.5Z"/><path class="cls-1" d="M143.31,48.51h1.74l2.27,3.33v-3.33h1.76v6.02h-1.76l-2.26-3.31v3.31h-1.75v-6.02Z"/><path class="cls-1" d="M149.7,48.51h2.07l1.21,2.03,1.22-2.03h2.06l-2.34,3.5v2.52h-1.87v-2.52l-2.35-3.5Z"/><path class="cls-1" d="M160.37,52.07l1.63.49c-.11.46-.28.84-.52,1.15-.24.31-.53.54-.88.69-.35.16-.79.23-1.33.23-.66,0-1.19-.1-1.61-.29-.42-.19-.77-.52-1.08-1-.3-.48-.45-1.09-.45-1.84,0-1,.27-1.76.8-2.3s1.28-.8,2.25-.8c.76,0,1.36.15,1.79.46s.76.78.97,1.41l-1.64.37c-.06-.18-.12-.32-.18-.4-.1-.14-.23-.25-.38-.33-.15-.08-.32-.11-.51-.11-.42,0-.75.17-.97.51-.17.25-.25.65-.25,1.19,0,.67.1,1.12.3,1.37.2.25.49.37.86.37s.63-.1.81-.3c.18-.2.31-.49.4-.87Z"/><polygon class="cls-1" points="14.12 40.63 13.02 39.42 42.2 13.01 43.3 14.21 14.12 40.63"/><polygon class="cls-1" points="115.05 94.27 113.96 93.06 143.14 66.64 144.23 67.85 115.05 94.27"/><polygon class="cls-1" points="43.44 94.27 14.26 67.85 15.36 66.64 44.54 93.06 43.44 94.27"/><polygon class="cls-1" points="142.76 40.63 113.58 14.21 114.68 13.01 143.86 39.42 142.76 40.63"/></svg>