<?xml version="1.0" encoding="UTF-8"?><svg id="_Слой_1" xmlns="http://www.w3.org/2000/svg" width="189" height="100" viewBox="0 0 239 100"><defs><style>.cls-1{fill:#26406b;}</style></defs><path class="cls-1" d="M48.28,5.32v1.72h-4.27v-1.72h4.27Z"/><path class="cls-1" d="M57.14.1h1.64v9.48h-1.64V.1ZM57.89,4.18h2.79c.2,0,.37-.05.52-.15.15-.1.27-.24.35-.41.08-.18.13-.38.13-.61s-.04-.44-.12-.62-.2-.32-.35-.42c-.15-.1-.33-.15-.52-.15h-2.79V.1h2.75c.54,0,1.02.12,1.44.36.41.24.74.58.96,1.02.23.44.34.95.34,1.53s-.11,1.09-.34,1.52c-.23.44-.55.78-.96,1.01-.41.24-.89.36-1.44.36h-2.75v-1.72Z"/><path class="cls-1" d="M68.09.1h1.64v9.48h-1.64V.1ZM68.68.1h5.25v1.72h-5.25V.1ZM68.68,4.01h4.59v1.72h-4.59v-1.72ZM68.68,7.86h5.25v1.72h-5.25v-1.72Z"/><path class="cls-1" d="M78.73.09h1.64v9.49h-1.64V.09ZM79.39,4.04h3.04c.17,0,.32-.05.44-.14s.23-.22.3-.39c.07-.17.11-.37.11-.59,0-.22-.04-.42-.11-.59-.07-.17-.17-.3-.3-.39-.13-.09-.28-.14-.45-.14h-3.04V.09h3.17c.48,0,.9.12,1.27.35.36.23.65.57.85.99.2.43.3.92.3,1.49s-.1,1.06-.3,1.49c-.2.43-.48.76-.85.99-.37.23-.79.35-1.26.35h-3.17v-1.72ZM81.22,5.47l1.76-.3,2.35,4.41h-1.99l-2.12-4.11Z"/><path class="cls-1" d="M90.04.1h1.64v9.48h-1.64V.1ZM90.64.1h5.13v1.72h-5.13V.1ZM90.64,4.1h4.47v1.72h-4.47v-1.72Z"/><path class="cls-1" d="M100.21.1h1.64v9.48h-1.64V.1ZM100.81.1h5.25v1.72h-5.25V.1ZM100.81,4.01h4.59v1.72h-4.59v-1.72ZM100.81,7.86h5.25v1.72h-5.25v-1.72Z"/><path class="cls-1" d="M112.13,9.26c-.47-.28-.83-.68-1.08-1.21s-.37-1.17-.37-1.91v-2.6c0-.75.12-1.39.37-1.91s.61-.93,1.08-1.21c.47-.28,1.04-.42,1.7-.42.55,0,1.04.13,1.47.38.43.26.79.63,1.07,1.12.28.49.48,1.08.58,1.77h-1.7c-.06-.31-.16-.58-.3-.8-.13-.22-.3-.39-.49-.51-.19-.12-.4-.18-.64-.18-.31,0-.57.07-.79.21-.22.14-.38.34-.5.6s-.17.58-.17.95v2.6c0,.37.06.68.17.95s.28.46.5.6c.22.14.48.21.79.21.24,0,.46-.06.65-.17.19-.12.35-.28.49-.51.13-.22.23-.49.29-.81h1.7c-.11.69-.31,1.28-.59,1.77-.28.49-.64.86-1.07,1.12-.43.26-.92.38-1.47.38-.66,0-1.23-.14-1.7-.41Z"/><path class="cls-1" d="M120.56.1h6.4v1.72h-6.4V.1ZM122.93.87h1.64v8.71h-1.64V.87Z"/><path class="cls-1" d="M139.09,9.54c-.4-.09-.77-.22-1.12-.4-.35-.18-.66-.39-.94-.64l.76-1.47c.34.3.72.53,1.16.69.44.16.89.24,1.36.24.54,0,.95-.1,1.25-.3.3-.2.44-.48.44-.84h0c0-.26-.07-.46-.2-.61-.13-.15-.3-.26-.52-.33s-.48-.13-.82-.19c-.01,0-.02,0-.03,0s-.02,0-.03,0l-.13-.02c-.58-.1-1.07-.22-1.45-.38-.38-.15-.71-.41-.98-.79-.27-.38-.4-.91-.4-1.6h0c0-.62.13-1.14.38-1.58.25-.43.62-.77,1.1-.99s1.06-.34,1.74-.34c.31,0,.63.04.96.12.33.08.64.19.96.34.31.15.61.33.89.53l-.7,1.51c-.34-.25-.69-.45-1.05-.59-.37-.14-.72-.21-1.05-.21-.5,0-.89.09-1.17.27-.28.18-.41.43-.41.76h0c0,.28.07.5.22.66.14.16.32.28.53.35s.51.15.89.23c.02,0,.03,0,.05,0s.03,0,.05,0c.02,0,.05,0,.07.02.02,0,.04.01.07.02.55.12,1.01.26,1.38.43.37.17.68.44.93.81s.37.88.37,1.52h0c0,.62-.13,1.13-.39,1.57-.26.43-.64.76-1.14.98-.5.23-1.1.34-1.8.34-.42,0-.82-.05-1.22-.14Z"/><path class="cls-1" d="M147.24.1h6.4v1.72h-6.4V.1ZM149.62.87h1.64v8.71h-1.64V.87Z"/><path class="cls-1" d="M158.99,9.24c-.48-.29-.86-.7-1.12-1.23-.26-.53-.4-1.14-.4-1.84v-2.69c0-.7.13-1.31.4-1.84.26-.53.64-.94,1.12-1.23s1.04-.43,1.67-.43,1.19.14,1.67.43.85.7,1.12,1.23c.26.53.4,1.14.4,1.84v2.69c0,.7-.13,1.31-.4,1.84-.26.53-.64.94-1.12,1.23-.48.29-1.04.43-1.67.43s-1.19-.14-1.67-.43ZM161.44,7.69c.22-.14.4-.33.52-.58.12-.25.18-.54.18-.87v-2.78c0-.33-.06-.62-.18-.87-.12-.25-.29-.45-.52-.58s-.48-.21-.78-.21-.56.07-.78.21-.4.33-.52.58c-.12.25-.18.54-.18.87v2.78c0,.33.06.62.18.87.12.25.29.45.52.58s.48.21.78.21.56-.07.78-.21Z"/><path class="cls-1" d="M168.89.09h1.64v9.49h-1.64V.09ZM169.54,4.04h3.04c.17,0,.32-.05.44-.14.13-.09.23-.22.3-.39.07-.17.11-.37.11-.59,0-.22-.03-.42-.11-.59-.07-.17-.17-.3-.3-.39-.13-.09-.28-.14-.45-.14h-3.04V.09h3.17c.48,0,.9.12,1.27.35s.65.57.85.99c.2.43.3.92.3,1.49s-.1,1.06-.3,1.49c-.2.43-.48.76-.85.99-.37.23-.79.35-1.26.35h-3.17v-1.72ZM171.38,5.47l1.76-.3,2.35,4.41h-1.99l-2.12-4.11Z"/><path class="cls-1" d="M180.2.1h1.64v9.48h-1.64V.1ZM180.79.1h5.25v1.72h-5.25V.1ZM180.79,4.01h4.59v1.72h-4.59v-1.72ZM180.79,7.86h5.25v1.72h-5.25v-1.72Z"/><path class="cls-1" d="M194.99,5.32v1.72h-4.27v-1.72h4.27Z"/><path class="cls-1" d="M65.98,96.16l2.74-13.06h2.69l-2.27,10.88h6.65l-.45,2.18h-9.35Z"/><path class="cls-1" d="M77.42,92.23c0-1.75.5-3.15,1.49-4.19s2.29-1.56,3.9-1.56c1.4,0,2.49.38,3.27,1.15.78.77,1.18,1.8,1.18,3.1,0,1.53-.49,2.86-1.47,3.97-.98,1.12-2.3,1.67-3.94,1.67-.89,0-1.68-.18-2.37-.53-.69-.36-1.2-.86-1.54-1.51-.34-.65-.51-1.35-.51-2.1ZM84.72,90.4c0-.61-.18-1.09-.53-1.46s-.81-.55-1.37-.55-1.04.17-1.47.51-.76.84-1,1.49c-.24.65-.36,1.25-.36,1.8,0,.68.18,1.21.55,1.61.37.4.83.6,1.39.6.7,0,1.29-.3,1.77-.9.68-.85,1.02-1.88,1.02-3.1Z"/><path class="cls-1" d="M87.88,93.51l2.48-.39c.22.52.49.89.82,1.11.33.22.77.33,1.34.33s1.05-.13,1.4-.39c.24-.18.37-.39.37-.65,0-.17-.06-.33-.19-.46-.13-.13-.48-.29-1.06-.48-1.55-.51-2.5-.91-2.87-1.21-.58-.46-.87-1.07-.87-1.82s.28-1.39.84-1.93c.78-.75,1.94-1.13,3.47-1.13,1.22,0,2.14.22,2.77.67s1.02,1.05,1.19,1.81l-2.36.41c-.12-.34-.33-.6-.61-.78-.38-.23-.84-.35-1.37-.35s-.92.09-1.16.27c-.24.18-.35.38-.35.61s.12.43.36.59c.15.1.63.26,1.44.5,1.25.36,2.08.72,2.51,1.07.59.49.89,1.09.89,1.78,0,.9-.38,1.67-1.13,2.33-.76.66-1.82.99-3.19.99s-2.42-.25-3.17-.75c-.75-.5-1.25-1.21-1.52-2.12Z"/><path class="cls-1" d="M111.35,93.27h-5.18l-1.57,2.89h-2.77l7.39-13.06h2.99l2.12,13.06h-2.55l-.44-2.89ZM111.02,91.1l-.76-5.26-3.16,5.26h3.92Z"/><path class="cls-1" d="M117.97,86.7h2.43l-.25,1.23c.61-.52,1.17-.9,1.7-1.12.53-.22,1.08-.33,1.66-.33.78,0,1.39.22,1.84.67.45.45.67,1.04.67,1.77,0,.33-.1.96-.29,1.89l-1.12,5.35h-2.56l1.12-5.37c.17-.8.25-1.28.25-1.43,0-.33-.1-.58-.29-.77s-.46-.28-.81-.28c-.37,0-.79.16-1.25.47-.46.31-.82.73-1.08,1.25-.19.37-.4,1.12-.64,2.25l-.81,3.88h-2.56l1.98-9.46Z"/><path class="cls-1" d="M126.98,96.66l2.7.39c0,.27.04.48.13.62.09.14.23.26.43.36.2.1.47.15.82.15.54,0,.98-.11,1.3-.32.24-.17.44-.43.6-.8.1-.23.22-.74.37-1.51l.09-.45c-.89.74-1.8,1.1-2.75,1.1s-1.69-.33-2.28-.98-.89-1.61-.89-2.87c0-1.11.2-2.13.61-3.06.4-.93.97-1.63,1.7-2.1.73-.48,1.48-.71,2.24-.71.63,0,1.21.17,1.73.5.52.33.93.8,1.22,1.4l.36-1.68h2.4l-1.64,7.88c-.27,1.27-.49,2.17-.68,2.71s-.4.97-.63,1.29c-.24.32-.54.59-.9.81-.36.22-.79.37-1.28.47-.49.1-1.03.14-1.61.14-1.34,0-2.35-.23-3.03-.69-.68-.46-1.03-1.22-1.03-2.28,0-.11,0-.24.03-.37ZM130,92.09c0,.72.16,1.27.49,1.64s.73.57,1.22.57c.45,0,.88-.17,1.3-.51.42-.34.74-.82.96-1.44s.33-1.23.33-1.81c0-.67-.18-1.21-.54-1.62-.36-.41-.78-.61-1.26-.61s-.88.18-1.26.54c-.38.36-.7.92-.95,1.67-.19.58-.29,1.1-.29,1.57Z"/><path class="cls-1" d="M147.5,92.22h-6.42c0,.1,0,.18,0,.23,0,.63.18,1.14.54,1.52.36.39.8.58,1.32.58.85,0,1.51-.44,1.99-1.32l2.29.38c-.45.92-1.04,1.61-1.79,2.07-.75.46-1.58.69-2.51.69-1.27,0-2.31-.4-3.1-1.21-.8-.8-1.2-1.87-1.2-3.19s.36-2.45,1.08-3.46c.98-1.37,2.38-2.05,4.2-2.05,1.16,0,2.08.36,2.77,1.07.68.72,1.03,1.72,1.03,3.01,0,.62-.06,1.17-.18,1.67ZM145.34,90.66c0-.11,0-.2,0-.26,0-.7-.16-1.23-.47-1.58s-.74-.53-1.27-.53-1,.2-1.42.6c-.42.4-.7.99-.85,1.76h4Z"/><path class="cls-1" d="M148.42,96.16l2.74-13.06h2.55l-2.73,13.06h-2.56Z"/><path class="cls-1" d="M162.74,92.22h-6.42c0,.1,0,.18,0,.23,0,.63.18,1.14.54,1.52.36.39.8.58,1.32.58.85,0,1.51-.44,1.99-1.32l2.29.38c-.45.92-1.04,1.61-1.79,2.07-.75.46-1.58.69-2.51.69-1.27,0-2.31-.4-3.1-1.21-.8-.8-1.2-1.87-1.2-3.19s.36-2.45,1.08-3.46c.98-1.37,2.38-2.05,4.2-2.05,1.16,0,2.08.36,2.77,1.07.68.72,1.03,1.72,1.03,3.01,0,.62-.06,1.17-.18,1.67ZM160.58,90.66c0-.11,0-.2,0-.26,0-.7-.16-1.23-.47-1.58s-.74-.53-1.27-.53-1,.2-1.42.6c-.42.4-.7.99-.85,1.76h4.01Z"/><path class="cls-1" d="M163.34,93.51l2.48-.39c.22.52.49.89.82,1.11s.77.33,1.34.33,1.05-.13,1.4-.39c.24-.18.37-.39.37-.65,0-.17-.06-.33-.19-.46-.13-.13-.48-.29-1.06-.48-1.55-.51-2.5-.91-2.87-1.21-.58-.46-.87-1.07-.87-1.82s.28-1.39.84-1.93c.78-.75,1.94-1.13,3.47-1.13,1.22,0,2.14.22,2.77.67s1.02,1.05,1.19,1.81l-2.36.41c-.12-.34-.33-.6-.61-.78-.38-.23-.84-.35-1.37-.35s-.92.09-1.16.27c-.23.18-.35.38-.35.61s.12.43.36.59c.15.1.63.26,1.44.5,1.25.36,2.08.72,2.51,1.07.59.49.89,1.09.89,1.78,0,.9-.38,1.67-1.13,2.33-.75.66-1.82.99-3.19.99s-2.43-.25-3.17-.75c-.75-.5-1.25-1.21-1.52-2.12Z"/><path class="cls-1" d="M20.86,39.83c-.26.09-.43.27-.53.53-.1.26-.14.69-.14,1.28v11.56c0,.59.05,1.02.14,1.28.1.26.28.44.54.53s.68.16,1.25.19v.47h-8.11v-.47c.62-.03,1.07-.09,1.35-.19.28-.09.47-.27.58-.53.1-.26.16-.69.16-1.28v-12.18l-6.21,14.67h-.42l-6.96-15v11.16c0,.92.05,1.59.16,2.02.1.43.33.74.67.93.34.19.9.33,1.67.4v.47H0v-.47c.56-.08.98-.21,1.25-.39.27-.19.45-.48.54-.89.09-.41.14-1,.14-1.79v-10.49c0-.59-.05-1.02-.14-1.28-.09-.26-.27-.44-.54-.53-.27-.09-.68-.16-1.25-.19v-.47h6.3l5.21,11.34,4.74-11.34h5.87v.47c-.59.03-1.01.09-1.26.19Z"/><path class="cls-1" d="M38.14,55.66h-14.29v-.47c.56-.03.98-.09,1.25-.19.27-.09.45-.27.54-.53.09-.26.14-.69.14-1.28v-11.56c0-.59-.05-1.02-.14-1.28-.09-.26-.27-.44-.54-.53-.27-.09-.68-.16-1.25-.19v-.47h13.77c-.12,1.29-.18,2.44-.18,3.45,0,.68.03,1.21.08,1.58h-.59c-.26-1.66-.72-2.82-1.39-3.49-.67-.67-1.61-1-2.84-1h-1.06c-.53,0-.91.04-1.16.12-.24.08-.41.23-.49.45-.08.22-.13.59-.13,1.09v5.77h.82c.91,0,1.61-.3,2.08-.9s.8-1.33.99-2.17h.59c-.05.65-.08,1.38-.08,2.2v1.11c0,.79.05,1.89.15,3.31h-.59c-.36-2.05-1.41-3.08-3.14-3.08h-.82v5.87c0,.5.04.86.13,1.09.08.22.25.38.49.45.24.08.63.12,1.16.12h1.27c1.22,0,2.2-.38,2.94-1.13.75-.75,1.27-2.03,1.58-3.83h.59c-.05.51-.08,1.16-.08,1.96,0,1.43.06,2.6.18,3.54Z"/><path class="cls-1" d="M52.41,39.24c.73.27,1.45.64,2.15,1.11.21.14.38.22.52.22.18,0,.31-.11.42-.34.1-.22.18-.58.24-1.06h.59c-.07,1.05-.1,2.93-.1,5.64h-.6c-.13-1.06-.33-1.92-.6-2.57-.26-.65-.71-1.2-1.33-1.65-.41-.36-.92-.64-1.52-.84-.6-.2-1.22-.3-1.85-.3-1.21,0-2.21.37-3.01,1.1-.8.74-1.38,1.71-1.76,2.92-.38,1.21-.57,2.54-.57,3.98,0,5.38,1.65,8.06,4.94,8.06.75,0,1.36-.16,1.82-.47.23-.14.39-.31.48-.49.09-.19.14-.43.14-.72v-2.27c0-.74-.07-1.27-.2-1.6s-.38-.56-.73-.69-.91-.2-1.66-.23v-.47h7.85v.47c-.34.03-.59.09-.75.19-.16.09-.26.27-.32.54-.06.27-.09.69-.09,1.27v4.62h-.52c-.02-.33-.09-.63-.22-.91s-.3-.42-.52-.42c-.29,0-.76.16-1.4.49-1.49.78-2.9,1.17-4.23,1.17-2.97,0-5.24-.73-6.82-2.2s-2.37-3.53-2.37-6.19c0-1.74.4-3.26,1.2-4.58.8-1.32,1.9-2.34,3.31-3.08,1.4-.73,3.01-1.1,4.81-1.1,1.06,0,1.96.13,2.69.4Z"/><path class="cls-1" d="M74.74,54.83c.29.23.57.35.84.37v.47h-7.82v-.47c.65-.03,1.12-.1,1.39-.22.27-.12.41-.32.41-.62s-.1-.65-.3-1.11l-1.55-3.82h-5.62l-.67,1.6c-.48,1.12-.72,1.99-.72,2.59s.19.98.58,1.2c.39.22.96.35,1.71.38v.47h-5.16v-.47c.85-.14,1.58-.95,2.21-2.45l5.87-13.63h1.79l6.25,14.58c.23.52.49.89.78,1.12ZM67.52,48.95l-2.54-6.29-2.68,6.29h5.22Z"/><path class="cls-1" d="M93.25,39.64c-.56.08-.98.21-1.25.39-.27.19-.45.48-.54.89-.09.41-.14,1-.14,1.79v13h-1.32l-11.18-12.81v8.94c0,.92.05,1.59.16,2.02.1.43.33.74.67.93.34.19.9.33,1.67.4v.47h-5.02v-.47c.56-.08.98-.21,1.25-.39.27-.19.45-.48.54-.89.09-.41.14-1,.14-1.79v-10.49c0-.59-.05-1.02-.14-1.28-.09-.26-.27-.44-.54-.53-.27-.09-.68-.16-1.25-.19v-.47h4.45l9.97,11.11v-7.29c0-.92-.05-1.59-.16-2.02-.11-.43-.33-.74-.67-.93s-.9-.33-1.67-.4v-.47h5.02v.47Z"/><path class="cls-1" d="M163.43,48.4c1.05.77,1.57,1.69,1.57,2.75,0,1.44-.63,2.55-1.88,3.34-1.25.78-3,1.18-5.23,1.18h-8.55v-.47c.56-.03.98-.09,1.25-.19.27-.09.45-.27.54-.53s.14-.69.14-1.28v-11.56c0-.59-.05-1.02-.14-1.28s-.27-.44-.54-.53c-.27-.09-.68-.16-1.25-.19v-.47l7.95.02c2.06,0,3.64.33,4.73,1,1.09.67,1.64,1.55,1.64,2.66,0,.89-.43,1.73-1.3,2.51-.87.78-2.15,1.31-3.84,1.59v.05c2.23.16,3.87.63,4.92,1.4ZM155.95,39.8c-.22.11-.37.3-.45.58-.08.28-.13.7-.13,1.26v5.27h1.11c1.12,0,1.9-.35,2.35-1.04.45-.69.67-1.61.67-2.76s-.2-2.03-.61-2.6c-.41-.58-1.05-.86-1.92-.86-.46,0-.8.06-1.02.16ZM160.73,51.05c0-1.22-.34-2.15-1.03-2.79s-1.77-.96-3.24-.96h-1.08v5.89c0,.56.04.97.13,1.23s.25.44.5.55.63.15,1.14.15c2.39,0,3.58-1.36,3.58-4.08Z"/><path class="cls-1" d="M180.78,39.84c1.37.67,2.43,1.63,3.18,2.9.75,1.27,1.13,2.78,1.13,4.54s-.39,3.22-1.16,4.54c-.77,1.32-1.85,2.34-3.23,3.08-1.38.73-2.96,1.1-4.73,1.1s-3.41-.33-4.78-1c-1.37-.67-2.43-1.63-3.18-2.9s-1.13-2.78-1.13-4.54.39-3.22,1.16-4.54c.77-1.32,1.85-2.34,3.23-3.08,1.38-.73,2.96-1.1,4.73-1.1s3.41.33,4.78,1ZM173.4,40.3c-.72.69-1.27,1.66-1.66,2.9-.39,1.24-.58,2.67-.58,4.27s.22,3.04.65,4.27c.44,1.23,1.03,2.18,1.78,2.84.75.67,1.58,1,2.48,1s1.78-.35,2.5-1.04c.72-.69,1.27-1.66,1.66-2.9s.58-2.67.58-4.27-.22-3.04-.65-4.27c-.44-1.23-1.03-2.18-1.78-2.84-.75-.67-1.58-1-2.48-1s-1.78.35-2.5,1.04Z"/><path class="cls-1" d="M201.2,39.84c1.37.67,2.43,1.63,3.18,2.9.75,1.27,1.13,2.78,1.13,4.54s-.39,3.22-1.16,4.54c-.77,1.32-1.85,2.34-3.23,3.08-1.38.73-2.96,1.1-4.73,1.1s-3.41-.33-4.78-1c-1.37-.67-2.43-1.63-3.18-2.9-.75-1.27-1.13-2.78-1.13-4.54s.39-3.22,1.16-4.54c.77-1.32,1.85-2.34,3.23-3.08,1.38-.73,2.96-1.1,4.73-1.1s3.41.33,4.78,1ZM193.82,40.3c-.72.69-1.27,1.66-1.66,2.9-.39,1.24-.58,2.67-.58,4.27s.22,3.04.65,4.27c.44,1.23,1.03,2.18,1.78,2.84s1.58,1,2.48,1,1.78-.35,2.5-1.04,1.27-1.66,1.66-2.9c.39-1.24.58-2.67.58-4.27s-.22-3.04-.65-4.27c-.44-1.23-1.03-2.18-1.78-2.84-.75-.67-1.58-1-2.48-1s-1.78.35-2.5,1.04Z"/><path class="cls-1" d="M224.22,54.64c.28.22.63.41,1.06.56v.47h-7.3v-.47c.49-.03.84-.08,1.05-.14s.32-.17.32-.33c0-.12-.1-.31-.29-.58l-3.74-5.47c-.34-.5-.63-.84-.86-1.01-.23-.17-.54-.27-.94-.3v5.82c0,.59.05,1.02.14,1.28.09.26.27.44.53.53.26.09.68.16,1.26.19v.47h-7.95v-.47c.56-.03.98-.09,1.25-.19.27-.09.45-.27.54-.53s.14-.69.14-1.28v-11.56c0-.59-.05-1.02-.14-1.28s-.27-.44-.54-.53c-.27-.09-.68-.16-1.25-.19v-.47h7.95v.47c-.58.03-1,.09-1.26.19-.26.09-.44.27-.53.53-.09.26-.14.69-.14,1.28v5.24c.69-.03,1.31-.22,1.88-.56s1.21-.89,1.93-1.64l1.52-1.65c.79-.83,1.18-1.55,1.18-2.16,0-.38-.17-.68-.5-.89s-.8-.34-1.41-.37v-.44h6.24v.44c-1.38.3-2.62,1.04-3.74,2.24l-3.22,3.47,6,8.45c.26.36.53.64.81.86Z"/><path class="cls-1" d="M234.47,39.1c.53.16,1.08.38,1.63.68.18.1.35.18.5.24.15.06.27.09.37.09.16,0,.28-.08.36-.24.08-.16.15-.42.2-.78h.59c-.08,1.04-.13,2.81-.13,5.31h-.59c-.07-.84-.28-1.64-.63-2.41-.35-.76-.85-1.38-1.5-1.85-.65-.47-1.4-.71-2.25-.71s-1.52.21-2.04.64c-.52.42-.79,1-.79,1.73,0,.55.13,1.02.38,1.43.26.41.62.78,1.08,1.11.47.33,1.18.78,2.13,1.35l.83.52c1.01.6,1.81,1.12,2.4,1.58.58.45,1.06.98,1.43,1.58.37.6.55,1.29.55,2.08,0,.99-.28,1.83-.85,2.51-.57.68-1.34,1.19-2.31,1.53s-2.05.51-3.23.51c-.96,0-1.76-.08-2.4-.23-.63-.16-1.22-.37-1.75-.63-.38-.22-.67-.33-.87-.33-.16,0-.28.08-.36.24-.08.16-.15.42-.2.78h-.59c.07-.98.1-3.07.1-6.29h.59c.12,1.74.55,3.15,1.28,4.23.74,1.08,1.87,1.62,3.41,1.62.92,0,1.69-.22,2.29-.67.6-.45.91-1.09.91-1.93s-.31-1.62-.93-2.24c-.62-.62-1.6-1.32-2.94-2.1-1.02-.61-1.84-1.14-2.47-1.59-.62-.45-1.13-.98-1.52-1.59-.39-.61-.59-1.32-.59-2.13,0-.93.26-1.72.79-2.37.52-.64,1.22-1.12,2.1-1.43.88-.31,1.84-.47,2.89-.47.89,0,1.6.08,2.13.23Z"/><path class="cls-1" d="M118.23,51.83c-1.73,0-5.24-2.51-7.24-5-1.4-1.74-2.06-3.37-2.98-5.63-.98-2.41-1.99-5.37-1.21-5.72.4-.18.67.19,1.15.88.51.73,1.29,1.83,2.6,2.98,1.19,1.04,2.09,1.47,2.89,1.86.94.46,1.76.85,2.72,2.02.99,1.21,1.43,2.4,2.09,4.2.93,2.53,1.35,3.69.66,4.22h0c-.17.13-.4.19-.67.19ZM107.15,36.37c.1.78.63,2.57,1.46,4.59.9,2.21,1.55,3.8,2.89,5.47,2.59,3.22,6.39,5.18,7.01,4.7h0c.31-.24-.24-1.75-.87-3.49-.66-1.81-1.06-2.9-1.98-4.02-.87-1.06-1.59-1.4-2.5-1.84-.83-.4-1.78-.86-3.03-1.95-1.37-1.2-2.21-2.39-2.71-3.1-.09-.12-.18-.25-.26-.36Z"/><path class="cls-1" d="M118.34,51.51c-6.38-3.74-11.29-14.69-11.5-15.15l.59-.26c.05.11,5.03,11.22,11.24,14.85l-.33.56Z"/><path class="cls-1" d="M115.71,63.96c-1.68,0-4.93-2.1-6.75-4.5-1.16-1.53-1.55-2.92-2.1-4.84-.39-1.37-1.2-4.58-.25-4.86.41-.12.65.25,1,.81.4.62,1,1.57,2.16,2.57,1.04.91,1.91,1.31,2.67,1.67.87.41,1.69.79,2.49,1.82.83,1.07,1.07,2.08,1.43,3.62.48,2.05.75,3.18-.07,3.59h0c-.16.08-.36.12-.58.12ZM106.81,50.53c-.06.58.17,2.17.67,3.91.53,1.86.91,3.2,2,4.63,2.03,2.68,5.66,4.63,6.53,4.2h0c.37-.18.1-1.31-.27-2.86-.36-1.51-.57-2.42-1.32-3.38-.7-.9-1.39-1.22-2.26-1.63-.8-.37-1.71-.8-2.82-1.77-1.22-1.07-1.88-2.1-2.28-2.71-.09-.14-.18-.28-.26-.39Z"/><path class="cls-1" d="M115.81,63.7c-6.01-3.42-9.15-12.75-9.28-13.14l.62-.2c.03.09,3.19,9.49,8.99,12.78l-.32.56Z"/><path class="cls-1" d="M121.36,42.62c-.17,0-.36-.05-.56-.15-1.42-.68-3.84-4.03-5.05-7.77-.75-2.32-.86-4.26-.99-6.95-.07-1.37-.08-2.85-.03-3.97.09-1.98.33-2.39.72-2.43.45-.05.57.41.8,1.31.25.95.63,2.39,1.49,4.07.78,1.52,1.49,2.3,2.12,2.99.74.81,1.38,1.52,1.9,3.07.54,1.61.57,3.01.61,5.14.06,2.96.09,4.32-.72,4.62h0c-.09.04-.19.05-.29.05ZM115.5,22.39c-.15.88-.23,2.93-.1,5.34.14,2.64.24,4.55.96,6.79,1.13,3.47,3.42,6.76,4.72,7.38.15.07.28.1.35.07.38-.15.35-1.93.3-4.01-.04-2.14-.07-3.43-.58-4.94-.48-1.43-1.05-2.05-1.77-2.85-.65-.72-1.39-1.53-2.22-3.13-.9-1.74-1.3-3.28-1.55-4.2-.04-.15-.08-.31-.12-.45Z"/><path class="cls-1" d="M121.14,42.24c-4.79-6.2-5.89-19.42-5.94-19.98l.65-.05c.01.14,1.13,13.59,5.8,19.63l-.51.4Z"/><path class="cls-1" d="M125.67,36.48c-.46,0-.82-.1-1.04-.32h0s0,0,0,0c-.7-.7,0-2.05,1.41-4.74,1.04-1.99,1.72-3.31,3.05-4.56,1.29-1.2,2.29-1.53,3.46-1.92.99-.33,2.12-.7,3.66-1.72,1.71-1.14,2.78-2.31,3.49-3.08.64-.7,1-1.09,1.4-.84.86.54-1.06,4.24-2.29,6.4-1.41,2.48-2.42,4.27-4.31,6.08-2.78,2.66-6.8,4.7-8.84,4.7ZM140.69,20.04c-.14.14-.33.34-.5.53-.69.75-1.84,2-3.61,3.18-1.62,1.08-2.79,1.46-3.82,1.8-1.14.37-2.04.67-3.22,1.78-1.25,1.17-1.88,2.38-2.92,4.38-1.06,2.03-1.89,3.63-1.53,3.99h0c.69.69,5.38-.95,8.97-4.39,1.82-1.74,2.82-3.5,4.19-5.93,1.38-2.43,2.29-4.55,2.43-5.34Z"/><path class="cls-1" d="M125.25,36.09l-.25-.6c7.8-3.29,15.28-15.46,15.36-15.59l.55.34c-.31.51-7.66,12.48-15.66,15.85Z"/><path class="cls-1" d="M121.69,49.4c-.93,0-1.62-.19-1.9-.61h0c-.55-.82.38-1.97,2.25-4.28,1.38-1.71,2.29-2.84,3.82-3.76,1.47-.9,2.52-1.01,3.72-1.14,1.02-.11,2.19-.23,3.88-.9,1.87-.74,3.13-1.65,3.96-2.24.76-.54,1.17-.84,1.51-.52.74.7-1.82,3.87-3.41,5.69-1.82,2.1-3.14,3.62-5.32,4.97-2.75,1.71-6.31,2.8-8.52,2.8ZM120.33,48.43c.55.81,5.41.2,9.54-2.37,2.09-1.3,3.38-2.79,5.17-4.84,1.79-2.06,3.07-3.91,3.35-4.63-.17.1-.39.26-.59.41-.81.58-2.15,1.55-4.1,2.32-1.77.7-2.98.83-4.05.95-1.17.13-2.1.22-3.45,1.04-1.43.87-2.26,1.9-3.64,3.61-1.4,1.73-2.5,3.1-2.22,3.52h0Z"/><path class="cls-1" d="M120.39,48.84l-.12-.64c8.2-1.55,17.71-11.73,17.8-11.84l.48.44c-.39.43-9.75,10.44-18.16,12.03Z"/><path class="cls-1" d="M123.03,59.95c-.46,0-.79-.03-1-.05-1.71-.16-4.61-.61-4.8-1.93h0c-.23-1.61,3.7-3.41,6.51-3.94,1.21-.23,1.88-.19,2.98-.11.87.06,2.06.14,4.05.11,1.51-.02,2.63-.09,3.45-.14,1.47-.09,2.03-.13,2.19.37.52,1.54-7.18,4.41-7.25,4.44-2.97,1.06-4.97,1.26-6.13,1.26ZM117.87,57.89c.08.58,1.85,1.16,4.21,1.37.71.06,2.86.26,6.86-1.17,3.37-1.21,6.5-2.96,6.83-3.59-.23-.04-.83,0-1.5.04-.82.05-1.95.12-3.48.15-2.02.03-3.22-.05-4.1-.11-1.09-.07-1.69-.11-2.82.1-3.17.6-6.11,2.35-5.99,3.21h0Z"/><path class="cls-1" d="M117.84,58.26c-.18,0-.28,0-.29,0v-.65c.12,0,10.93.16,18.27-3.13l.27.59c-6.79,3.04-16.45,3.19-18.25,3.19Z"/><path class="cls-1" d="M111.73,75.73l-.53-.37c1.82-2.57,3.19-5.29,4.06-8.07.41-1.31.53-2.06.76-3.41.19-1.12.44-2.66.98-5.27.58-2.81,1.22-5.53,1.89-8.09.93-3.53,1.45-5.48,2.46-8.07.9-2.3,1.99-4.55,3.23-6.67l.56.33c-1.22,2.1-2.29,4.31-3.19,6.58-1,2.56-1.51,4.49-2.44,8-.67,2.55-1.31,5.26-1.88,8.05-.54,2.59-.79,4.12-.97,5.24-.23,1.39-.36,2.15-.78,3.5-.89,2.85-2.29,5.62-4.15,8.25Z"/></svg>