<?xml version="1.0" encoding="UTF-8"?><svg id="_Слой_1" xmlns="http://www.w3.org/2000/svg" width="189" height="100" viewBox="0 0 100 100"><defs><style>.cls-1{fill:#26406b;}</style></defs><path class="cls-1" d="M53.05,50.1c-1.2,0-3.65-1.74-5.04-3.47-.97-1.21-1.44-2.35-2.07-3.91-.68-1.68-1.38-3.73-.84-3.98.28-.13.46.13.8.61.36.51.9,1.27,1.81,2.07.82.72,1.45,1.02,2.01,1.29.66.32,1.22.59,1.89,1.4.69.84.99,1.67,1.45,2.92.65,1.76.94,2.56.46,2.93h0c-.12.09-.28.13-.46.13ZM45.34,39.35c.07.54.44,1.78,1.01,3.19.62,1.53,1.08,2.64,2.01,3.8,1.8,2.24,4.44,3.6,4.87,3.26h0c.22-.17-.16-1.21-.61-2.42-.46-1.26-.74-2.01-1.38-2.79-.6-.74-1.1-.98-1.74-1.28-.58-.28-1.24-.6-2.11-1.36-.95-.83-1.53-1.66-1.88-2.15-.06-.09-.12-.18-.18-.25Z"/><path class="cls-1" d="M53.12,49.87c-4.44-2.6-7.85-10.21-7.99-10.53l.41-.18c.03.08,3.5,7.8,7.81,10.33l-.23.39Z"/><path class="cls-1" d="M51.3,58.53c-1.17,0-3.43-1.46-4.69-3.13-.8-1.06-1.08-2.03-1.46-3.37-.27-.95-.83-3.18-.17-3.38.28-.08.45.17.7.56.28.43.7,1.09,1.5,1.79.73.63,1.33.91,1.86,1.16.61.28,1.18.55,1.73,1.26.58.74.74,1.45,1,2.52.34,1.43.52,2.21-.05,2.5h0c-.11.06-.25.08-.41.08ZM45.11,49.19c-.04.4.12,1.51.47,2.72.37,1.29.64,2.22,1.39,3.22,1.41,1.86,3.93,3.22,4.54,2.92h0c.25-.13.07-.91-.19-1.99-.25-1.05-.4-1.68-.91-2.35-.49-.63-.97-.85-1.57-1.13-.56-.26-1.19-.55-1.96-1.23-.85-.74-1.31-1.46-1.58-1.89-.06-.09-.13-.2-.18-.27Z"/><path class="cls-1" d="M51.36,58.35c-4.18-2.38-6.36-8.86-6.45-9.14l.43-.14c.02.07,2.22,6.6,6.25,8.89l-.22.39Z"/><path class="cls-1" d="M55.22,43.69c-.12,0-.25-.03-.39-.1-.98-.47-2.67-2.8-3.51-5.4-.52-1.61-.59-2.96-.69-4.83-.05-.95-.06-1.98-.02-2.76.06-1.37.23-1.66.5-1.69.31-.03.39.28.56.91.17.66.43,1.66,1.04,2.83.55,1.05,1.04,1.6,1.47,2.08.51.57.96,1.05,1.32,2.14.38,1.12.4,2.09.43,3.57.04,2.06.06,3-.5,3.21h0c-.06.02-.13.04-.2.04ZM51.15,29.63c-.11.61-.16,2.03-.07,3.71.1,1.84.16,3.16.67,4.72.78,2.41,2.38,4.7,3.28,5.13.1.05.19.07.24.05.27-.1.24-1.34.21-2.78-.03-1.49-.05-2.38-.4-3.44-.33-.99-.73-1.43-1.23-1.98-.45-.5-.97-1.07-1.54-2.17-.63-1.21-.91-2.28-1.07-2.92-.03-.11-.06-.22-.08-.31Z"/><path class="cls-1" d="M55.07,43.43c-3.33-4.31-4.1-13.5-4.13-13.89l.45-.04c0,.09.79,9.45,4.04,13.65l-.36.27Z"/><path class="cls-1" d="M58.22,39.42c-.32,0-.57-.07-.72-.23h0s0,0,0,0c-.48-.48,0-1.42.98-3.3.72-1.39,1.2-2.3,2.12-3.17.89-.84,1.59-1.07,2.4-1.33.69-.23,1.47-.48,2.55-1.2,1.19-.79,1.93-1.6,2.43-2.14.45-.49.69-.76.97-.58.6.37-.74,2.95-1.59,4.45-.98,1.72-1.68,2.97-3,4.23-1.93,1.85-4.73,3.27-6.14,3.27ZM68.66,28c-.1.1-.23.24-.35.37-.48.52-1.28,1.39-2.51,2.21-1.13.75-1.94,1.02-2.65,1.25-.79.26-1.42.47-2.24,1.23-.87.81-1.31,1.66-2.03,3.05-.73,1.41-1.31,2.52-1.06,2.77h0c.48.48,3.74-.66,6.24-3.05,1.27-1.21,1.96-2.43,2.92-4.12.96-1.69,1.59-3.16,1.69-3.71Z"/><path class="cls-1" d="M57.92,39.15l-.17-.41c5.43-2.28,10.62-10.75,10.68-10.84l.38.23c-.21.35-5.33,8.68-10.89,11.02Z"/><path class="cls-1" d="M55.45,48.41c-.65,0-1.12-.13-1.32-.43h0c-.38-.57.27-1.37,1.56-2.98.96-1.19,1.59-1.97,2.65-2.62,1.02-.62,1.75-.7,2.59-.79.71-.08,1.52-.16,2.7-.63,1.3-.52,2.18-1.14,2.75-1.56.53-.38.82-.58,1.05-.36.51.48-1.26,2.69-2.37,3.96-1.27,1.46-2.18,2.51-3.7,3.45-1.91,1.19-4.39,1.94-5.92,1.94ZM54.5,47.73c.38.56,3.76.14,6.63-1.65,1.45-.91,2.35-1.94,3.59-3.37,1.24-1.43,2.13-2.72,2.33-3.22-.12.07-.27.18-.41.28-.56.4-1.5,1.07-2.85,1.61-1.23.49-2.07.58-2.81.66-.82.09-1.46.16-2.4.73-.99.6-1.57,1.32-2.53,2.51-.97,1.2-1.74,2.15-1.54,2.45h0Z"/><path class="cls-1" d="M54.55,48.02l-.08-.44c5.7-1.08,12.31-8.16,12.38-8.23l.33.31c-.27.3-6.78,7.26-12.62,8.36Z"/><path class="cls-1" d="M56.38,55.74c-.32,0-.55-.02-.69-.03-1.19-.11-3.21-.43-3.34-1.34h0c-.16-1.12,2.58-2.37,4.53-2.74.84-.16,1.3-.13,2.07-.08.6.04,1.43.09,2.82.07,1.05-.02,1.83-.06,2.4-.1,1.03-.06,1.41-.09,1.52.25.36,1.07-4.99,3.07-5.04,3.09-2.06.74-3.45.88-4.27.88ZM52.8,54.31c.06.4,1.29.81,2.93.96.49.04,1.99.18,4.77-.82,2.34-.84,4.52-2.05,4.75-2.5-.16-.03-.57,0-1.05.03-.57.04-1.36.09-2.42.1-1.4.02-2.24-.03-2.85-.07-.76-.05-1.18-.08-1.96.07-2.21.42-4.25,1.63-4.17,2.23h0Z"/><path class="cls-1" d="M52.77,54.56c-.13,0-.2,0-.2,0v-.45c.08,0,7.6.11,12.71-2.18l.18.41c-4.72,2.11-11.44,2.22-12.69,2.22Z"/><path class="cls-1" d="M42.37,72.83l-.37-.26c1.27-1.79,7.32-4.67,8.98-11.73.22-.93.37-1.43.53-2.37.13-.78.31-1.85.68-3.66.4-1.95.85-3.84,1.32-5.62.65-2.46,1.01-3.81,1.71-5.61.63-1.6,1.38-3.16,2.25-4.64l.39.23c-.85,1.46-1.59,3-2.22,4.58-.7,1.78-1.05,3.12-1.7,5.56-.47,1.77-.91,3.66-1.31,5.6-.37,1.8-.55,2.87-.68,3.64-.16.96-.37,1.47-.54,2.43-1.27,7.02-7.75,10.03-9.04,11.86Z"/><path class="cls-1" d="M38.58,59.3h0c-.31-.24-.12-.75.29-1.87.29-.8.49-1.33.93-1.86.43-.52.79-.69,1.21-.89.35-.17.75-.36,1.28-.82.58-.51.93-1,1.15-1.32.21-.3.33-.47.51-.39.34.16-.1,1.47-.54,2.54-.41,1-.7,1.72-1.32,2.5-.89,1.1-2.44,2.21-3.21,2.21-.12,0-.22-.03-.3-.09ZM43.67,52.69c-.22.31-.59.84-1.2,1.37-.56.49-.97.69-1.34.87-.4.19-.72.35-1.11.82-.41.5-.59.98-.88,1.78-.28.77-.53,1.44-.39,1.55h0c.28.21,1.96-.65,3.11-2.08.59-.74.88-1.45,1.28-2.42.37-.9.6-1.69.65-2.04-.04.05-.08.11-.12.16Z"/><path class="cls-1" d="M38.82,59.24c2.83-1.66,5.01-6.51,5.1-6.72l-.26-.12s-2.23,4.98-4.98,6.59l.15.25Z"/><path class="cls-1" d="M39.73,64.71h0c-.37-.18-.25-.68-.03-1.59.16-.68.27-1.13.64-1.61.35-.45.72-.63,1.11-.81.34-.16.72-.34,1.18-.74.51-.45.78-.86.96-1.14.16-.25.26-.41.45-.36.42.12.06,1.55-.11,2.15-.24.85-.42,1.47-.93,2.15-.81,1.07-2.25,2-2.99,2-.1,0-.19-.02-.26-.05ZM43.82,58.98c-.17.27-.47.73-1.01,1.2-.49.43-.9.62-1.25.78-.38.18-.69.32-1,.72-.33.42-.42.83-.58,1.5-.16.69-.28,1.19-.12,1.27h0c.39.19,1.99-.67,2.89-1.86.48-.63.65-1.23.89-2.05.22-.77.33-1.48.3-1.73-.03.05-.08.11-.11.17Z"/><path class="cls-1" d="M39.95,64.64c2.67-1.51,4.06-5.65,4.12-5.83l-.27-.09s-1.42,4.21-3.98,5.67l.14.25Z"/><path class="cls-1" d="M37.36,55.28h0c-.36-.14-.35-.74-.32-2.05.02-.94.03-1.56.27-2.28.23-.69.52-1,.84-1.36.28-.31.59-.65.94-1.32.39-.74.55-1.38.66-1.8.11-.4.16-.6.36-.58.17.02.28.2.32,1.08.02.49.02,1.15-.01,1.76-.06,1.19-.11,2.05-.44,3.08-.54,1.65-1.61,3.14-2.24,3.44-.09.04-.17.06-.25.06-.05,0-.09,0-.13-.02ZM40.03,46.53c-.11.41-.29,1.09-.69,1.86-.36.71-.69,1.07-.98,1.39-.32.35-.57.63-.78,1.26-.23.67-.24,1.24-.26,2.19-.02.92-.03,1.71.13,1.78.03.01.09,0,.15-.03.57-.27,1.59-1.73,2.09-3.27.32-.99.37-1.84.43-3.01.06-1.07.02-1.98-.05-2.37-.02.06-.04.13-.05.2Z"/><path class="cls-1" d="M37.58,55.13c2.12-2.75,2.61-8.61,2.63-8.86l-.29-.02c0,.06-.5,6.02-2.57,8.7l.23.18Z"/><path class="cls-1" d="M31.65,50.49c-.84-.8-1.29-1.6-1.91-2.7-.54-.96-1.4-2.6-1.01-2.84.18-.11.33.06.62.37.31.34.79.86,1.55,1.36.69.46,1.18.62,1.62.76.52.17.96.32,1.53.85.59.55.89,1.14,1.35,2.02.62,1.2.93,1.8.63,2.1,0,0,0,0,0,0h0c-.1.1-.26.14-.46.14-.9,0-2.69-.91-3.92-2.09ZM29.99,47.65c.61,1.08,1.05,1.86,1.86,2.63,1.59,1.53,3.67,2.25,3.98,1.95h0c.16-.16-.21-.87-.68-1.77-.46-.89-.74-1.42-1.3-1.94-.52-.49-.92-.62-1.43-.79-.46-.15-.98-.32-1.69-.8-.79-.52-1.3-1.08-1.6-1.41-.08-.08-.16-.17-.22-.24.06.35.47,1.29,1.08,2.37Z"/><path class="cls-1" d="M35.76,52.4l.11-.26c-3.46-1.46-6.78-6.86-6.81-6.91l-.25.15c.14.23,3.4,5.53,6.94,7.03Z"/><path class="cls-1" d="M33.56,57.07c-.96-.6-1.55-1.27-2.36-2.2-.7-.81-1.84-2.22-1.51-2.52.15-.14.34-.01.67.23.37.26.93.66,1.76.99.75.3,1.27.35,1.72.4.53.06,1,.11,1.65.5.68.41,1.08.91,1.69,1.67.83,1.02,1.24,1.54,1,1.9h0c-.13.19-.43.27-.84.27-.98,0-2.56-.48-3.78-1.24ZM37.94,57.87c.13-.19-.36-.79-.98-1.56-.61-.76-.98-1.22-1.62-1.6-.6-.36-1.01-.41-1.53-.46-.47-.05-1.01-.11-1.8-.42-.86-.34-1.46-.77-1.82-1.03-.09-.06-.19-.13-.26-.18.12.32.69,1.14,1.48,2.05.79.91,1.36,1.57,2.29,2.15,1.83,1.14,3.99,1.41,4.23,1.05h0Z"/><path class="cls-1" d="M37.91,58.06l.05-.28c-3.63-.69-7.85-5.2-7.89-5.25l-.21.19c.17.19,4.32,4.63,8.05,5.33Z"/><path class="cls-1" d="M34.03,62.43s-3.44-1.28-3.22-1.97c.07-.22.32-.2.97-.16.36.02.86.05,1.53.06.88.01,1.41-.02,1.8-.05.49-.03.79-.05,1.32.05,1.24.24,2.99,1.03,2.89,1.75h0c-.08.58-1.37.79-2.13.85-.09,0-.24.02-.44.02-.52,0-1.41-.09-2.72-.56ZM39.03,62.07c.05-.38-1.25-1.16-2.66-1.42-.5-.09-.77-.08-1.25-.05-.39.03-.93.06-1.82.05-.68,0-1.18-.04-1.54-.06-.3-.02-.57-.04-.67-.02.14.28,1.53,1.06,3.03,1.59,1.77.64,2.73.55,3.04.52,1.05-.1,1.83-.35,1.87-.61h0Z"/><path class="cls-1" d="M39.05,62.23c.08,0,.12,0,.13,0v-.29c-.05,0-4.85.07-8.1-1.39l-.12.26c3.01,1.35,7.29,1.41,8.09,1.41Z"/><path class="cls-1" d="M45.68,73.88l.23-.17c-.81-1.14-4.67-2.98-5.73-7.48-.14-.59-.24-.91-.34-1.51-.08-.5-.2-1.18-.43-2.34-.26-1.24-.54-2.45-.84-3.59-.41-1.57-.64-2.43-1.09-3.58-.4-1.02-.88-2.02-1.43-2.96l-.25.14c.54.93,1.02,1.91,1.41,2.92.45,1.13.67,1.99,1.08,3.55.3,1.13.58,2.33.84,3.57.24,1.15.35,1.83.43,2.32.1.62.23.94.35,1.55.81,4.48,4.94,6.4,5.77,7.56Z"/><path class="cls-1" d="M50,100c-13.36,0-25.91-5.2-35.36-14.64C5.2,75.91,0,63.36,0,50S5.2,24.09,14.64,14.64C24.09,5.2,36.64,0,50,0s25.91,5.2,35.36,14.64c9.44,9.44,14.64,22,14.64,35.36s-5.2,25.91-14.64,35.36c-9.44,9.44-22,14.64-35.36,14.64ZM50,2.25C23.67,2.25,2.25,23.67,2.25,50s21.42,47.75,47.75,47.75,47.75-21.42,47.75-47.75S76.33,2.25,50,2.25Z"/><path class="cls-1" d="M9.61,34.42l.41-.92,2.47,1.1c.39.18.65.28.78.31.2.04.4.02.58-.08.18-.1.33-.28.44-.53.12-.26.15-.48.1-.66-.05-.18-.14-.32-.29-.42-.14-.1-.4-.23-.76-.39l-2.52-1.13.41-.92,2.4,1.07c.55.24.92.44,1.13.59.2.15.35.33.45.53.1.2.14.44.13.7,0,.27-.09.58-.25.94-.19.44-.39.74-.59.92-.2.18-.41.3-.63.36-.22.06-.43.07-.62.03-.29-.06-.69-.2-1.2-.43l-2.43-1.09Z"/><path class="cls-1" d="M17.15,30.37l-4.13-2.8,1.19-1.76c.3-.44.55-.74.76-.89.21-.15.45-.22.72-.21.27,0,.53.1.77.26.31.21.5.48.58.79s.02.68-.17,1.08c.23-.11.44-.18.65-.21.21-.03.54-.04.99-.02l1.15.04-.68,1h-1.31c-.47-.01-.77,0-.91.02s-.25.07-.34.13c-.09.07-.2.2-.33.39l-.11.17,1.73,1.17-.57.83ZM15.33,27.92l.42-.62c.27-.4.42-.66.46-.78.03-.12.03-.24-.02-.35-.04-.11-.13-.21-.25-.3-.14-.09-.28-.13-.41-.12-.14.02-.26.08-.38.2-.06.06-.2.26-.43.6l-.44.65,1.05.71Z"/><path class="cls-1" d="M17.57,21.43l1.39-1.43c.28-.28.49-.48.65-.6.16-.12.33-.19.51-.23.18-.04.37-.03.57.02.2.05.37.15.53.3.17.16.28.36.33.58.05.23.04.45-.04.67.28-.16.55-.22.81-.19.27.03.5.15.71.35.16.16.28.35.36.58.08.23.1.45.07.67-.04.22-.14.44-.3.65-.1.13-.38.43-.82.9l-1.19,1.22-3.58-3.49ZM18.87,21.28l.83.81.46-.47c.27-.28.44-.46.5-.54.11-.14.16-.28.16-.42,0-.14-.06-.27-.18-.38-.11-.11-.23-.16-.36-.17-.13,0-.26.04-.39.15-.08.06-.28.27-.61.61l-.4.41ZM20.29,22.67l.96.93.65-.67c.25-.26.41-.43.46-.52.09-.13.12-.26.11-.4,0-.14-.08-.27-.21-.4-.11-.1-.22-.17-.35-.19-.13-.02-.25,0-.38.07-.13.07-.36.26-.68.59l-.57.58Z"/><path class="cls-1" d="M29.48,17.75l-.89.64-1.02-.66-1.62,1.17.33,1.16-.87.63-1.36-5.19.86-.63,4.55,2.87ZM26.82,17.24l-1.65-1.1.54,1.9,1.1-.8Z"/><path class="cls-1" d="M31.24,16.74l-2.2-4.48.88-.43,3.31,2.09-1.47-2.99.84-.41,2.2,4.48-.91.45-3.24-2.04,1.44,2.92-.84.41Z"/><path class="cls-1" d="M40.12,8.02l1.96-.36c.39-.07.68-.11.88-.11s.38.03.55.11c.17.08.32.19.45.34s.22.33.26.55c.04.23.02.45-.07.67-.09.22-.23.39-.42.53.32.03.57.14.77.32.2.18.33.41.38.7.04.22.03.45-.04.68-.07.23-.18.43-.33.58-.16.16-.36.28-.62.36-.16.05-.56.13-1.19.25l-1.67.31-.91-4.91ZM41.26,8.66l.21,1.14.65-.12c.39-.07.63-.12.72-.15.17-.05.29-.13.37-.25.08-.12.1-.25.07-.41-.03-.15-.09-.27-.19-.35-.1-.08-.24-.11-.41-.1-.1,0-.38.05-.85.14l-.57.11ZM41.62,10.61l.24,1.31.92-.17c.36-.07.58-.12.67-.16.14-.05.25-.14.32-.26.07-.12.09-.27.06-.44-.03-.15-.09-.27-.18-.36-.09-.09-.21-.15-.35-.17-.14-.02-.44,0-.89.09l-.8.15Z"/><path class="cls-1" d="M47.5,9.46c0-.51.07-.94.23-1.28.11-.25.27-.48.46-.69s.41-.35.65-.45c.31-.13.67-.2,1.08-.2.74,0,1.33.23,1.77.68.44.46.66,1.09.66,1.9,0,.81-.22,1.44-.66,1.89-.44.46-1.02.68-1.76.69-.74,0-1.33-.22-1.77-.68-.44-.45-.66-1.08-.66-1.87ZM48.54,9.43c0,.57.13.99.39,1.29.26.29.59.44,1,.44.4,0,.73-.15.99-.44s.39-.72.39-1.3c0-.57-.13-1-.38-1.28-.25-.28-.59-.42-1-.42-.42,0-.75.14-1,.43-.25.29-.38.72-.38,1.29Z"/><path class="cls-1" d="M55.1,9.72c.09-.5.25-.91.46-1.22.16-.23.35-.42.58-.59.23-.16.47-.27.72-.32.33-.07.7-.07,1.09,0,.72.14,1.26.47,1.61,1,.35.53.45,1.2.3,1.99-.15.79-.48,1.37-1,1.74s-1.13.48-1.85.34c-.73-.14-1.27-.47-1.61-1-.35-.53-.45-1.18-.3-1.96ZM56.13,9.88c-.1.56-.06,1,.15,1.34.2.34.5.54.9.62.4.07.75,0,1.05-.24.31-.24.51-.64.62-1.21.11-.56.06-1.01-.13-1.33-.19-.32-.5-.52-.9-.6-.41-.08-.76,0-1.07.23-.3.23-.51.63-.61,1.2Z"/><path class="cls-1" d="M61.83,13.77l1.8-4.66.94.36-.8,2.07,2.7-1.33,1.27.49-2.46,1.14.75,3.56-1.22-.47-.44-2.68-1.06.48-.54,1.41-.94-.36Z"/><path class="cls-1" d="M68.65,14.92l.89.42c-.12.31-.14.58-.06.81.08.23.24.42.51.57.28.17.52.23.74.2.21-.03.37-.13.46-.29.06-.1.08-.21.07-.31-.02-.11-.08-.23-.2-.37-.08-.1-.27-.3-.58-.6-.39-.39-.64-.73-.72-1.01-.12-.39-.08-.76.12-1.1.13-.22.31-.39.55-.5.24-.12.5-.15.79-.11.29.04.6.16.93.36.54.32.87.68,1,1.08.13.4.08.8-.14,1.2l-.89-.48c.09-.24.11-.45.05-.62-.06-.17-.22-.33-.46-.47-.25-.15-.48-.22-.68-.2-.13.01-.23.07-.3.18-.06.1-.07.21-.03.34.05.16.26.41.62.76.36.35.61.64.75.87.14.23.21.47.21.72,0,.25-.08.51-.24.78-.15.25-.35.43-.62.57-.27.13-.55.18-.87.13-.31-.05-.65-.18-1.03-.4-.54-.32-.88-.7-1.02-1.12-.14-.42-.1-.89.14-1.41Z"/><path class="cls-1" d="M74.25,20.66l2.68-3.17-1.13-.96.55-.65,3.03,2.56-.55.65-1.13-.95-2.68,3.17-.77-.65Z"/><path class="cls-1" d="M79.62,22.2c.39-.33.77-.54,1.13-.65.27-.08.54-.1.82-.08.28.02.53.09.76.21.3.15.58.39.84.7.47.56.68,1.16.61,1.79-.07.63-.41,1.21-1.03,1.73-.62.52-1.24.76-1.87.71-.63-.04-1.18-.35-1.65-.91-.48-.57-.68-1.17-.62-1.79.07-.63.4-1.2,1.01-1.71ZM80.31,22.98c-.43.36-.68.74-.73,1.13-.06.39.05.74.3,1.04.26.31.58.47.97.48.39.01.8-.17,1.25-.54.44-.37.69-.74.74-1.11.05-.37-.05-.72-.32-1.04-.27-.32-.59-.48-.97-.5-.38-.01-.79.17-1.23.54Z"/><path class="cls-1" d="M82.24,29.59l4.35-2.46,1.05,1.85c.26.46.41.82.46,1.08.04.25,0,.5-.13.74-.13.24-.32.43-.58.58-.33.18-.65.24-.97.17-.32-.07-.62-.28-.89-.63,0,.25-.04.48-.1.68s-.2.5-.42.9l-.55,1.01-.59-1.05.59-1.17c.21-.42.34-.69.38-.82.04-.13.05-.25.03-.37-.02-.11-.09-.27-.2-.47l-.1-.18-1.82,1.03-.5-.88ZM85.24,29.05l.37.65c.24.42.4.67.5.76.09.08.2.13.32.14.12.01.25-.02.38-.1.15-.08.24-.19.29-.32s.04-.27-.02-.43c-.03-.08-.15-.29-.35-.65l-.39-.69-1.1.62Z"/><path class="cls-1" d="M85.35,35.6l4.71-1.68,1.24,3.49-.8.28-.9-2.54-1.04.37.84,2.36-.79.28-.84-2.36-1.28.46.94,2.63-.79.28-1.27-3.58Z"/><path class="cls-1" d="M11.84,67.24l.64.95c-.3.24-.49.5-.54.77-.06.27,0,.56.17.88.18.33.39.55.62.64.23.09.44.09.63-.02.12-.07.2-.16.25-.27.05-.12.05-.28.02-.49-.02-.14-.1-.46-.23-.95-.16-.63-.21-1.11-.13-1.44.11-.47.37-.81.77-1.03.26-.14.54-.2.85-.18.31.02.6.14.87.36.27.21.51.52.73.91.35.64.47,1.2.37,1.68-.11.48-.39.85-.85,1.12l-.61-1.01c.24-.19.38-.38.41-.59.04-.21-.02-.46-.18-.75-.16-.3-.35-.5-.57-.6-.14-.07-.27-.06-.41,0-.12.07-.2.17-.23.32-.04.19.02.57.17,1.14.15.57.23,1.01.24,1.32,0,.31-.07.59-.21.85-.15.26-.38.47-.7.65-.29.16-.61.23-.96.2-.34-.02-.66-.15-.95-.38-.29-.23-.55-.57-.79-1.01-.35-.65-.47-1.23-.36-1.73.11-.51.43-.95.97-1.33Z"/><path class="cls-1" d="M17.76,79.37l-.81-.99.7-1.23-1.47-1.8-1.33.46-.79-.97,5.95-1.92.79.96-3.04,5.49ZM18.18,76.24l1.17-1.99-2.17.76,1,1.23Z"/><path class="cls-1" d="M20.11,81.67l3.73-4.47.88.73-.66,4.51,2.49-2.99.84.7-3.73,4.47-.91-.76.63-4.42-2.44,2.92-.84-.7Z"/><path class="cls-1" d="M31.4,89.31l2.27-5.36,3.68,1.56-.38.91-2.59-1.1-.54,1.27,2.24.95-.38.91-2.24-.95-.97,2.28-1.08-.46Z"/><path class="cls-1" d="M38.79,92.06l1.23-5.69,2.42.52c.61.13,1.04.28,1.29.44.25.16.44.39.54.69.11.3.13.61.06.95-.09.43-.29.75-.61.98-.31.22-.72.32-1.24.28.22.2.39.4.51.61.12.21.28.56.46,1.07l.46,1.26-1.37-.3-.56-1.42c-.2-.51-.34-.83-.43-.97-.08-.14-.18-.24-.29-.31-.11-.07-.3-.13-.56-.19l-.23-.05-.51,2.38-1.15-.25ZM40.65,89.02l.85.18c.55.12.9.17,1.05.15.15-.02.27-.07.37-.17.1-.1.17-.23.21-.4.04-.19.02-.36-.05-.5s-.21-.25-.39-.32c-.09-.03-.37-.1-.83-.2l-.9-.19-.31,1.44Z"/><path class="cls-1" d="M52.42,93.61l-1.28-.03-.48-1.33-2.33-.05-.51,1.31-1.25-.03,2.39-5.77,1.24.03,2.21,5.87ZM50.31,91.26l-.76-2.18-.83,2.14,1.59.03Z"/><path class="cls-1" d="M55.68,93.32l-.97-5.74,1.13-.19,3,3.44-.65-3.84,1.08-.18.97,5.74-1.16.2-2.95-3.35.63,3.75-1.08.18Z"/><path class="cls-1" d="M67.01,88.11l1.19-.07c.06.66-.04,1.2-.31,1.63-.27.43-.7.76-1.28.99-.72.28-1.41.26-2.06-.06-.65-.32-1.14-.9-1.47-1.76-.35-.91-.38-1.7-.11-2.38s.8-1.17,1.56-1.46c.67-.25,1.28-.26,1.85-.03.34.14.65.4.94.79l-.99.68c-.17-.26-.39-.43-.66-.51-.27-.09-.55-.07-.84.04-.4.15-.68.42-.82.81-.14.39-.09.9.16,1.55.26.69.57,1.13.93,1.33.36.2.74.22,1.13.07.29-.11.51-.3.65-.57.14-.27.18-.62.12-1.05Z"/><path class="cls-1" d="M72.19,87.95l-2.89-5.06,1.02-.58,2.89,5.06-1.02.58Z"/><path class="cls-1" d="M75.1,83.97l.83-.8c.29.26.58.39.85.4s.56-.1.84-.32c.3-.24.47-.48.52-.72.05-.24.01-.45-.12-.62-.09-.11-.19-.17-.31-.2-.12-.03-.29,0-.49.06-.14.05-.44.18-.9.38-.59.27-1.06.39-1.4.37-.48-.03-.86-.22-1.15-.59-.18-.23-.29-.5-.32-.81-.03-.31.04-.61.2-.91.16-.3.42-.59.77-.87.57-.45,1.1-.67,1.59-.65.49.02.91.24,1.25.65l-.89.77c-.23-.2-.44-.31-.65-.31-.21,0-.45.1-.71.31-.27.21-.43.43-.5.66-.04.15-.02.28.08.4.09.11.2.16.36.17.19,0,.56-.12,1.09-.37.53-.25.95-.4,1.26-.46.3-.06.6-.04.87.06.28.1.53.29.76.58.21.26.33.56.36.91.04.34-.04.68-.21,1-.18.32-.47.64-.86.95-.58.46-1.13.67-1.65.65-.52-.02-1.01-.26-1.48-.73Z"/><path class="cls-1" d="M83.63,75.56l1.02-.63c.37.55.54,1.07.51,1.58-.03.51-.25,1-.66,1.48-.5.59-1.12.9-1.84.93-.73.03-1.44-.25-2.13-.84-.74-.63-1.14-1.31-1.23-2.04-.08-.73.14-1.4.67-2.02.46-.54,1-.84,1.61-.91.36-.04.76.04,1.2.25l-.55,1.07c-.27-.14-.55-.19-.82-.14-.28.05-.51.2-.72.43-.28.33-.39.69-.33,1.1.06.41.35.83.88,1.29.56.48,1.04.72,1.45.72.41,0,.75-.16,1.03-.48.2-.24.3-.51.3-.81,0-.3-.14-.63-.4-.98Z"/><path class="cls-1" d="M85.65,71.64c-.52-.29-.91-.61-1.18-.96-.19-.26-.34-.55-.43-.86-.09-.31-.13-.62-.09-.91.04-.39.18-.79.41-1.21.42-.75.98-1.22,1.7-1.41s1.49-.06,2.32.4c.82.46,1.34,1.04,1.56,1.74s.12,1.43-.3,2.18c-.42.76-.99,1.23-1.7,1.42-.71.19-1.47.06-2.28-.39ZM86.21,70.56c.58.32,1.09.43,1.53.33.45-.1.78-.36,1.01-.77.23-.41.27-.83.12-1.26-.15-.43-.52-.8-1.11-1.13-.58-.32-1.09-.44-1.52-.34-.43.1-.76.36-1,.78-.24.42-.28.85-.13,1.27.15.42.51.79,1.1,1.12Z"/><path class="cls-1" d="M81.39,52.75c.09,0,.14.03.15.08,0,.02.02.04.04.05.02.01.04.06.06.14.02.09.03.16.03.21v.03c0,.09-.03.14-.1.15-.24.05-.62.09-1.15.13-.53.04-.84.07-.94.08-.05,0-.14-.03-.25-.09-.02-.02-.05-.06-.07-.12-.03-.05-.04-.1-.04-.15,0-.04.02-.11.07-.2,0-.02.16-.19.46-.52.07-.08.27-.26.58-.53.31-.27.53-.48.65-.61.12-.14.33-.36.64-.68.31-.32.53-.56.68-.74s.22-.3.22-.38c0-.05-.04-.07-.11-.07s-.16.02-.26.07c-.1.04-.22.11-.36.19-.32.2-.62.51-.91.92-.02.01-.02.04-.02.08-.02.05-.06.09-.13.12-.06.03-.12.05-.15.05-.04,0-.09-.01-.15-.04-.06-.03-.1-.05-.13-.08-.03-.03-.04-.08-.04-.15s.04-.19.13-.33c.09-.14.21-.29.36-.45.15-.16.33-.31.52-.45.19-.14.4-.26.64-.35.24-.09.44-.14.6-.14s.29.04.37.11c.14.13.22.28.22.44s-.08.36-.23.6c-.15.23-.36.49-.62.77-.26.28-.51.54-.74.77-.23.23-.49.48-.78.74-.28.27-.46.43-.53.5.63-.12,1.07-.18,1.32-.18Z"/><path class="cls-1" d="M87,49.89c-.03.16-.12.36-.28.61,0,.01,0,.03,0,.07s0,.09-.02.16-.07.2-.16.39c-.09.19-.21.39-.36.61-.14.22-.32.44-.51.67-.2.23-.4.43-.6.62s-.42.33-.66.45c-.23.12-.44.17-.63.17s-.34-.06-.45-.17-.17-.28-.18-.48c0-.21.05-.46.16-.75.11-.29.26-.59.44-.88s.4-.58.65-.87c.25-.29.5-.54.75-.76.25-.22.5-.39.76-.53.25-.14.46-.2.62-.2s.28.06.37.17c.09.11.14.25.14.42,0,.04-.01.15-.04.31ZM84.05,52.99c.14,0,.31-.08.52-.24.36-.27.77-.73,1.25-1.37,0-.4.1-.73.29-.98.2-.25.29-.49.28-.72,0-.08-.06-.12-.16-.12s-.28.11-.53.32c-.25.22-.5.48-.75.78-.25.3-.48.63-.69.98-.22.35-.35.65-.42.9-.01.04-.02.09-.01.14,0,.2.08.29.22.29Z"/><path class="cls-1" d="M89.48,52.75c.09,0,.14.03.15.08,0,.02.02.04.04.05.02.01.04.06.06.14.02.09.03.16.03.21v.03c0,.09-.03.14-.1.15-.24.05-.62.09-1.15.13-.53.04-.84.07-.94.08-.05,0-.14-.03-.25-.09-.02-.02-.05-.06-.07-.12-.03-.05-.04-.1-.04-.15,0-.04.02-.11.07-.2,0-.02.16-.19.46-.52.07-.08.27-.26.58-.53.31-.27.53-.48.65-.61.12-.14.33-.36.64-.68.31-.32.53-.56.68-.74s.22-.3.22-.38c0-.05-.04-.07-.11-.07s-.16.02-.26.07c-.1.04-.22.11-.36.19-.32.2-.62.51-.91.92-.02.01-.02.04-.02.08-.02.05-.06.09-.13.12-.06.03-.12.05-.15.05-.04,0-.09-.01-.15-.04-.06-.03-.1-.05-.13-.08-.03-.03-.04-.08-.04-.15s.04-.19.13-.33c.09-.14.21-.29.36-.45.15-.16.33-.31.52-.45.19-.14.4-.26.64-.35.24-.09.44-.14.6-.14s.29.04.37.11c.14.13.22.28.22.44s-.08.36-.23.6c-.15.23-.36.49-.62.77-.26.28-.51.54-.74.77-.23.23-.49.48-.78.74-.28.27-.46.43-.53.5.63-.12,1.07-.18,1.32-.18Z"/><path class="cls-1" d="M95.09,49.89c-.03.16-.12.36-.28.61,0,.01,0,.03,0,.07s0,.09-.02.16-.07.2-.16.39c-.09.19-.21.39-.36.61-.14.22-.32.44-.51.67-.2.23-.4.43-.6.62s-.42.33-.66.45c-.23.12-.44.17-.63.17s-.34-.06-.45-.17-.17-.28-.18-.48c0-.21.05-.46.16-.75.11-.29.26-.59.44-.88s.4-.58.65-.87c.25-.29.5-.54.75-.76.25-.22.5-.39.76-.53.25-.14.46-.2.62-.2s.28.06.37.17c.09.11.14.25.14.42,0,.04-.01.15-.04.31ZM92.13,52.99c.14,0,.31-.08.52-.24.36-.27.77-.73,1.25-1.37,0-.4.1-.73.29-.98.2-.25.29-.49.28-.72,0-.08-.06-.12-.16-.12s-.28.11-.53.32c-.25.22-.5.48-.75.78-.25.3-.48.63-.69.98-.22.35-.35.65-.42.9-.01.04-.02.09-.01.14,0,.2.08.29.22.29Z"/><path class="cls-1" d="M11.66,48.97c.09.09.11.2.06.34-.08.24-.27.46-.56.65-.29.19-.6.33-.93.41-.33.09-.63.13-.91.13-.07,0-.13,0-.16,0l.08-.25s.16-.02.44-.07.54-.13.77-.24.36-.25.41-.39c.06-.18-.04-.26-.31-.26-.35,0-.73.12-1.13.37-.4.24-.64.5-.73.76-.09.27.02.44.32.52.07.02.11.04.12.06.02.02.02.05,0,.1-.02.05-.05.09-.11.12-.06.03-.18.08-.36.14-1,.31-1.6.78-1.82,1.43-.05.14-.05.29,0,.44.02.09.05.17.1.24.07.1.17.16.3.2.13.03.25.05.36.05.36,0,.75-.12,1.17-.35.42-.23.67-.48.76-.75.04-.11.02-.19-.04-.25-.06-.06-.16-.09-.3-.09-.29,0-.66.11-1.11.33-.03.02-.07.04-.11.07-.04.03-.08.05-.12.07-.04.02-.07.03-.11.04-.02,0-.03,0-.04,0,0,0-.01,0-.02,0,0,0,0-.01,0-.02,0-.01,0-.03,0-.05-.01-.06-.04-.11-.07-.15.22-.14.44-.26.68-.36.55-.24,1.04-.36,1.48-.36.23,0,.39.05.5.15.1.1.12.24.07.41-.09.27-.31.54-.65.82-.34.27-.75.49-1.2.67-.29.11-.59.19-.89.23-.03,0-.05,0-.08,0-.26.05-.52.04-.78-.03-.12-.04-.23-.1-.34-.17-.11-.08-.2-.17-.27-.27-.07-.11-.1-.24-.09-.38,0-.14.03-.27.07-.4.11-.31.33-.61.68-.9s.78-.52,1.3-.7c-.16-.19-.21-.39-.14-.59.09-.28.33-.56.72-.85.39-.29.82-.52,1.3-.7.48-.18.9-.27,1.27-.27.19,0,.33.04.42.13Z"/><path class="cls-1" d="M14.38,50.38s.03.09.03.14v.02c0,.13-.03.23-.08.3-.05.07-.14.14-.26.2-.12.06-.21.09-.28.09s-.11,0-.13-.01c-.02-.01-.03-.02-.04-.04-.01-.02-.03-.03-.05-.03-.02,0-.03-.03-.03-.06s.01-.06.04-.09.04-.06.05-.1c-.16,0-.33.04-.5.11-.18.07-.32.14-.45.22-.13.08-.23.16-.31.24-.08.07-.12.13-.12.16s.06.06.17.09c.5.1.83.18.99.26.16.07.26.15.33.25.06.09.09.18.09.25,0,.16-.06.3-.18.44s-.28.25-.46.34c-.39.19-.73.29-1.02.29s-.49-.04-.6-.13c-.11-.09-.16-.19-.16-.31s.03-.23.09-.34c.06-.1.14-.15.24-.15s.14.03.14.08v.06c0,.06.02.11.07.15.05.04.09.07.13.07.29,0,.55-.04.77-.13.22-.09.34-.17.34-.26,0-.04-.04-.08-.12-.11-.08-.03-.22-.07-.41-.11-.19-.04-.33-.08-.42-.11-.09-.02-.16-.05-.21-.07s-.1-.05-.15-.09c-.11-.08-.17-.2-.17-.36s.06-.32.17-.47c.12-.16.27-.29.44-.4.02,0,.03-.02.05-.03.01,0,.02-.01.03-.02-.07.02-.13.04-.2.06-.12.05-.24.12-.36.2,0,0,0,0,0,0-.03.03-.07.05-.1.06,0,0-.02,0-.04,0s-.03,0-.04,0c-.01,0-.02-.01-.02-.03,0-.02,0-.04.03-.06s.03-.04.05-.05c0,0,0,0,0,0,.14-.13.32-.26.55-.39.1-.04.18-.07.24-.09.06-.02.1-.03.11-.03.2-.06.45-.11.78-.14.2-.01.36-.02.5-.02.27,0,.44.06.5.17Z"/><path class="cls-1" d="M17.24,49.46c.04.05.07.09.11.12.03.02.05.06.05.11s-.03.09-.09.13-.13.06-.2.07c-.56.05-.87.08-.93.09-.2.3-.47.77-.82,1.41-.35.63-.54,1.03-.56,1.19,0,.07-.01.13-.01.18,0,.09.05.14.15.14s.21-.04.33-.12c.12-.08.23-.16.34-.25.27-.24.41-.37.43-.37.06,0,.1.11.1.33,0,.12-.06.22-.16.32-.24.21-.45.37-.62.47-.17.11-.33.16-.5.16-.04,0-.07,0-.1-.01-.2-.04-.34-.11-.43-.21-.09-.11-.13-.25-.13-.43,0-.18.06-.4.16-.65.11-.25.24-.53.4-.81.26-.47.52-.91.78-1.32l-.14.02c-.28.03-.44.05-.49.05h-.03c-.07,0-.14-.01-.2-.04-.07-.03-.1-.06-.1-.1s.02-.08.05-.12c.03-.04.06-.07.07-.09.02-.05.08-.11.19-.18.11-.07.19-.1.25-.11.06,0,.11,0,.16,0,.05,0,.11,0,.17,0,.06,0,.11,0,.15,0h.33c.2-.32.34-.51.42-.6.07-.09.12-.14.13-.14.01,0,.04-.01.07-.01l.17-.02.15.04s.04.01.06.03c.02.02.02.04.02.06s-.03.07-.08.15c-.05.09-.11.18-.18.29-.07.11-.11.17-.11.17.19-.01.32-.02.4-.02s.13,0,.16.02.06.04.1.09Z"/><path class="cls-1" d="M16.06,53.49c0-.08.03-.15.08-.2.06-.06.12-.09.2-.09s.15.03.2.09.08.12.08.2-.03.15-.08.2c-.06.05-.13.08-.2.08s-.14-.03-.2-.08c-.06-.05-.08-.12-.08-.2Z"/></svg>