<?xml version="1.0" encoding="UTF-8"?><svg id="_Слой_2" xmlns="http://www.w3.org/2000/svg" width="180" height="180" viewBox="0 0 180 180"><defs><style>.cls-1{fill:#fff;}</style></defs><g id="_Слой_1-2"><rect class="cls-1" width="180" height="180"/><path d="M97.23,29.64c-1.61,0-3.22,0-4.82,0v-9.64h9.64v4.82h-4.82c0,1.61,0,3.22,0,4.82,3.21,0,6.43,0,9.64,0,0-1.61,0-3.22,0-4.82,1.61,0,3.22,0,4.82,0,0,1.61,0,3.22,0,4.82-1.61,0-3.22,0-4.82,0,0,3.21,0,6.43,0,9.64-1.61,0-3.22,0-4.82,0,0-1.61,0-3.22,0-4.82-1.61,0-3.22,0-4.82,0,0-1.61,0-3.22,0-4.82Z"/><path d="M111.7,24.82c0-1.61,0-3.22,0-4.82h9.64v14.46h-9.64c0-1.61,0-3.22,0-4.82,1.61,0,3.22,0,4.82,0v-4.82h-4.82Z"/><path d="M155.18,111.7c0-3.21,0-6.43,0-9.64h-4.82v-4.82h9.64v14.46c-1.61,0-3.22,0-4.82,0,0,3.21,0,6.43,0,9.64h4.82v9.64c-1.61,0-3.22,0-4.82,0,0-1.35.16-3.24,0-4.51-.01-.1,0-.21-.09-.27-1.58-.08-3.16-.03-4.74-.04,0-4.82,0-9.64,0-14.46,1.61,0,3.22,0,4.82,0Z"/><path d="M97.23,73.12c0,1.61,0,3.22,0,4.82-1.61,0-3.22,0-4.82,0v-4.82c1.61,0,3.22,0,4.82,0Z"/><path d="M82.77,44.11c0-6.43,0-12.86,0-19.29h4.82v9.64c3.21,0,6.43,0,9.64,0,0,1.61,0,3.22,0,4.82-1.61,0-3.22,0-4.82,0v14.55c1.61,0,3.22,0,4.82,0,0,1.61,0,3.22,0,4.82-1.61,0-3.22,0-4.82,0v9.64h-4.82v-4.82h-4.82v4.82h-4.82v-4.82h4.82v-4.82h-4.82c0-4.85.01-9.7,0-14.55-1.61,0-3.22,0-4.82,0v-4.82h4.69c.13.08.12.18.14.31.15,1.28,0,3.16,0,4.51,1.61,0,3.22,0,4.82,0,0,3.24,0,6.49,0,9.73h4.82v-9.73c-1.61,0-3.22,0-4.82,0Z"/><path d="M102.05,39.29c0,1.61,0,3.22,0,4.82h4.82c0-1.61,0-3.22,0-4.82,1.61,0,3.22,0,4.82,0,0,4.85-.01,9.7,0,14.55-1.61,0-3.22,0-4.82,0,0-1.61,0-3.22,0-4.82h-4.82c0,1.61,0,3.22,0,4.82-1.61,0-3.22,0-4.82,0,0-4.85,0-9.7,0-14.55,1.61,0,3.22,0,4.82,0Z"/><path d="M68.3,49.02h-4.82v4.82c1.61,0,3.22,0,4.82,0,0,1.61,0,3.22,0,4.82h4.82v28.93h-9.64v-4.82c-1.61,0-3.22,0-4.82,0v-4.82c-1.61,0-3.22,0-4.82,0,0-1.61,0-3.22,0-4.82-1.61,0-3.22,0-4.82,0,0-1.61,0-3.22,0-4.82-3.24,0-6.49,0-9.73,0,0,1.61,0,3.22,0,4.82h-4.82c0-1.61,0-3.22,0-4.82-3.21,0-6.43,0-9.64,0v-9.64h9.64c0,3.21,0,6.43,0,9.64,1.61,0,3.22,0,4.82,0,0-1.61,0-3.22,0-4.82,3.24,0,6.49,0,9.73,0,0-1.61,0-3.22,0-4.82h4.82v4.69c-.08.13-.18.12-.31.14-1.28.15-3.16,0-4.51,0,0,1.61,0,3.22,0,4.82,1.61,0,3.22,0,4.82,0,0,1.61,0,3.22,0,4.82h4.82v-9.64h4.69l.13-.13v-4.69h-4.82v-14.55h9.51c.13.08.12.18.14.31.15,1.3,0,3.22,0,4.6ZM68.3,73.12h-4.82v4.82h4.82v-4.82Z"/><path d="M68.3,49.02h4.82v4.69c-.08.13-.18.12-.31.14-1.28.15-3.16,0-4.51,0,0-1.61,0-3.22,0-4.82Z"/><path d="M111.7,53.84c1.61,0,3.22,0,4.82,0v-4.82h4.82v24.11h9.64v-4.82h-4.69l-.13-.13v-9.51h9.73v14.46c3.21,0,6.43,0,9.64,0,0-1.61,0-3.22,0-4.82-1.61,0-3.22,0-4.82,0v-9.64h4.82c0,3.21,0,6.43,0,9.64,1.61,0,3.22,0,4.82,0,0-1.61,0-3.22,0-4.82h9.64v9.64h-4.82v-4.82c-1.61,0-3.22,0-4.82,0,0,1.61,0,3.22,0,4.82-1.61,0-3.22,0-4.82,0,0,4.82,0,9.64,0,14.46h4.82v4.82h-4.82v4.82c-3.21,0-6.43,0-9.64,0,0-1.61,0-3.22,0-4.82,1.61,0,3.22,0,4.82,0v-14.46h-4.82v4.69l-.13.13h-4.78c0,1.61,0,3.22,0,4.82-1.61,0-3.22,0-4.82,0v-4.82h-9.64c0-1.61,0-3.22,0-4.82h-4.82v-4.82h4.82v-14.46h-4.69c-.13-.08-.12-.18-.14-.31-.15-1.28,0-3.16,0-4.51Z"/><path d="M106.88,53.84c0,4.82,0,9.64,0,14.46-1.61,0-3.22,0-4.82,0v-4.82h-4.82c0-1.61,0-3.22,0-4.82,1.61,0,3.22,0,4.82,0,0-1.61,0-3.22,0-4.82,1.61,0,3.22,0,4.82,0Z"/><path d="M102.05,68.3c0,1.61,0,3.22,0,4.82-1.61,0-3.22,0-4.82,0,0-1.61,0-3.22,0-4.82,1.61,0,3.22,0,4.82,0Z"/><path d="M49.02,87.59c-4.85,0-9.7,0-14.55,0v-4.82h-4.82v4.82h-9.64v-14.46h4.82v4.82c9.67.01,19.35-.02,29.02,0,0,1.61,0,3.22,0,4.82-1.61,0-3.22,0-4.82,0,0,1.61,0,3.22,0,4.82Z"/><path d="M58.66,82.77c0,1.61,0,3.22,0,4.82-1.61,0-3.22,0-4.82,0,0-1.61,0-3.22,0-4.82,1.61,0,3.22,0,4.82,0Z"/><path d="M87.59,87.59v-4.82h4.82v4.82c-1.61,0-3.22,0-4.82,0v4.82h4.82v4.82h14.46v-4.82h-4.82c0-1.61,0-3.22,0-4.82h4.82v-4.82h9.64c0,1.61,0,3.22,0,4.82h4.82v4.82c3.21,0,6.43,0,9.64,0,0,1.61,0,3.22,0,4.82,1.64,0,3.28,0,4.91,0,0,1.61,0,3.22,0,4.82h-4.78l-.13.13v4.69h-9.64v-4.82h4.82v-4.82h-4.82v4.82h-4.82v-4.82h-4.82c0,3.21,0,6.43,0,9.64,1.61,0,3.22,0,4.82,0v4.82h14.46v4.82h9.73v-4.69l-.13-.13h-4.69v-4.82h4.82v-4.82h4.82v4.82h4.82c0,1.61,0,3.22,0,4.82-1.61,0-3.22,0-4.82,0v14.46c1.61,0,3.22,0,4.82,0,0,1.61,0,3.22,0,4.82-1.61,0-3.22,0-4.82,0v4.78l-.13.13h-4.69c0,4.82.01,9.64,0,14.46-3.14,0-6.28,0-9.42,0l-.31-.14v-9.51h-4.82v9.64h-4.82v4.69l.13.13h4.69v4.82h-9.64c0-4.82,0-9.64,0-14.46,1.61,0,3.22,0,4.82,0v-4.82h-4.82c0,1.61,0,3.22,0,4.82-1.61,0-3.22,0-4.82,0,0,3.21,0,6.43,0,9.64h-4.82v-4.82h-4.82v-19.24l.13-.13h4.69v14.55c1.61,0,3.22,0,4.82,0,0-4.75,0-9.5,0-14.25l.14-.31h4.69v-9.64h-4.82v-4.82h-4.82v-4.82h4.82c0-1.61,0-3.22,0-4.82-1.61,0-3.22,0-4.82,0v-4.82h-4.82v19.29h4.82v4.82h-9.64v9.73h-4.82c0-1.64,0-3.28,0-4.91h-4.82v4.91h4.82c0,3.21,0,6.43,0,9.64h4.82v4.82h-4.82v4.82c3.21,0,6.43,0,9.64,0v4.82h-9.64v-4.82c-1.61,0-3.22,0-4.82,0v-4.82h-4.82v9.64h-19.29v-4.82h-4.82v-9.64c1.61,0,3.22,0,4.82,0,0,1.61,0,3.22,0,4.82h4.82v4.82h9.64v-9.64h4.82v-14.42l-.13-.13h-9.51v4.91h4.82v4.69l-.13.13h-9.51v4.69c-.08.13-.18.12-.31.14-1.28.15-3.16,0-4.51,0,0-4.85,0-9.7,0-14.55h4.82c0-1.61,0-3.22,0-4.82,6.43,0,12.86,0,19.29,0,0-1.61,0-3.22,0-4.82h9.64v-4.82c-3.21,0-6.43,0-9.64,0,0-1.61,0-3.22,0-4.82h-4.82v4.82c1.61,0,3.22,0,4.82,0,0,1.61,0,3.22,0,4.82h-9.64v-4.82h-4.82v4.82h-4.82c0-1.61,0-3.22,0-4.82-1.61,0-3.22,0-4.82,0,0-1.61,0-3.22,0-4.82-1.61,0-3.22,0-4.82,0,0-1.61,0-3.22,0-4.82,3.21,0,6.43,0,9.64,0,0,1.61,0,3.22,0,4.82h4.82v-4.82c-1.61,0-3.22,0-4.82,0,0-1.61,0-3.22,0-4.82h-4.82v-4.82h-4.82v-4.82h9.64c0,3.21,0,6.43,0,9.64h4.82v-9.64h4.82v9.64h4.82v-14.46c1.61,0,3.22,0,4.82,0ZM97.23,102.05h-9.64v4.82h4.82v4.82h4.82v-9.64ZM121.47,121.34l-.13.13v14.29l.13.13h14.29l.13-.13v-14.29l-.13-.13h-14.29Z"/><path d="M53.84,87.59c0,1.61,0,3.22,0,4.82-1.61,0-3.22,0-4.82,0,0,1.61,0,3.22,0,4.82,1.61,0,3.22,0,4.82,0,0,1.61,0,3.22,0,4.82,1.61,0,3.22,0,4.82,0,0,1.61,0,3.22,0,4.82-1.61,0-3.22,0-4.82,0,0-1.61,0-3.22,0-4.82-1.61,0-3.22,0-4.82,0,0-1.61,0-3.22,0-4.82-4.85,0-9.7,0-14.55,0v-4.82c4.85,0,9.7,0,14.55,0,0-1.61,0-3.22,0-4.82,1.61,0,3.22,0,4.82,0Z"/><path d="M130.98,87.59c1.64,0,3.28,0,4.91,0,0,1.61,0,3.22,0,4.82-1.64,0-3.28,0-4.91,0,0-1.61,0-3.22,0-4.82Z"/><path d="M97.23,77.95c1.61,0,3.22,0,4.82,0,0,3.21,0,6.43,0,9.64-1.61,0-3.22,0-4.82,0,0-3.21,0-6.43,0-9.64Z"/><path d="M29.64,102.05h-4.82v4.82h-4.82v-9.64h9.64c0,1.61,0,3.22,0,4.82h4.82v4.82h4.82v-4.69l.13-.13h4.69v4.82c3.24,0,6.49,0,9.73,0,0,1.61,0,3.22,0,4.82-1.61,0-3.22,0-4.82,0v4.82h4.82c0-1.61,0-3.22,0-4.82,1.61,0,3.22,0,4.82,0,0,1.61,0,3.22,0,4.82,1.61,0,3.22,0,4.82,0,0,1.61,0,3.22,0,4.82,1.61,0,3.22,0,4.82,0,0,1.61,0,3.22,0,4.82-3.21,0-6.43,0-9.64,0v-4.69l-.13-.13h-19.24v-4.69l.13-.13h4.69v-4.82h-9.51l-.13.13v9.51h-4.82v-4.82h-9.64v-4.82h9.64c0-3.21,0-6.43,0-9.64Z"/><path d="M155.18,130.98c.02,4.85-.01,9.7,0,14.55h4.82v4.82h-14.46c0-3.21,0-6.43,0-9.64h4.69l.14-.31c0-3.14,0-6.28,0-9.42,1.61,0,3.22,0,4.82,0Z"/><path d="M145.54,150.36c0,3.11,0,6.22,0,9.33l-.14.31h-14.29l-.13-.13v-4.69h9.6c.13-.08.12-.18.14-.31.15-1.28,0-3.16,0-4.51,1.61,0,3.22,0,4.82,0Z"/><path d="M20,20h33.71l.13.13v33.57l-.13.13H20.13l-.13-.13V20ZM24.82,24.82v24.06l.13.13h23.93l.13-.13v-23.93l-.13-.13h-24.06Z"/><path d="M160,20v33.71l-.13.13h-33.57l-.13-.13V20.13l.13-.13h33.71ZM155.18,24.82h-24.06l-.13.13v23.93l.13.13h23.93l.13-.13v-24.06Z"/><path d="M20,160v-33.71l.13-.13h33.57l.13.13v33.57l-.13.13H20ZM24.82,155.18h24.06l.13-.13v-23.93l-.13-.13h-23.93l-.13.13v24.06Z"/><path d="M73.12,24.82c0,3.21,0,6.43,0,9.64h-4.82v-4.82h-4.82v-9.64h4.82v4.82h4.82c0-1.61,0-3.22,0-4.82h4.82v4.82h-4.82Z"/><path d="M155.18,82.77c-1.61,0-3.22,0-4.82,0v-4.82h4.82c0,1.61,0,3.22,0,4.82,1.61,0,3.22,0,4.82,0v9.64h-4.82c0-3.21,0-6.43,0-9.64Z"/><rect x="155.18" y="155.18" width="4.82" height="4.82"/><polygon points="63.48 39.29 58.66 39.29 58.66 34.46 63.35 34.46 63.48 34.6 63.48 39.29"/><polygon points="130.98 126.16 130.98 130.98 126.16 130.98 126.16 126.29 126.29 126.16 130.98 126.16"/><polygon points="44.11 29.64 44.11 44.11 29.64 44.11 29.64 29.78 29.78 29.64 44.11 29.64"/><polygon points="150.36 44.11 135.89 44.11 135.89 29.64 150.22 29.64 150.36 29.78 150.36 44.11"/><polygon points="44.11 135.89 44.11 150.36 29.78 150.36 29.64 150.22 29.64 135.89 44.11 135.89"/></g></svg>