<?xml version="1.0" encoding="UTF-8"?><svg id="_Слой_2" xmlns="http://www.w3.org/2000/svg" viewBox="0 0 813 1078.22"><defs><style>.cls-1{fill:#f0c62c;}.cls-2{fill:#0f2f60;}.cls-3{fill:#ffbf38;}.cls-4{fill:#dbe1e9;}.cls-5{fill:#18345c;}.cls-6{fill:#fff;}.cls-7{fill:#ff506f;}.cls-8{fill:#123161;}.cls-9{fill:#0f2c51;}.cls-10{fill:#ffc639;}.cls-11{fill:#1b3764;}.cls-12{fill:#112e61;}</style></defs><g id="_Слой_1-2"><g id="atomic_one_s"><polygon class="cls-6" points="803.48 1066.91 8.91 1069.95 9.51 13.87 804.08 10.83 803.48 1066.91"/><path class="cls-11" d="M125.34,507.5h-10.3l.22-1.05c2.74-.15,3.89-.71,3.89-2.58v-5.95h-7.27l-4.14,5.77c-.29.41-.47.9-.47,1.27,0,.86,1.04,1.5,3.06,1.5l-.22,1.05h-8.39l.22-1.05c1.98-.19,3.42-1.76,4.83-3.67l13.32-18.42h2.02v19.88c0,1.61.72,2.21,3.46,2.21l-.22,1.05ZM119.11,487.92l-5.98,8.28h5.98v-8.28Z"/><path class="cls-11" d="M142.59,483.01l-4.61,21.76c-.11.49-.22.9-.22,1.12,0,.19.07.26.22.26.22,0,1.3-1.01,2.41-2.32l.72.71c-1.55,1.8-3.24,3.37-4.57,3.37-.97,0-1.3-.52-1.3-1.35,0-.34.07-.71.14-1.09l4.39-20.74c.04-.15.07-.37.07-.56,0-.11-.04-.22-.14-.22-.32,0-1.26.45-2.16,1.01l-.47-.9c.4-.23,4.47-2.81,4.97-2.81.32,0,.61.34.61,1.01,0,.22,0,.49-.07.75Z"/><path class="cls-11" d="M151.59,505.07c-1.84,1.83-4.47,2.85-5.44,2.85-1.73,0-3.06-2.85-3.1-5.39,0-2.21.9-4.87,3.02-7,1.15-1.16,3.75-2.77,5.37-2.77,1.44,0,3.06,2.77,3.06,5.5,0,2.36-1.19,5.09-2.92,6.81ZM149.86,494.4c-1.98,0-4.29,3.89-4.29,7.64,0,2.62.9,4.19,2.27,4.19,1.91,0,4.1-4.01,4.1-7.6,0-2.55-1.08-4.23-2.09-4.23Z"/><path class="cls-11" d="M165.49,507.92c-.65,0-.94-.34-.94-1.2,0-.45.11-1.05.29-1.8l2.27-8.91c.11-.34.18-.71.14-.97,0-.3-.11-.49-.36-.49-.79,0-3.93,3.44-6.63,7.3l-1.26,6.07h-2.45l2.52-11.98c0-.08.04-.15.04-.23s-.07-.11-.11-.11c-.32,0-1.76,1.72-1.98,1.98l-.68-.67c1.73-2.17,3.49-4.16,4.72-4.16.68,0,.9.37.9.79,0,.15,0,.37-.04.52l-1.15,5.5c2.88-3.89,5.91-6.81,7.45-6.81,1.01,0,1.33.94,1.33,2.13,0,.71-.11,1.5-.29,2.21l-2.05,8.01c-.04.15-.07.26-.07.37,0,.15.04.22.14.22.25,0,1.58-1.46,2.56-2.62l.72.64c-1.94,2.55-3.85,4.19-5.08,4.19Z"/><path class="cls-11" d="M185.37,494.85c-.54,0-1.26,0-2.23-.15.61.86.9,1.95.9,3.03,0,3.33-2.3,5.5-4.07,6.74-1.87,1.31-3.64,1.61-3.64,2.43,0,.75,2.7,2.4,3.21,2.77,1.58,1.09,3.35,2.36,3.35,3.63,0,2.58-3.85,4.04-7.71,4.04-4.57,0-6.63-1.57-6.63-3.18s2.23-3.07,6.19-5.28c-.18-.34-.25-.67-.25-.97,0-.71.43-1.46,1.22-2.1-1.66-1.12-2.41-2.85-2.41-4.91,0-1.42.61-3.48,2.23-5.21,2.09-2.25,3.71-2.96,5.73-2.96,2.12,0,3.35.11,4.5.34l-.4,1.76ZM179.1,512.48c-.94-.71-2.27-1.61-3.75-2.81-2.56,1.46-4.47,2.96-4.47,4.04,0,1.5,1.73,2.58,4.39,2.58,2.88,0,5.29-1.05,5.29-2.17,0-.41-.47-.9-1.48-1.65ZM179.68,494.14c-2.09,0-3.96,4.76-3.96,6.85,0,2.28,1.04,3.41,2.12,3.41,1.69,0,3.78-3.67,3.78-7.11,0-2.02-.83-3.15-1.94-3.15Z"/><path class="cls-11" d="M201.35,499.08c-1.55.82-3.49,1.42-5.15,1.98-.14.67-.22,1.27-.22,1.83,0,2.32,1.3,3.26,2.77,3.26.72,0,1.94-.45,3.75-1.69l.54.9c-1.55.97-3.82,2.55-5.73,2.55-2.77,0-3.78-2.7-3.78-4.76,0-4.76,3.64-10.41,8.1-10.41,1.66,0,2.7,1.01,2.7,2.51,0,1.76-1.37,2.96-2.99,3.82ZM200.99,493.87c-1.19,0-3.6,1.61-4.57,6.07,3.67-1.16,5.65-2.62,5.65-4.72,0-1.01-.54-1.35-1.08-1.35Z"/><path class="cls-11" d="M213.13,496.2c-1.19,0-1.15-2.06-2.38-2.06-.47,0-1.76.94-1.76,1.98,0,1.31,1.08,2.32,2.09,3.48.9,1.01,1.73,2.13,1.73,3.63,0,2.47-2.2,4.68-5.69,4.68-1.76,0-2.95-.9-2.95-1.8s.72-1.2,1.3-1.2c1.04,0,2.38,1.42,3.71,1.42,1.01,0,1.87-.71,1.87-1.57,0-1.24-.97-2.36-1.94-3.52-1.04-1.2-2.09-2.43-2.09-3.82,0-2.02,2.67-4.68,5.08-4.68,1.3,0,2.16.75,2.16,2.02,0,.79-.4,1.42-1.12,1.42Z"/><path class="cls-11" d="M223.64,494.74h-2.77l-2.2,10.41c-.04.19-.11.45-.11.64s.11.26.25.26c.58,0,3.02-2.25,3.39-2.58l.61.79c-2.7,2.55-4.36,3.67-5.55,3.67-.86,0-1.19-.71-1.19-1.69,0-.3.07-.75.14-1.12l2.2-10.37h-1.69l.14-.79c1.98-.94,3.24-2.58,4.97-5.2h1.01c-.4.9-.79,1.76-1.08,2.55-.25.67-.4,1.31-.54,1.83h2.77l-.36,1.61Z"/><path class="cls-11" d="M233.18,507.92c-.83,0-.9-1.09-.9-1.72,0-.86.18-1.76.32-2.62-1.08,1.09-4.1,4.34-5.58,4.34s-2.09-2.51-2.09-3.71c0-5.95,5.87-11.46,11.13-11.46h1.3l-2.38,11.23c-.07.41-.22.86-.22,1.16,0,.15.04.26.18.26.4,0,1.48-1.16,1.8-1.5l.68.75c-.76.75-3.13,3.26-4.25,3.26ZM230.01,496.57c-1.73,1.8-2.48,4.91-2.48,7.38,0,.49.22,1.72.86,1.72.68,0,4.03-3.26,4.57-3.78l1.51-7.11c-1.69.08-3.24.52-4.47,1.8Z"/><path class="cls-11" d="M243.7,507.92c-2.12,0-3.35-1.31-3.35-3.48,0-.41,0-.86.11-1.35l4-18.95c.04-.11.04-.22.04-.3s-.04-.15-.11-.15c-.11,0-.25.04-.5.19l-1.3.67-.43-.82,3.82-2.25c.25-.15.5-.22.68-.22.43,0,.65.3.65.86,0,.19-.04.34-.07.56l-3.06,14.38c1.94-1.95,4.68-4.31,5.55-4.31,1.12,0,2.02,2.77,2.02,4.94,0,6.14-4.68,10.22-8.03,10.22ZM248.2,495.11c-.58,0-2.56,1.8-4.43,3.82l-.47,2.32c-.29,1.42-.5,2.43-.5,3.33,0,1.61.58,2.13,1.55,2.13,2.63,0,4.9-4.83,4.9-8.91,0-2.21-.65-2.7-1.04-2.7Z"/><path class="cls-11" d="M261.12,483.01l-4.61,21.76c-.11.49-.22.9-.22,1.12,0,.19.07.26.22.26.22,0,1.3-1.01,2.41-2.32l.72.71c-1.55,1.8-3.24,3.37-4.57,3.37-.97,0-1.3-.52-1.3-1.35,0-.34.07-.71.14-1.09l4.39-20.74c.04-.15.07-.37.07-.56,0-.11-.04-.22-.14-.22-.32,0-1.26.45-2.16,1.01l-.47-.9c.4-.23,4.47-2.81,4.97-2.81.32,0,.61.34.61,1.01,0,.22,0,.49-.07.75Z"/><path class="cls-11" d="M263.61,507.92c-.79,0-1.08-.6-1.08-1.39,0-.26.04-.56.11-.86l1.98-9.47c.04-.15.14-.64.14-.75s-.04-.15-.07-.15c-.25,0-.97.9-1.8,1.8l-.65-.64c1.19-1.54,3.24-3.71,4.36-3.71.68,0,.94.52.94,1.09,0,.11,0,.26-.04.37l-2.3,10.97c-.04.11-.07.26-.07.37,0,.08.04.15.11.15.11,0,.94-.75,2.05-2.25l.72.64c-1.12,1.69-3.31,3.82-4.39,3.82ZM267.46,489.27c-.65,0-1.12-.56-1.12-1.46,0-1.01.47-2.85,1.76-2.85.58,0,1.08.52,1.08,1.46,0,1.12-.58,2.85-1.73,2.85Z"/><path class="cls-11" d="M277.94,496.2c-1.19,0-1.15-2.06-2.38-2.06-.47,0-1.76.94-1.76,1.98,0,1.31,1.08,2.32,2.09,3.48.9,1.01,1.73,2.13,1.73,3.63,0,2.47-2.2,4.68-5.69,4.68-1.76,0-2.95-.9-2.95-1.8s.72-1.2,1.3-1.2c1.04,0,2.38,1.42,3.71,1.42,1.01,0,1.87-.71,1.87-1.57,0-1.24-.97-2.36-1.94-3.52-1.04-1.2-2.09-2.43-2.09-3.82,0-2.02,2.67-4.68,5.08-4.68,1.3,0,2.16.75,2.16,2.02,0,.79-.4,1.42-1.12,1.42Z"/><path class="cls-11" d="M289.86,507.92c-.68,0-1.04-.45-1.04-1.35,0-.49.11-1.12.29-1.91l2.05-7.98c.14-.6.29-1.09.29-1.42,0-.3-.07-.52-.36-.52-1.01,0-4.93,4.87-6.52,7.08l-1.3,6.1h-2.45l4.97-23.59c.04-.15.07-.26.07-.34,0-.15-.07-.26-.25-.26-.22,0-1.37.64-1.58.75l-.47-.86c1.91-1.2,4-2.36,4.47-2.36.43,0,.68.26.68.75,0,.15-.04.34-.07.52l-3.56,16.81c2.12-2.7,5.51-6.59,7.38-6.59.9,0,1.37.79,1.37,1.98,0,.52-.14,1.54-.43,2.66l-1.98,7.68c-.04.15-.07.3-.07.41,0,.15.04.22.11.22.25,0,1.37-1.09,2.52-2.55l.76.71c-1.62,2.13-3.78,4.04-4.86,4.04Z"/><path class="cls-11" d="M304.33,499.08c-1.55.82-3.49,1.42-5.15,1.98-.14.67-.22,1.27-.22,1.83,0,2.32,1.3,3.26,2.77,3.26.72,0,1.94-.45,3.75-1.69l.54.9c-1.55.97-3.82,2.55-5.73,2.55-2.77,0-3.78-2.7-3.78-4.76,0-4.76,3.64-10.41,8.1-10.41,1.66,0,2.7,1.01,2.7,2.51,0,1.76-1.37,2.96-2.99,3.82ZM303.97,493.87c-1.19,0-3.6,1.61-4.57,6.07,3.67-1.16,5.65-2.62,5.65-4.72,0-1.01-.54-1.35-1.08-1.35Z"/><path class="cls-11" d="M322.84,482.42l-4.72,22.28c-.04.11-.07.3-.07.45,0,.19.04.26.14.26.36,0,1.3-.9,1.84-1.5l.68.75c-1.19,1.42-3.39,3.26-4.25,3.26-.76,0-1.01-.75-1.01-1.69,0-.64.25-1.83.43-2.58l.14-.64c-1.69,2.17-4.14,4.91-5.76,4.91-1.4,0-1.98-2.06-1.98-4.19,0-5.77,5.15-10.97,7.85-10.97.58,0,1.26.3,1.87.82l1.98-9.29c.04-.11.11-.52-.11-.52-.29,0-1.94.97-2.27,1.16l-.5-.86c2.12-1.42,4.54-2.81,5.08-2.81s.68.45.68.9c0,.07,0,.19-.04.26ZM315.68,494.25c-2.59,0-4.93,6.33-4.93,9.21,0,1.83.65,2.36,1.08,2.36.58,0,2.3-1.91,4.72-5.17l.97-4.72c-.58-1.2-1.04-1.69-1.84-1.69Z"/><path class="cls-11" d="M342.5,484.51c-1.12,0-1.98-1.57-2.99-1.57-1.84,0-2.77,3.03-3.92,10.19h2.84l-.36,1.61h-2.77l-1.91,10.71c-.94,5.32-3.17,11.91-8.35,11.91-1.55,0-2.81-.97-2.81-1.95,0-.86.58-1.35,1.22-1.35,1.3,0,2.05,1.54,3.28,1.54,1.62,0,2.85-2.21,3.49-5.95l2.63-14.9h-2.16l.22-1.05,2.2-.52c.97-5.02,2.59-11.91,8.07-11.91,1.26,0,2.66.82,2.66,1.83,0,.82-.58,1.42-1.33,1.42Z"/><path class="cls-11" d="M346.14,507.92c-.83,0-.9-1.09-.9-1.72,0-.86.18-1.76.32-2.62-1.08,1.09-4.1,4.34-5.58,4.34s-2.09-2.51-2.09-3.71c0-5.95,5.87-11.46,11.13-11.46h1.3l-2.38,11.23c-.07.41-.22.86-.22,1.16,0,.15.04.26.18.26.4,0,1.48-1.16,1.8-1.5l.68.75c-.76.75-3.13,3.26-4.25,3.26ZM342.97,496.57c-1.73,1.8-2.48,4.91-2.48,7.38,0,.49.22,1.72.86,1.72.68,0,4.03-3.26,4.57-3.78l1.51-7.11c-1.69.08-3.24.52-4.47,1.8Z"/><path class="cls-11" d="M360.94,495.56c-.97,0-1.58-.97-2.56-.97-1.73,0-3.78,6.44-3.78,8.91,0,1.5.68,2.62,2.16,2.62,1.15,0,1.87-.67,3.49-2.28l.68.71c-1.87,2.17-3.49,3.37-5.33,3.37-1.62,0-3.49-1.01-3.49-4.19,0-3.67,3.53-10.97,7.89-10.97.83,0,2.09.26,2.09,1.65,0,.64-.32,1.16-1.15,1.16Z"/><path class="cls-11" d="M370.66,494.74h-2.77l-2.2,10.41c-.04.19-.11.45-.11.64s.11.26.25.26c.58,0,3.02-2.25,3.39-2.58l.61.79c-2.7,2.55-4.36,3.67-5.55,3.67-.86,0-1.19-.71-1.19-1.69,0-.3.07-.75.14-1.12l2.2-10.37h-1.69l.14-.79c1.98-.94,3.24-2.58,4.97-5.2h1.01c-.4.9-.79,1.76-1.08,2.55-.25.67-.4,1.31-.54,1.83h2.77l-.36,1.61Z"/><path class="cls-11" d="M387.44,494.74h-2.77l-2.2,10.41c-.04.19-.11.45-.11.64s.11.26.25.26c.58,0,3.02-2.25,3.39-2.58l.61.79c-2.7,2.55-4.36,3.67-5.55,3.67-.86,0-1.19-.71-1.19-1.69,0-.3.07-.75.14-1.12l2.2-10.37h-1.69l.14-.79c1.98-.94,3.24-2.58,4.97-5.2h1.01c-.4.9-.79,1.76-1.08,2.55-.25.67-.4,1.31-.54,1.83h2.77l-.36,1.61Z"/><path class="cls-11" d="M398.42,507.92c-.68,0-1.04-.45-1.04-1.35,0-.49.11-1.12.29-1.91l2.05-7.98c.14-.6.29-1.09.29-1.42,0-.3-.07-.52-.36-.52-1.01,0-4.93,4.87-6.52,7.08l-1.3,6.1h-2.45l4.97-23.59c.04-.15.07-.26.07-.34,0-.15-.07-.26-.25-.26-.22,0-1.37.64-1.58.75l-.47-.86c1.91-1.2,4-2.36,4.47-2.36.43,0,.68.26.68.75,0,.15-.04.34-.07.52l-3.56,16.81c2.12-2.7,5.51-6.59,7.38-6.59.9,0,1.37.79,1.37,1.98,0,.52-.14,1.54-.43,2.66l-1.98,7.68c-.04.15-.07.3-.07.41,0,.15.04.22.11.22.25,0,1.37-1.09,2.52-2.55l.76.71c-1.62,2.13-3.78,4.04-4.86,4.04Z"/><path class="cls-11" d="M413.08,507.92c-.83,0-.9-1.09-.9-1.72,0-.86.18-1.76.32-2.62-1.08,1.09-4.1,4.34-5.58,4.34s-2.09-2.51-2.09-3.71c0-5.95,5.87-11.46,11.13-11.46h1.3l-2.38,11.23c-.07.41-.22.86-.22,1.16,0,.15.04.26.18.26.4,0,1.48-1.16,1.8-1.5l.68.75c-.76.75-3.13,3.26-4.25,3.26ZM409.91,496.57c-1.73,1.8-2.49,4.91-2.49,7.38,0,.49.22,1.72.86,1.72.68,0,4.03-3.26,4.57-3.78l1.51-7.11c-1.69.08-3.24.52-4.46,1.8Z"/><path class="cls-11" d="M427.3,494.74h-2.77l-2.2,10.41c-.04.19-.11.45-.11.64s.11.26.25.26c.58,0,3.03-2.25,3.38-2.58l.61.79c-2.7,2.55-4.36,3.67-5.54,3.67-.87,0-1.19-.71-1.19-1.69,0-.3.07-.75.14-1.12l2.2-10.37h-1.69l.14-.79c1.98-.94,3.24-2.58,4.97-5.2h1.01c-.4.9-.79,1.76-1.08,2.55-.25.67-.4,1.31-.54,1.83h2.77l-.36,1.61Z"/><path class="cls-11" d="M444.04,507.92c-.83,0-.9-1.09-.9-1.72,0-.86.18-1.76.32-2.62-1.08,1.09-4.11,4.34-5.58,4.34s-2.09-2.51-2.09-3.71c0-5.95,5.87-11.46,11.13-11.46h1.3l-2.38,11.23c-.07.41-.22.86-.22,1.16,0,.15.04.26.18.26.4,0,1.48-1.16,1.8-1.5l.68.75c-.76.75-3.13,3.26-4.25,3.26ZM440.87,496.57c-1.73,1.8-2.48,4.91-2.48,7.38,0,.49.22,1.72.86,1.72.68,0,4.03-3.26,4.57-3.78l1.51-7.11c-1.69.08-3.24.52-4.47,1.8Z"/><path class="cls-11" d="M466.94,495.6h-.83c-1.51,0-2.74,2.96-3.46,4.76-1.01,2.47-1.84,5.47-2.38,7.56h-2.45l2.48-11.83c.04-.15.07-.41.07-.56,0-.07.04-.11-.07-.11-.14,0-1.87,1.8-2.09,1.98l-.68-.67c1.51-1.72,3.64-3.97,4.79-3.97.58,0,.61.49.61,1.01,0,.3-.07.97-.25,1.83l-.97,4.57c2.27-5.47,3.39-7.41,5.26-7.41.83,0,1.22.45,1.22,1.24s-.36,1.61-1.26,1.61Z"/><path class="cls-11" d="M476.45,499.08c-1.55.82-3.49,1.42-5.15,1.98-.14.67-.22,1.27-.22,1.83,0,2.32,1.3,3.26,2.77,3.26.72,0,1.94-.45,3.75-1.69l.54.9c-1.55.97-3.82,2.55-5.73,2.55-2.77,0-3.78-2.7-3.78-4.76,0-4.76,3.64-10.41,8.1-10.41,1.66,0,2.7,1.01,2.7,2.51,0,1.76-1.37,2.96-2.99,3.82ZM476.09,493.87c-1.19,0-3.6,1.61-4.57,6.07,3.67-1.16,5.65-2.62,5.65-4.72,0-1.01-.54-1.35-1.08-1.35Z"/><path class="cls-11" d="M488.48,507.92c-.83,0-.9-1.09-.9-1.72,0-.86.18-1.76.32-2.62-1.08,1.09-4.11,4.34-5.58,4.34s-2.09-2.51-2.09-3.71c0-5.95,5.87-11.46,11.13-11.46h1.3l-2.38,11.23c-.07.41-.22.86-.22,1.16,0,.15.04.26.18.26.4,0,1.48-1.16,1.8-1.5l.68.75c-.76.75-3.13,3.26-4.25,3.26ZM485.31,496.57c-1.73,1.8-2.48,4.91-2.48,7.38,0,.49.22,1.72.86,1.72.68,0,4.03-3.26,4.57-3.78l1.51-7.11c-1.69.08-3.24.52-4.47,1.8Z"/><path class="cls-11" d="M509.14,482.42l-4.72,22.28c-.04.11-.07.3-.07.45,0,.19.04.26.14.26.36,0,1.3-.9,1.84-1.5l.68.75c-1.19,1.42-3.38,3.26-4.25,3.26-.76,0-1.01-.75-1.01-1.69,0-.64.25-1.83.43-2.58l.14-.64c-1.69,2.17-4.14,4.91-5.76,4.91-1.41,0-1.98-2.06-1.98-4.19,0-5.77,5.15-10.97,7.85-10.97.58,0,1.26.3,1.87.82l1.98-9.29c.04-.11.11-.52-.11-.52-.29,0-1.94.97-2.27,1.16l-.5-.86c2.12-1.42,4.54-2.81,5.08-2.81s.68.45.68.9c0,.07,0,.19-.04.26ZM501.98,494.25c-2.59,0-4.93,6.33-4.93,9.21,0,1.83.65,2.36,1.08,2.36.58,0,2.3-1.91,4.72-5.17l.97-4.72c-.58-1.2-1.04-1.69-1.84-1.69Z"/><path class="cls-11" d="M516.92,499.08c-1.55.82-3.49,1.42-5.15,1.98-.14.67-.22,1.27-.22,1.83,0,2.32,1.3,3.26,2.77,3.26.72,0,1.94-.45,3.75-1.69l.54.9c-1.55.97-3.82,2.55-5.73,2.55-2.77,0-3.78-2.7-3.78-4.76,0-4.76,3.64-10.41,8.1-10.41,1.66,0,2.7,1.01,2.7,2.51,0,1.76-1.37,2.96-2.99,3.82ZM516.56,493.87c-1.19,0-3.6,1.61-4.57,6.07,3.67-1.16,5.65-2.62,5.65-4.72,0-1.01-.54-1.35-1.08-1.35Z"/><path class="cls-11" d="M530.46,495.6h-.83c-1.51,0-2.74,2.96-3.46,4.76-1.01,2.47-1.84,5.47-2.38,7.56h-2.45l2.48-11.83c.04-.15.07-.41.07-.56,0-.07.04-.11-.07-.11-.14,0-1.87,1.8-2.09,1.98l-.68-.67c1.51-1.72,3.64-3.97,4.79-3.97.58,0,.61.49.61,1.01,0,.3-.07.97-.25,1.83l-.97,4.57c2.27-5.47,3.39-7.41,5.26-7.41.83,0,1.22.45,1.22,1.24s-.36,1.61-1.26,1.61Z"/><path class="cls-11" d="M548.68,507.92c-.65,0-.94-.34-.94-1.2,0-.45.11-1.05.29-1.8l2.27-8.91c.11-.34.18-.71.14-.97,0-.3-.11-.49-.36-.49-.79,0-3.92,3.44-6.63,7.3l-1.26,6.07h-2.45l2.52-11.98c0-.08.04-.15.04-.23s-.07-.11-.11-.11c-.32,0-1.76,1.72-1.98,1.98l-.68-.67c1.73-2.17,3.49-4.16,4.72-4.16.68,0,.9.37.9.79,0,.15,0,.37-.04.52l-1.15,5.5c2.88-3.89,5.91-6.81,7.45-6.81,1.01,0,1.33.94,1.33,2.13,0,.71-.11,1.5-.29,2.21l-2.05,8.01c-.04.15-.07.26-.07.37,0,.15.04.22.14.22.25,0,1.58-1.46,2.56-2.62l.72.64c-1.94,2.55-3.85,4.19-5.08,4.19Z"/><path class="cls-11" d="M564.16,505.07c-1.84,1.83-4.46,2.85-5.44,2.85-1.73,0-3.06-2.85-3.1-5.39,0-2.21.9-4.87,3.03-7,1.15-1.16,3.74-2.77,5.37-2.77,1.44,0,3.06,2.77,3.06,5.5,0,2.36-1.19,5.09-2.92,6.81ZM562.43,494.4c-1.98,0-4.29,3.89-4.29,7.64,0,2.62.9,4.19,2.27,4.19,1.91,0,4.11-4.01,4.11-7.6,0-2.55-1.08-4.23-2.09-4.23Z"/><path class="cls-11" d="M578.24,495.6h-.83c-1.51,0-2.74,2.96-3.46,4.76-1.01,2.47-1.84,5.47-2.38,7.56h-2.45l2.48-11.83c.04-.15.07-.41.07-.56,0-.07.04-.11-.07-.11-.14,0-1.87,1.8-2.09,1.98l-.68-.67c1.51-1.72,3.64-3.97,4.79-3.97.58,0,.61.49.61,1.01,0,.3-.07.97-.25,1.83l-.97,4.57c2.27-5.47,3.39-7.41,5.26-7.41.83,0,1.22.45,1.22,1.24s-.36,1.61-1.26,1.61Z"/><path class="cls-11" d="M596.79,507.92c-.61,0-.94-.41-.94-1.24,0-.26.04-.56.11-.9l2.05-10.45c.04-.15.07-.3.07-.41s-.04-.19-.11-.19c-.72,0-5.4,5.13-6.63,8.87l-.94,4.31h-2.45l2.63-12.43c.04-.15.04-.26.04-.37,0-.19,0-.26-.14-.26-1.19,0-5.8,5.69-6.81,8.8l-.9,4.27h-2.45l2.45-11.5c.04-.15.11-.56.11-.67s0-.15-.11-.15c-.25,0-1.62,1.57-1.98,1.98l-.68-.67c1.66-2.06,3.35-4.16,4.9-4.16.5,0,.68.3.68.9,0,.56-.32,2.13-.72,3.93l-.5,2.32c2.7-4.04,5.94-7.15,7.53-7.15.9,0,1.19.75,1.19,1.72,0,.3-.07.82-.14,1.12l-.9,4.16c2.05-3.07,5.37-7,7.24-7,.83,0,1.12.52,1.12,1.5,0,.45-.07.97-.18,1.61l-1.8,9.14c-.04.15-.04.3-.04.41s0,.19.11.19c.22,0,1.58-1.54,2.41-2.58l.76.64c-1.37,1.83-3.42,4.27-4.97,4.27Z"/><path class="cls-11" d="M611.19,507.92c-.83,0-.9-1.09-.9-1.72,0-.86.18-1.76.32-2.62-1.08,1.09-4.11,4.34-5.58,4.34s-2.09-2.51-2.09-3.71c0-5.95,5.87-11.46,11.13-11.46h1.3l-2.38,11.23c-.07.41-.22.86-.22,1.16,0,.15.04.26.18.26.4,0,1.48-1.16,1.8-1.5l.68.75c-.76.75-3.13,3.26-4.25,3.26ZM608.02,496.57c-1.73,1.8-2.48,4.91-2.48,7.38,0,.49.22,1.72.86,1.72.68,0,4.03-3.26,4.57-3.78l1.51-7.11c-1.69.08-3.24.52-4.47,1.8Z"/><path class="cls-11" d="M625.12,483.01l-4.61,21.76c-.11.49-.22.9-.22,1.12,0,.19.07.26.22.26.22,0,1.3-1.01,2.41-2.32l.72.71c-1.55,1.8-3.24,3.37-4.57,3.37-.97,0-1.3-.52-1.3-1.35,0-.34.07-.71.14-1.09l4.39-20.74c.04-.15.07-.37.07-.56,0-.11-.04-.22-.14-.22-.32,0-1.26.45-2.16,1.01l-.47-.9c.4-.23,4.47-2.81,4.97-2.81.32,0,.61.34.61,1.01,0,.22,0,.49-.07.75Z"/><path class="cls-11" d="M640.71,507.92c-.83,0-.9-1.09-.9-1.72,0-.86.18-1.76.32-2.62-1.08,1.09-4.11,4.34-5.58,4.34s-2.09-2.51-2.09-3.71c0-5.95,5.87-11.46,11.13-11.46h1.3l-2.38,11.23c-.07.41-.22.86-.22,1.16,0,.15.04.26.18.26.4,0,1.48-1.16,1.8-1.5l.68.75c-.76.75-3.13,3.26-4.25,3.26ZM637.54,496.57c-1.73,1.8-2.48,4.91-2.48,7.38,0,.49.22,1.72.86,1.72.68,0,4.03-3.26,4.57-3.78l1.51-7.11c-1.69.08-3.24.52-4.47,1.8Z"/><path class="cls-11" d="M654.65,496.2c-1.19,0-1.15-2.06-2.38-2.06-.47,0-1.76.94-1.76,1.98,0,1.31,1.08,2.32,2.09,3.48.9,1.01,1.73,2.13,1.73,3.63,0,2.47-2.2,4.68-5.69,4.68-1.76,0-2.95-.9-2.95-1.8s.72-1.2,1.3-1.2c1.04,0,2.38,1.42,3.71,1.42,1.01,0,1.87-.71,1.87-1.57,0-1.24-.97-2.36-1.95-3.52-1.04-1.2-2.09-2.43-2.09-3.82,0-2.02,2.66-4.68,5.08-4.68,1.3,0,2.16.75,2.16,2.02,0,.79-.4,1.42-1.12,1.42Z"/><path class="cls-11" d="M675.21,507.92c-.83,0-1.19-.75-1.19-1.95,0-.45.07-.94.14-1.46l.54-3.37c-2.02,2.81-5,6.78-7.13,6.78-.83,0-1.19-.64-1.19-2.02,0-.79.07-1.87.29-3.18l.97-6.4c.04-.15.07-.34.07-.45s-.04-.19-.18-.19c-.36,0-1.87,1.8-2.09,2.02l-.68-.64c1.91-2.4,3.85-4.31,4.72-4.31.65,0,.9.64.9,1.35,0,.19,0,.37-.04.56l-1.37,9.06c-.14.9-.25,1.54-.25,1.91,0,.34.07.49.32.49.79,0,3.85-4.19,5.94-7.11l.94-6.25h2.45l-1.87,12.47c-.04.26-.07.49-.07.64,0,.11.04.19.14.19.22,0,1.22-.67,2.2-1.65,3.1-3.15,4.39-7.08,4.39-8.58,0-.71-.36-.56-.65-.94-.11-.15-.18-.3-.18-.56,0-.67.61-1.57,1.66-1.57.94,0,1.76.71,1.76,2.28,0,5.02-8.75,12.88-10.55,12.88Z"/><path class="cls-11" d="M695.05,499.08c-1.55.82-3.49,1.42-5.15,1.98-.14.67-.22,1.27-.22,1.83,0,2.32,1.3,3.26,2.77,3.26.72,0,1.94-.45,3.75-1.69l.54.9c-1.55.97-3.82,2.55-5.73,2.55-2.77,0-3.78-2.7-3.78-4.76,0-4.76,3.64-10.41,8.1-10.41,1.66,0,2.7,1.01,2.7,2.51,0,1.76-1.37,2.96-2.99,3.82ZM694.69,493.87c-1.19,0-3.6,1.61-4.57,6.07,3.67-1.16,5.65-2.62,5.65-4.72,0-1.01-.54-1.35-1.08-1.35Z"/><path class="cls-11" d="M706.82,483.01l-4.61,21.76c-.11.49-.22.9-.22,1.12,0,.19.07.26.22.26.22,0,1.3-1.01,2.41-2.32l.72.71c-1.55,1.8-3.24,3.37-4.57,3.37-.97,0-1.3-.52-1.3-1.35,0-.34.07-.71.14-1.09l4.39-20.74c.04-.15.07-.37.07-.56,0-.11-.04-.22-.14-.22-.32,0-1.26.45-2.16,1.01l-.47-.9c.4-.23,4.47-2.81,4.97-2.81.32,0,.61.34.61,1.01,0,.22,0,.49-.07.75Z"/><path class="cls-11" d="M714.96,483.01l-4.61,21.76c-.11.49-.22.9-.22,1.12,0,.19.07.26.22.26.22,0,1.3-1.01,2.41-2.32l.72.71c-1.55,1.8-3.24,3.37-4.57,3.37-.97,0-1.3-.52-1.3-1.35,0-.34.07-.71.14-1.09l4.39-20.74c.04-.15.07-.37.07-.56,0-.11-.04-.22-.14-.22-.32,0-1.26.45-2.16,1.01l-.47-.9c.4-.23,4.46-2.81,4.97-2.81.32,0,.61.34.61,1.01,0,.22,0,.49-.07.75Z"/><path class="cls-11" d="M299.13,527.42l-4.72,22.28c-.04.11-.07.3-.07.45,0,.19.04.26.14.26.36,0,1.3-.9,1.84-1.5l.68.75c-1.19,1.42-3.39,3.26-4.25,3.26-.76,0-1.01-.75-1.01-1.68,0-.64.25-1.83.43-2.58l.14-.64c-1.69,2.17-4.14,4.91-5.76,4.91-1.4,0-1.98-2.06-1.98-4.19,0-5.77,5.15-10.97,7.85-10.97.58,0,1.26.3,1.87.82l1.98-9.29c.04-.11.11-.52-.11-.52-.29,0-1.94.97-2.27,1.16l-.5-.86c2.12-1.42,4.54-2.81,5.08-2.81s.68.45.68.9c0,.07,0,.19-.04.26ZM291.97,539.25c-2.59,0-4.93,6.33-4.93,9.21,0,1.83.65,2.36,1.08,2.36.58,0,2.3-1.91,4.72-5.17l.97-4.72c-.58-1.2-1.04-1.68-1.84-1.68Z"/><path class="cls-11" d="M301.18,552.92c-.79,0-1.08-.6-1.08-1.39,0-.26.04-.56.11-.86l1.98-9.47c.04-.15.14-.64.14-.75s-.04-.15-.07-.15c-.25,0-.97.9-1.8,1.8l-.65-.64c1.19-1.54,3.24-3.71,4.36-3.71.68,0,.94.52.94,1.09,0,.11,0,.26-.04.37l-2.3,10.97c-.04.11-.07.26-.07.37,0,.08.04.15.11.15.11,0,.94-.75,2.05-2.25l.72.64c-1.12,1.68-3.31,3.82-4.39,3.82ZM305.04,534.27c-.65,0-1.12-.56-1.12-1.46,0-1.01.47-2.85,1.76-2.85.58,0,1.08.52,1.08,1.46,0,1.12-.58,2.85-1.73,2.85Z"/><path class="cls-11" d="M315.51,541.2c-1.19,0-1.15-2.06-2.38-2.06-.47,0-1.76.94-1.76,1.98,0,1.31,1.08,2.32,2.09,3.48.9,1.01,1.73,2.13,1.73,3.63,0,2.47-2.2,4.68-5.69,4.68-1.76,0-2.95-.9-2.95-1.8s.72-1.2,1.3-1.2c1.04,0,2.38,1.42,3.71,1.42,1.01,0,1.87-.71,1.87-1.57,0-1.24-.97-2.36-1.94-3.52-1.04-1.2-2.09-2.43-2.09-3.82,0-2.02,2.67-4.68,5.08-4.68,1.3,0,2.16.75,2.16,2.02,0,.79-.4,1.42-1.12,1.42Z"/><path class="cls-11" d="M326.03,539.74h-2.77l-2.2,10.41c-.04.19-.11.45-.11.64s.11.26.25.26c.58,0,3.02-2.25,3.39-2.58l.61.79c-2.7,2.55-4.36,3.67-5.55,3.67-.86,0-1.19-.71-1.19-1.68,0-.3.07-.75.14-1.12l2.2-10.37h-1.69l.14-.79c1.98-.94,3.24-2.58,4.97-5.2h1.01c-.4.9-.79,1.76-1.08,2.55-.25.67-.4,1.31-.54,1.83h2.77l-.36,1.61Z"/><path class="cls-11" d="M337.08,540.6h-.83c-1.51,0-2.74,2.96-3.46,4.76-1.01,2.47-1.84,5.47-2.38,7.56h-2.45l2.48-11.83c.04-.15.07-.41.07-.56,0-.07.04-.11-.07-.11-.14,0-1.87,1.8-2.09,1.98l-.68-.67c1.51-1.72,3.64-3.97,4.79-3.97.58,0,.61.49.61,1.01,0,.3-.07.97-.25,1.83l-.97,4.57c2.27-5.47,3.38-7.41,5.26-7.41.83,0,1.22.45,1.22,1.24s-.36,1.61-1.26,1.61Z"/><path class="cls-11" d="M340.86,552.92c-.79,0-1.08-.6-1.08-1.39,0-.26.04-.56.11-.86l1.98-9.47c.04-.15.14-.64.14-.75s-.04-.15-.07-.15c-.25,0-.97.9-1.8,1.8l-.65-.64c1.19-1.54,3.24-3.71,4.36-3.71.68,0,.94.52.94,1.09,0,.11,0,.26-.04.37l-2.3,10.97c-.04.11-.07.26-.07.37,0,.08.04.15.11.15.11,0,.94-.75,2.05-2.25l.72.64c-1.12,1.68-3.31,3.82-4.39,3.82ZM344.72,534.27c-.65,0-1.12-.56-1.12-1.46,0-1.01.47-2.85,1.76-2.85.58,0,1.08.52,1.08,1.46,0,1.12-.58,2.85-1.73,2.85Z"/><path class="cls-11" d="M351.77,552.92c-2.12,0-3.35-1.31-3.35-3.48,0-.41,0-.86.11-1.35l4-18.95c.04-.11.04-.22.04-.3s-.04-.15-.11-.15c-.11,0-.25.04-.5.19l-1.3.67-.43-.82,3.82-2.25c.25-.15.5-.22.68-.22.43,0,.65.3.65.86,0,.19-.04.34-.07.56l-3.06,14.38c1.94-1.95,4.68-4.31,5.55-4.31,1.12,0,2.02,2.77,2.02,4.94,0,6.14-4.68,10.22-8.03,10.22ZM356.27,540.11c-.58,0-2.56,1.8-4.43,3.82l-.47,2.32c-.29,1.42-.5,2.43-.5,3.33,0,1.61.58,2.13,1.55,2.13,2.63,0,4.9-4.83,4.9-8.91,0-2.21-.65-2.7-1.04-2.7Z"/><path class="cls-11" d="M370.89,552.92c-.54,0-.86-.34-.86-1.24,0-.41.07-.97.22-1.69l1.12-5.13c-4.11,5.62-6.81,8.05-7.78,8.05-.79,0-1.22-.9-1.22-2.21,0-.75.22-1.76.32-2.25l1.69-7.38c.04-.19.07-.34.07-.41s-.04-.11-.07-.11c-.14,0-1.84,1.87-1.94,1.98l-.65-.67c.76-.9,3.35-4.12,4.57-4.12.58,0,.86.34.86,1.12,0,.38-.07.82-.22,1.42l-1.98,8.65c-.07.34-.14.82-.18,1.05,0,.34.11.49.32.49.18,0,.47-.26.94-.79,1.76-1.95,5.51-6.18,6.01-8.5l.76-3.44h2.45l-2.45,11.53c-.07.34-.14.6-.14.71,0,.15.04.22.11.22.11,0,1.26-1.27,2.05-2.17l.68.67c-2.41,2.96-3.85,4.19-4.68,4.19Z"/><path class="cls-11" d="M385.69,539.74h-2.77l-2.2,10.41c-.04.19-.11.45-.11.64s.11.26.25.26c.58,0,3.02-2.25,3.39-2.58l.61.79c-2.7,2.55-4.36,3.67-5.55,3.67-.86,0-1.19-.71-1.19-1.68,0-.3.07-.75.14-1.12l2.2-10.37h-1.69l.14-.79c1.98-.94,3.24-2.58,4.97-5.2h1.01c-.4.9-.79,1.76-1.08,2.55-.25.67-.4,1.31-.54,1.83h2.77l-.36,1.61Z"/><path class="cls-11" d="M389.33,552.92c-.79,0-1.08-.6-1.08-1.39,0-.26.04-.56.11-.86l1.98-9.47c.04-.15.14-.64.14-.75s-.04-.15-.07-.15c-.25,0-.97.9-1.8,1.8l-.65-.64c1.19-1.54,3.24-3.71,4.36-3.71.68,0,.94.52.94,1.09,0,.11,0,.26-.04.37l-2.3,10.97c-.04.11-.07.26-.07.37,0,.08.04.15.11.15.11,0,.94-.75,2.05-2.25l.72.64c-1.12,1.68-3.31,3.82-4.39,3.82ZM393.18,534.27c-.65,0-1.12-.56-1.12-1.46,0-1.01.47-2.85,1.76-2.85.58,0,1.08.52,1.08,1.46,0,1.12-.58,2.85-1.73,2.85Z"/><path class="cls-11" d="M404.52,550.07c-1.84,1.83-4.47,2.85-5.44,2.85-1.73,0-3.06-2.85-3.1-5.39,0-2.21.9-4.87,3.02-7,1.15-1.16,3.75-2.77,5.37-2.77,1.44,0,3.06,2.77,3.06,5.5,0,2.36-1.19,5.09-2.92,6.82ZM402.8,539.4c-1.98,0-4.29,3.89-4.29,7.64,0,2.62.9,4.19,2.27,4.19,1.91,0,4.1-4.01,4.1-7.6,0-2.55-1.08-4.23-2.09-4.23Z"/><path class="cls-11" d="M418.42,552.92c-.65,0-.94-.34-.94-1.2,0-.45.11-1.05.29-1.8l2.27-8.91c.11-.34.18-.71.14-.97,0-.3-.11-.49-.36-.49-.79,0-3.92,3.45-6.63,7.3l-1.26,6.07h-2.45l2.52-11.98c0-.08.04-.15.04-.22s-.07-.11-.11-.11c-.32,0-1.76,1.72-1.98,1.98l-.68-.67c1.73-2.17,3.49-4.16,4.72-4.16.68,0,.9.37.9.79,0,.15,0,.37-.04.52l-1.15,5.5c2.88-3.89,5.91-6.81,7.45-6.81,1.01,0,1.33.94,1.33,2.13,0,.71-.11,1.5-.29,2.21l-2.05,8.01c-.04.15-.07.26-.07.38,0,.15.04.22.14.22.25,0,1.58-1.46,2.56-2.62l.72.64c-1.94,2.55-3.85,4.19-5.08,4.19Z"/><path class="cls-11" d="M441.11,550.07c-1.84,1.83-4.46,2.85-5.44,2.85-1.73,0-3.06-2.85-3.1-5.39,0-2.21.9-4.87,3.03-7,1.15-1.16,3.74-2.77,5.37-2.77,1.44,0,3.06,2.77,3.06,5.5,0,2.36-1.19,5.09-2.92,6.82ZM439.38,539.4c-1.98,0-4.29,3.89-4.29,7.64,0,2.62.9,4.19,2.27,4.19,1.91,0,4.11-4.01,4.11-7.6,0-2.55-1.08-4.23-2.09-4.23Z"/><path class="cls-11" d="M458.18,529.51c-1.12,0-1.98-1.57-2.99-1.57-1.84,0-2.77,3.03-3.92,10.19h2.84l-.36,1.61h-2.77l-1.91,10.71c-.94,5.32-3.17,11.91-8.36,11.91-1.55,0-2.81-.97-2.81-1.95,0-.86.58-1.35,1.22-1.35,1.3,0,2.05,1.54,3.28,1.54,1.62,0,2.84-2.21,3.49-5.95l2.63-14.9h-2.16l.22-1.05,2.2-.52c.97-5.02,2.59-11.91,8.07-11.91,1.26,0,2.67.82,2.67,1.83,0,.82-.58,1.42-1.33,1.42Z"/><path class="cls-11" d="M468.76,528.01l-4.61,21.76c-.11.49-.22.9-.22,1.12,0,.19.07.26.22.26.22,0,1.3-1.01,2.41-2.32l.72.71c-1.55,1.8-3.24,3.37-4.57,3.37-.97,0-1.3-.52-1.3-1.35,0-.34.07-.71.14-1.09l4.39-20.75c.04-.15.07-.37.07-.56,0-.11-.04-.22-.14-.22-.32,0-1.26.45-2.16,1.01l-.47-.9c.4-.23,4.47-2.81,4.97-2.81.32,0,.61.34.61,1.01,0,.22,0,.49-.07.75Z"/><path class="cls-11" d="M476.97,544.08c-1.55.82-3.49,1.42-5.15,1.98-.14.67-.22,1.27-.22,1.83,0,2.32,1.3,3.26,2.77,3.26.72,0,1.94-.45,3.75-1.69l.54.9c-1.55.97-3.82,2.55-5.73,2.55-2.77,0-3.78-2.7-3.78-4.76,0-4.75,3.64-10.41,8.1-10.41,1.66,0,2.7,1.01,2.7,2.51,0,1.76-1.37,2.96-2.99,3.82ZM476.61,538.87c-1.19,0-3.6,1.61-4.57,6.07,3.67-1.16,5.65-2.62,5.65-4.72,0-1.01-.54-1.35-1.08-1.35Z"/><path class="cls-11" d="M489.03,539.74h-2.77l-2.2,10.41c-.04.19-.11.45-.11.64s.11.26.25.26c.58,0,3.03-2.25,3.38-2.58l.61.79c-2.7,2.55-4.36,3.67-5.55,3.67-.86,0-1.19-.71-1.19-1.68,0-.3.07-.75.14-1.12l2.2-10.37h-1.69l.14-.79c1.98-.94,3.24-2.58,4.97-5.2h1.01c-.4.9-.79,1.76-1.08,2.55-.25.67-.4,1.31-.54,1.83h2.77l-.36,1.61Z"/><path class="cls-11" d="M498.61,539.74h-2.77l-2.2,10.41c-.04.19-.11.45-.11.64s.11.26.25.26c.58,0,3.03-2.25,3.38-2.58l.61.79c-2.7,2.55-4.36,3.67-5.54,3.67-.87,0-1.19-.71-1.19-1.68,0-.3.07-.75.14-1.12l2.2-10.37h-1.69l.14-.79c1.98-.94,3.24-2.58,4.97-5.2h1.01c-.4.9-.79,1.76-1.08,2.55-.25.67-.4,1.31-.54,1.83h2.77l-.36,1.61Z"/><path class="cls-11" d="M507.97,544.08c-1.55.82-3.49,1.42-5.15,1.98-.14.67-.22,1.27-.22,1.83,0,2.32,1.3,3.26,2.77,3.26.72,0,1.94-.45,3.75-1.69l.54.9c-1.55.97-3.82,2.55-5.73,2.55-2.77,0-3.78-2.7-3.78-4.76,0-4.75,3.64-10.41,8.1-10.41,1.66,0,2.7,1.01,2.7,2.51,0,1.76-1.37,2.96-2.99,3.82ZM507.61,538.87c-1.19,0-3.6,1.61-4.57,6.07,3.67-1.16,5.65-2.62,5.65-4.72,0-1.01-.54-1.35-1.08-1.35Z"/><path class="cls-11" d="M521.51,540.6h-.83c-1.51,0-2.74,2.96-3.46,4.76-1.01,2.47-1.84,5.47-2.38,7.56h-2.45l2.48-11.83c.04-.15.07-.41.07-.56,0-.07.04-.11-.07-.11-.14,0-1.87,1.8-2.09,1.98l-.68-.67c1.51-1.72,3.64-3.97,4.79-3.97.58,0,.61.49.61,1.01,0,.3-.07.97-.25,1.83l-.97,4.57c2.27-5.47,3.39-7.41,5.26-7.41.83,0,1.22.45,1.22,1.24s-.36,1.61-1.26,1.61Z"/><path class="cls-11" d="M530.95,541.2c-1.19,0-1.15-2.06-2.38-2.06-.47,0-1.76.94-1.76,1.98,0,1.31,1.08,2.32,2.09,3.48.9,1.01,1.73,2.13,1.73,3.63,0,2.47-2.2,4.68-5.69,4.68-1.76,0-2.95-.9-2.95-1.8s.72-1.2,1.3-1.2c1.04,0,2.38,1.42,3.71,1.42,1.01,0,1.87-.71,1.87-1.57,0-1.24-.97-2.36-1.95-3.52-1.04-1.2-2.09-2.43-2.09-3.82,0-2.02,2.66-4.68,5.08-4.68,1.3,0,2.16.75,2.16,2.02,0,.79-.4,1.42-1.12,1.42Z"/><path class="cls-3" d="M136.11,952.24h-12.01l.25-1.22c3.19-.17,4.54-.83,4.54-3.01v-6.95h-8.49l-4.83,6.73c-.34.48-.55,1.05-.55,1.49,0,1,1.22,1.75,3.57,1.75l-.25,1.22h-9.79l.25-1.22c2.31-.22,3.99-2.05,5.63-4.28l15.54-21.49h2.35v23.2c0,1.88.84,2.58,4.03,2.58l-.25,1.22ZM128.84,929.39l-6.97,9.65h6.97v-9.65Z"/><path class="cls-3" d="M156.23,939.04c-1.39,0-1.34-2.4-2.77-2.4-.55,0-2.06,1.09-2.06,2.32,0,1.53,1.26,2.71,2.44,4.06,1.05,1.18,2.02,2.49,2.02,4.24,0,2.88-2.56,5.46-6.64,5.46-2.06,0-3.44-1.05-3.44-2.1s.84-1.4,1.51-1.4c1.22,0,2.77,1.66,4.33,1.66,1.18,0,2.18-.83,2.18-1.83,0-1.44-1.13-2.75-2.27-4.11-1.22-1.4-2.44-2.84-2.44-4.46,0-2.36,3.11-5.46,5.92-5.46,1.51,0,2.52.87,2.52,2.36,0,.92-.46,1.66-1.3,1.66Z"/><path class="cls-3" d="M170.14,952.72c-.63,0-1.01-.39-1.01-1.44,0-.48.08-1.14.25-1.97l1.3-5.99c-4.79,6.55-7.94,9.39-9.07,9.39-.92,0-1.43-1.05-1.43-2.58,0-.87.25-2.05.38-2.62l1.97-8.61c.04-.22.08-.39.08-.48s-.04-.13-.08-.13c-.17,0-2.14,2.18-2.27,2.32l-.76-.79c.88-1.05,3.91-4.81,5.33-4.81.67,0,1.01.39,1.01,1.31,0,.44-.08.96-.25,1.66l-2.31,10.09c-.08.39-.17.96-.21,1.22,0,.39.13.57.38.57.21,0,.55-.31,1.09-.92,2.06-2.27,6.43-7.21,7.02-9.92l.88-4.02h2.86l-2.86,13.46c-.08.39-.17.7-.17.83,0,.17.04.26.13.26.13,0,1.47-1.49,2.39-2.53l.8.79c-2.81,3.45-4.49,4.89-5.46,4.89Z"/><path class="cls-3" d="M183.2,952.72c-.59,0-1.13-.04-1.72-.22l-1.76,8.21c-.08.31-.13.52-.13.74,0,.74.8.92,3.53,1.05l-.25,1.22h-9.83l.29-1.22c2.9-.09,3.28-.48,3.61-2.05l4.58-21.75c0-.09.04-.39.04-.48,0-.17-.04-.26-.08-.26-.29,0-1.51,1.7-2.56,3.1l-.88-.7c1.55-2.27,4.12-5.33,5.96-5.33.67,0,.88.35.88.96,0,.22-.04.48-.08.74l-.84,3.89c1.6-2.1,4.24-5.59,6.13-5.59,1.64,0,2.9,2.93,2.9,5.81,0,6.03-4.75,11.88-9.79,11.88ZM188.58,937.43c-.97,0-3.61,3.63-5.21,5.99l-1.47,7.08c.59.44,1.26.74,1.93.74,3.7,0,6.22-6.03,6.22-10,0-2.27-.88-3.8-1.47-3.8Z"/><path class="cls-3" d="M206.01,938.34h-.97c-1.76,0-3.19,3.45-4.03,5.55-1.18,2.88-2.14,6.38-2.77,8.82h-2.86l2.9-13.8c.04-.17.08-.48.08-.66,0-.09.04-.13-.08-.13-.17,0-2.18,2.1-2.44,2.32l-.8-.79c1.76-2.01,4.24-4.63,5.59-4.63.67,0,.71.57.71,1.18,0,.35-.08,1.14-.29,2.14l-1.13,5.33c2.65-6.38,3.95-8.65,6.13-8.65.97,0,1.43.52,1.43,1.44s-.42,1.88-1.47,1.88Z"/><path class="cls-3" d="M217.1,942.41c-1.81.96-4.07,1.66-6.01,2.32-.17.79-.25,1.49-.25,2.14,0,2.71,1.51,3.8,3.23,3.8.84,0,2.27-.52,4.37-1.97l.63,1.05c-1.81,1.14-4.45,2.97-6.68,2.97-3.23,0-4.41-3.15-4.41-5.55,0-5.55,4.24-12.14,9.45-12.14,1.93,0,3.15,1.18,3.15,2.93,0,2.05-1.6,3.45-3.49,4.46ZM216.68,936.33c-1.39,0-4.2,1.88-5.33,7.08,4.28-1.35,6.6-3.06,6.6-5.5,0-1.18-.63-1.57-1.26-1.57Z"/><path class="cls-3" d="M241.47,952.72c-.71,0-1.09-.48-1.09-1.44,0-.31.04-.66.13-1.05l2.39-12.19c.04-.17.08-.35.08-.48s-.04-.22-.13-.22c-.84,0-6.3,5.98-7.73,10.35l-1.09,5.02h-2.86l3.07-14.5c.04-.17.04-.31.04-.44,0-.22,0-.31-.17-.31-1.39,0-6.76,6.64-7.94,10.27l-1.05,4.98h-2.86l2.86-13.41c.04-.17.13-.66.13-.79s0-.17-.13-.17c-.29,0-1.89,1.83-2.31,2.32l-.8-.79c1.93-2.4,3.91-4.85,5.71-4.85.59,0,.8.35.8,1.05,0,.66-.38,2.49-.84,4.59l-.59,2.71c3.15-4.72,6.93-8.34,8.78-8.34,1.05,0,1.39.87,1.39,2.01,0,.35-.08.96-.17,1.31l-1.05,4.85c2.39-3.58,6.26-8.17,8.44-8.17.97,0,1.3.61,1.3,1.75,0,.52-.08,1.14-.21,1.88l-2.1,10.66c-.04.17-.04.35-.04.48s0,.22.13.22c.25,0,1.85-1.79,2.81-3.01l.88.74c-1.6,2.14-3.99,4.98-5.8,4.98Z"/><path class="cls-3" d="M258.06,942.41c-1.81.96-4.07,1.66-6.01,2.32-.17.79-.25,1.49-.25,2.14,0,2.71,1.51,3.8,3.23,3.8.84,0,2.27-.52,4.37-1.97l.63,1.05c-1.81,1.14-4.45,2.97-6.68,2.97-3.23,0-4.41-3.15-4.41-5.55,0-5.55,4.24-12.14,9.45-12.14,1.93,0,3.15,1.18,3.15,2.93,0,2.05-1.6,3.45-3.49,4.46ZM257.64,936.33c-1.39,0-4.2,1.88-5.33,7.08,4.28-1.35,6.6-3.06,6.6-5.5,0-1.18-.63-1.57-1.26-1.57Z"/><path class="cls-3" d="M276.34,952.72c-.59,0-1.13-.04-1.72-.22l-1.76,8.21c-.08.31-.13.52-.13.74,0,.74.8.92,3.53,1.05l-.25,1.22h-9.83l.29-1.22c2.9-.09,3.28-.48,3.61-2.05l4.58-21.75c0-.09.04-.39.04-.48,0-.17-.04-.26-.08-.26-.29,0-1.51,1.7-2.56,3.1l-.88-.7c1.55-2.27,4.12-5.33,5.96-5.33.67,0,.88.35.88.96,0,.22-.04.48-.08.74l-.84,3.89c1.6-2.1,4.24-5.59,6.13-5.59,1.64,0,2.9,2.93,2.9,5.81,0,6.03-4.75,11.88-9.79,11.88ZM281.71,937.43c-.97,0-3.61,3.63-5.21,5.99l-1.47,7.08c.59.44,1.26.74,1.93.74,3.7,0,6.22-6.03,6.22-10,0-2.27-.88-3.8-1.47-3.8Z"/><path class="cls-3" d="M297.38,952.72c-.97,0-1.05-1.27-1.05-2.01,0-1,.21-2.05.38-3.06-1.26,1.27-4.79,5.07-6.51,5.07s-2.44-2.93-2.44-4.32c0-6.95,6.85-13.37,12.98-13.37h1.51l-2.77,13.11c-.08.48-.25,1-.25,1.35,0,.17.04.31.21.31.46,0,1.72-1.35,2.1-1.75l.8.87c-.88.87-3.65,3.8-4.96,3.8ZM293.69,939.48c-2.02,2.1-2.9,5.72-2.9,8.61,0,.57.25,2.01,1.01,2.01.8,0,4.71-3.8,5.33-4.41l1.76-8.3c-1.97.09-3.78.61-5.21,2.1Z"/><path class="cls-3" d="M314.65,938.3c-1.13,0-1.85-1.14-2.98-1.14-2.02,0-4.41,7.51-4.41,10.4,0,1.75.8,3.06,2.52,3.06,1.34,0,2.18-.79,4.07-2.67l.8.83c-2.18,2.53-4.07,3.93-6.22,3.93-1.89,0-4.07-1.18-4.07-4.89,0-4.28,4.12-12.8,9.2-12.8.97,0,2.44.31,2.44,1.92,0,.74-.38,1.35-1.34,1.35Z"/><path class="cls-3" d="M330.07,952.72c-3.4-.83-4.87-3.63-6.68-6.29-.5-.74-1.05-1.44-1.68-2.1l-1.76,8.39h-2.86l5.84-27.74c.04-.17.08-.31.08-.39,0-.13-.04-.22-.21-.22-.38,0-1.22.48-2.14,1l-.55-1c.92-.57,4.2-2.75,5.25-2.75.63,0,.88.35.88.87,0,.17,0,.35-.04.52l-3.78,17.87c3.28-2.93,7.02-5.85,8.7-5.85.97,0,2.44,1.53,2.44,3.32,0,3.28-2.86,5.5-8.49,5.85,1.01,1.22,1.89,2.58,2.81,3.67.97,1.18,1.93,2.01,3.07,2.1l1.93-2.05.8.83-3.61,3.97ZM329.73,937.3c-1.43,0-6.59,4.41-7.73,5.68.63.04,1.22.04,1.81.04,4.07,0,6.93-1.62,6.93-4.41,0-1-.42-1.31-1.01-1.31Z"/><path class="cls-3" d="M344.81,952.72c-.97,0-1.05-1.27-1.05-2.01,0-1,.21-2.05.38-3.06-1.26,1.27-4.79,5.07-6.51,5.07s-2.44-2.93-2.44-4.32c0-6.95,6.85-13.37,12.98-13.37h1.51l-2.77,13.11c-.08.48-.25,1-.25,1.35,0,.17.04.31.21.31.46,0,1.72-1.35,2.1-1.75l.8.87c-.88.87-3.65,3.8-4.96,3.8ZM341.11,939.48c-2.02,2.1-2.9,5.72-2.9,8.61,0,.57.25,2.01,1.01,2.01.8,0,4.71-3.8,5.33-4.41l1.76-8.3c-1.97.09-3.78.61-5.21,2.1Z"/><path class="cls-3" d="M367.2,937.47c-.63,0-1.47,0-2.6-.17.71,1,1.05,2.27,1.05,3.54,0,3.89-2.69,6.42-4.75,7.86-2.18,1.53-4.24,1.88-4.24,2.84,0,.87,3.15,2.8,3.74,3.23,1.85,1.27,3.91,2.75,3.91,4.24,0,3.01-4.5,4.72-8.99,4.72-5.33,0-7.73-1.83-7.73-3.71s2.6-3.58,7.23-6.16c-.21-.39-.29-.79-.29-1.14,0-.83.5-1.7,1.43-2.45-1.93-1.31-2.81-3.32-2.81-5.72,0-1.66.71-4.06,2.6-6.07,2.44-2.62,4.33-3.45,6.68-3.45,2.48,0,3.91.13,5.25.39l-.46,2.05ZM359.89,958.05c-1.09-.83-2.65-1.88-4.37-3.28-2.98,1.7-5.21,3.45-5.21,4.72,0,1.75,2.02,3.01,5.12,3.01,3.36,0,6.18-1.22,6.18-2.53,0-.48-.55-1.05-1.72-1.92ZM360.56,936.64c-2.44,0-4.62,5.55-4.62,7.99,0,2.67,1.22,3.98,2.48,3.98,1.97,0,4.41-4.28,4.41-8.3,0-2.36-.97-3.67-2.27-3.67Z"/><path class="cls-3" d="M377.45,942.41c-1.81.96-4.07,1.66-6.01,2.32-.17.79-.25,1.49-.25,2.14,0,2.71,1.51,3.8,3.23,3.8.84,0,2.27-.52,4.37-1.97l.63,1.05c-1.81,1.14-4.45,2.97-6.68,2.97-3.23,0-4.41-3.15-4.41-5.55,0-5.55,4.24-12.14,9.45-12.14,1.93,0,3.15,1.18,3.15,2.93,0,2.05-1.6,3.45-3.49,4.46ZM377.03,936.33c-1.39,0-4.2,1.88-5.33,7.08,4.28-1.35,6.6-3.06,6.6-5.5,0-1.18-.63-1.57-1.26-1.57Z"/><path class="cls-3" d="M391.19,939.04c-1.39,0-1.34-2.4-2.77-2.4-.55,0-2.06,1.09-2.06,2.32,0,1.53,1.26,2.71,2.44,4.06,1.05,1.18,2.02,2.49,2.02,4.24,0,2.88-2.56,5.46-6.64,5.46-2.06,0-3.44-1.05-3.44-2.1s.84-1.4,1.51-1.4c1.22,0,2.77,1.66,4.33,1.66,1.18,0,2.18-.83,2.18-1.83,0-1.44-1.13-2.75-2.27-4.11-1.22-1.4-2.44-2.84-2.44-4.46,0-2.36,3.11-5.46,5.92-5.46,1.51,0,2.52.87,2.52,2.36,0,.92-.46,1.66-1.3,1.66Z"/><path class="cls-3" d="M411.81,952.72c-.97,0-1.05-1.27-1.05-2.01,0-1,.21-2.05.38-3.06-1.26,1.27-4.79,5.07-6.51,5.07s-2.44-2.93-2.44-4.32c0-6.95,6.85-13.37,12.98-13.37h1.51l-2.77,13.11c-.08.48-.25,1-.25,1.35,0,.17.04.31.21.31.46,0,1.72-1.35,2.1-1.75l.8.87c-.88.87-3.65,3.8-4.96,3.8ZM408.12,939.48c-2.02,2.1-2.9,5.72-2.9,8.61,0,.57.25,2.01,1.01,2.01.8,0,4.71-3.8,5.33-4.41l1.76-8.3c-1.97.09-3.78.61-5.21,2.1Z"/><path class="cls-3" d="M429.92,952.72c-.76,0-1.09-.39-1.09-1.4,0-.52.13-1.22.34-2.1l2.65-10.4c.13-.39.21-.83.17-1.14,0-.35-.13-.57-.42-.57-.92,0-4.58,4.02-7.73,8.52l-1.47,7.08h-2.86l2.94-13.98c0-.09.04-.17.04-.26s-.08-.13-.13-.13c-.38,0-2.06,2.01-2.31,2.32l-.8-.79c2.02-2.53,4.08-4.85,5.5-4.85.8,0,1.05.44,1.05.92,0,.17,0,.44-.04.61l-1.34,6.42c3.36-4.54,6.89-7.95,8.7-7.95,1.18,0,1.55,1.09,1.55,2.49,0,.83-.13,1.75-.34,2.58l-2.39,9.35c-.04.17-.08.31-.08.44,0,.17.04.26.17.26.29,0,1.85-1.7,2.98-3.06l.84.74c-2.27,2.97-4.5,4.89-5.92,4.89Z"/><path class="cls-3" d="M454.83,922.97l-5.5,25.99c-.04.13-.08.35-.08.52,0,.22.04.31.17.31.42,0,1.51-1.05,2.14-1.75l.8.87c-1.39,1.66-3.95,3.8-4.96,3.8-.88,0-1.18-.87-1.18-1.97,0-.74.29-2.14.5-3.01l.17-.74c-1.97,2.53-4.83,5.72-6.72,5.72-1.64,0-2.31-2.4-2.31-4.89,0-6.73,6.01-12.8,9.16-12.8.67,0,1.47.35,2.18.96l2.31-10.83c.04-.13.13-.61-.13-.61-.34,0-2.27,1.14-2.65,1.35l-.59-1c2.48-1.66,5.29-3.28,5.92-3.28s.8.52.8,1.05c0,.09,0,.22-.04.31ZM446.47,936.77c-3.03,0-5.76,7.38-5.76,10.75,0,2.14.76,2.75,1.26,2.75.67,0,2.69-2.23,5.5-6.03l1.13-5.5c-.67-1.4-1.22-1.97-2.14-1.97Z"/><path class="cls-3" d="M475.88,952.72c-.97,0-1.39-.87-1.39-2.27,0-.52.08-1.09.17-1.7l.63-3.93c-2.35,3.28-5.84,7.91-8.32,7.91-.97,0-1.39-.74-1.39-2.36,0-.92.08-2.18.34-3.71l1.13-7.47c.04-.17.08-.39.08-.52s-.04-.22-.21-.22c-.42,0-2.18,2.1-2.44,2.36l-.8-.74c2.23-2.8,4.49-5.02,5.5-5.02.76,0,1.05.74,1.05,1.57,0,.22,0,.44-.04.66l-1.6,10.57c-.17,1.05-.29,1.79-.29,2.23,0,.39.08.57.38.57.92,0,4.5-4.89,6.93-8.3l1.09-7.3h2.86l-2.18,14.55c-.04.31-.08.57-.08.74,0,.13.04.22.17.22.25,0,1.43-.79,2.56-1.92,3.61-3.67,5.12-8.26,5.12-10,0-.83-.42-.66-.76-1.09-.13-.17-.21-.35-.21-.66,0-.79.71-1.83,1.93-1.83,1.09,0,2.06.83,2.06,2.67,0,5.85-10.21,15.03-12.31,15.03Z"/><path class="cls-3" d="M499.02,942.41c-1.81.96-4.08,1.66-6.01,2.32-.17.79-.25,1.49-.25,2.14,0,2.71,1.51,3.8,3.24,3.8.84,0,2.27-.52,4.37-1.97l.63,1.05c-1.81,1.14-4.45,2.97-6.68,2.97-3.23,0-4.41-3.15-4.41-5.55,0-5.55,4.24-12.14,9.45-12.14,1.93,0,3.15,1.18,3.15,2.93,0,2.05-1.6,3.45-3.49,4.46ZM498.6,936.33c-1.39,0-4.2,1.88-5.33,7.08,4.28-1.35,6.59-3.06,6.59-5.5,0-1.18-.63-1.57-1.26-1.57Z"/><path class="cls-3" d="M508.77,952.72c-2.48,0-3.91-1.53-3.91-4.06,0-.48,0-1,.13-1.57l4.66-22.11c.04-.13.04-.26.04-.35s-.04-.17-.13-.17c-.13,0-.29.04-.59.22l-1.51.79-.5-.96,4.45-2.62c.29-.17.59-.26.8-.26.5,0,.76.35.76,1,0,.22-.04.39-.08.66l-3.57,16.78c2.27-2.27,5.46-5.02,6.47-5.02,1.3,0,2.35,3.23,2.35,5.77,0,7.16-5.46,11.93-9.37,11.93ZM514.02,937.78c-.67,0-2.98,2.1-5.17,4.46l-.55,2.71c-.34,1.66-.59,2.84-.59,3.89,0,1.88.67,2.49,1.81,2.49,3.07,0,5.71-5.64,5.71-10.4,0-2.58-.76-3.15-1.22-3.15Z"/><path class="cls-3" d="M533.64,952.72c-.59,0-1.13-.04-1.72-.22l-1.76,8.21c-.08.31-.13.52-.13.74,0,.74.8.92,3.53,1.05l-.25,1.22h-9.83l.29-1.22c2.9-.09,3.28-.48,3.61-2.05l4.58-21.75c0-.09.04-.39.04-.48,0-.17-.04-.26-.08-.26-.29,0-1.51,1.7-2.56,3.1l-.88-.7c1.55-2.27,4.12-5.33,5.97-5.33.67,0,.88.35.88.96,0,.22-.04.48-.08.74l-.84,3.89c1.6-2.1,4.24-5.59,6.13-5.59,1.64,0,2.9,2.93,2.9,5.81,0,6.03-4.75,11.88-9.79,11.88ZM539.02,937.43c-.97,0-3.61,3.63-5.21,5.99l-1.47,7.08c.59.44,1.26.74,1.93.74,3.7,0,6.22-6.03,6.22-10,0-2.27-.88-3.8-1.47-3.8Z"/><path class="cls-3" d="M554.69,952.72c-.97,0-1.05-1.27-1.05-2.01,0-1,.21-2.05.38-3.06-1.26,1.27-4.79,5.07-6.51,5.07s-2.44-2.93-2.44-4.32c0-6.95,6.85-13.37,12.98-13.37h1.51l-2.77,13.11c-.08.48-.25,1-.25,1.35,0,.17.04.31.21.31.46,0,1.72-1.35,2.1-1.75l.8.87c-.88.87-3.66,3.8-4.96,3.8ZM550.99,939.48c-2.02,2.1-2.9,5.72-2.9,8.61,0,.57.25,2.01,1.01,2.01.8,0,4.7-3.8,5.33-4.41l1.76-8.3c-1.97.09-3.78.61-5.21,2.1Z"/><path class="cls-3" d="M577.08,937.47c-.63,0-1.47,0-2.6-.17.71,1,1.05,2.27,1.05,3.54,0,3.89-2.69,6.42-4.75,7.86-2.18,1.53-4.24,1.88-4.24,2.84,0,.87,3.15,2.8,3.74,3.23,1.85,1.27,3.91,2.75,3.91,4.24,0,3.01-4.5,4.72-8.99,4.72-5.33,0-7.73-1.83-7.73-3.71s2.6-3.58,7.22-6.16c-.21-.39-.29-.79-.29-1.14,0-.83.5-1.7,1.43-2.45-1.93-1.31-2.81-3.32-2.81-5.72,0-1.66.71-4.06,2.6-6.07,2.44-2.62,4.33-3.45,6.68-3.45,2.48,0,3.91.13,5.25.39l-.46,2.05ZM569.77,958.05c-1.09-.83-2.65-1.88-4.37-3.28-2.98,1.7-5.21,3.45-5.21,4.72,0,1.75,2.02,3.01,5.12,3.01,3.36,0,6.17-1.22,6.17-2.53,0-.48-.55-1.05-1.72-1.92ZM570.44,936.64c-2.44,0-4.62,5.55-4.62,7.99,0,2.67,1.22,3.98,2.48,3.98,1.97,0,4.41-4.28,4.41-8.3,0-2.36-.97-3.67-2.27-3.67Z"/><path class="cls-3" d="M587.33,942.41c-1.81.96-4.08,1.66-6.01,2.32-.17.79-.25,1.49-.25,2.14,0,2.71,1.51,3.8,3.24,3.8.84,0,2.27-.52,4.37-1.97l.63,1.05c-1.81,1.14-4.45,2.97-6.68,2.97-3.23,0-4.41-3.15-4.41-5.55,0-5.55,4.24-12.14,9.45-12.14,1.93,0,3.15,1.18,3.15,2.93,0,2.05-1.6,3.45-3.49,4.46ZM586.91,936.33c-1.39,0-4.2,1.88-5.33,7.08,4.28-1.35,6.59-3.06,6.59-5.5,0-1.18-.63-1.57-1.26-1.57Z"/><path class="cls-3" d="M609.55,942.41c-1.81.96-4.08,1.66-6.01,2.32-.17.79-.25,1.49-.25,2.14,0,2.71,1.51,3.8,3.24,3.8.84,0,2.27-.52,4.37-1.97l.63,1.05c-1.81,1.14-4.45,2.97-6.68,2.97-3.23,0-4.41-3.15-4.41-5.55,0-5.55,4.24-12.14,9.45-12.14,1.93,0,3.15,1.18,3.15,2.93,0,2.05-1.6,3.45-3.49,4.46ZM609.13,936.33c-1.39,0-4.2,1.88-5.33,7.08,4.28-1.35,6.59-3.06,6.59-5.5,0-1.18-.63-1.57-1.26-1.57Z"/><path class="cls-3" d="M631.14,922.97l-5.5,25.99c-.04.13-.08.35-.08.52,0,.22.04.31.17.31.42,0,1.51-1.05,2.14-1.75l.8.87c-1.39,1.66-3.95,3.8-4.96,3.8-.88,0-1.18-.87-1.18-1.97,0-.74.29-2.14.5-3.01l.17-.74c-1.97,2.53-4.83,5.72-6.72,5.72-1.64,0-2.31-2.4-2.31-4.89,0-6.73,6.01-12.8,9.16-12.8.67,0,1.47.35,2.18.96l2.31-10.83c.04-.13.13-.61-.13-.61-.34,0-2.27,1.14-2.65,1.35l-.59-1c2.48-1.66,5.29-3.28,5.92-3.28s.8.52.8,1.05c0,.09,0,.22-.04.31ZM622.78,936.77c-3.03,0-5.76,7.38-5.76,10.75,0,2.14.76,2.75,1.26,2.75.67,0,2.69-2.23,5.5-6.03l1.13-5.5c-.67-1.4-1.22-1.97-2.14-1.97Z"/><path class="cls-3" d="M633.54,952.72c-.92,0-1.26-.7-1.26-1.62,0-.31.04-.66.13-1l2.31-11.05c.04-.17.17-.74.17-.87s-.04-.17-.08-.17c-.29,0-1.13,1.05-2.1,2.1l-.76-.74c1.39-1.79,3.78-4.33,5.08-4.33.8,0,1.09.61,1.09,1.27,0,.13,0,.31-.04.44l-2.69,12.8c-.04.13-.08.31-.08.44,0,.09.04.17.13.17.13,0,1.09-.87,2.39-2.62l.84.74c-1.3,1.97-3.86,4.46-5.12,4.46ZM638.03,930.96c-.76,0-1.3-.66-1.3-1.7,0-1.18.55-3.32,2.06-3.32.67,0,1.26.61,1.26,1.7,0,1.31-.67,3.32-2.02,3.32Z"/><path class="cls-3" d="M650.59,937.34h-3.23l-2.56,12.14c-.04.22-.13.52-.13.74s.13.31.29.31c.67,0,3.53-2.62,3.95-3.01l.71.92c-3.15,2.97-5.08,4.28-6.47,4.28-1.01,0-1.39-.83-1.39-1.97,0-.35.08-.87.17-1.31l2.56-12.1h-1.97l.17-.92c2.31-1.09,3.78-3.01,5.8-6.07h1.18c-.46,1.05-.92,2.05-1.26,2.97-.29.79-.46,1.53-.63,2.14h3.23l-.42,1.88Z"/><path class="cls-3" d="M662.44,949.4c-2.14,2.14-5.21,3.32-6.34,3.32-2.02,0-3.57-3.32-3.61-6.29,0-2.58,1.05-5.68,3.53-8.17,1.34-1.35,4.37-3.23,6.26-3.23,1.68,0,3.57,3.23,3.57,6.42,0,2.75-1.39,5.94-3.4,7.95ZM660.42,936.95c-2.31,0-5,4.54-5,8.91,0,3.06,1.05,4.89,2.65,4.89,2.23,0,4.79-4.67,4.79-8.87,0-2.97-1.26-4.94-2.44-4.94Z"/><path class="cls-3" d="M678.86,938.34h-.97c-1.76,0-3.19,3.45-4.03,5.55-1.18,2.88-2.14,6.38-2.77,8.82h-2.86l2.9-13.8c.04-.17.08-.48.08-.66,0-.09.04-.13-.08-.13-.17,0-2.18,2.1-2.44,2.32l-.8-.79c1.76-2.01,4.24-4.63,5.59-4.63.67,0,.71.57.71,1.18,0,.35-.08,1.14-.29,2.14l-1.13,5.33c2.65-6.38,3.95-8.65,6.13-8.65.97,0,1.43.52,1.43,1.44s-.42,1.88-1.47,1.88Z"/><path class="cls-3" d="M689.87,939.04c-1.39,0-1.34-2.4-2.77-2.4-.55,0-2.06,1.09-2.06,2.32,0,1.53,1.26,2.71,2.44,4.06,1.05,1.18,2.02,2.49,2.02,4.24,0,2.88-2.56,5.46-6.64,5.46-2.06,0-3.44-1.05-3.44-2.1s.84-1.4,1.51-1.4c1.22,0,2.77,1.66,4.33,1.66,1.18,0,2.18-.83,2.18-1.83,0-1.44-1.13-2.75-2.27-4.11-1.22-1.4-2.44-2.84-2.44-4.46,0-2.36,3.11-5.46,5.92-5.46,1.51,0,2.52.87,2.52,2.36,0,.92-.46,1.66-1.3,1.66Z"/><path class="cls-3" d="M697.68,952.72c-1.43,0-1.85-1.31-1.85-2.23,0-1.35.71-2.75,2.27-2.75,1.26,0,1.89,1,1.89,2.18,0,1.4-.76,2.8-2.31,2.8Z"/><path class="cls-9" d="M262.62,896.76c2.05,0,3.97-.35,3.97-5.82v-13.05h4.38v13.92c0,6.4-4.16,8.7-8.32,8.7-2.91,0-4.9-1.02-6.27-2.62l2.69-2.69c.8.99,1.82,1.57,3.55,1.57Z"/><path class="cls-9" d="M299.32,889.08c0,7.65-4.03,11.46-10.14,11.46s-10.14-3.81-10.14-11.46,4.03-11.46,10.14-11.46,10.14,3.81,10.14,11.46ZM294.74,889.08c0-5.09-1.92-7.55-5.57-7.55s-5.6,2.46-5.6,7.55,1.95,7.55,5.6,7.55,5.57-2.46,5.57-7.55Z"/><path class="cls-9" d="M325.27,877.88v22.4h-4.42v-9.38h-9.28v9.38h-4.38v-22.4h4.38v9.54h9.28v-9.54h4.42Z"/><path class="cls-9" d="M351.86,900.28h-4.42l-9.12-14.78v14.78h-4.38v-22.4h4.22l9.28,14.78v-14.78h4.42v22.4Z"/><path class="cls-9" d="M388.95,895.87h-8.83l-1.6,4.42h-4.77l8.99-22.4h3.62l8.99,22.4h-4.77l-1.63-4.42ZM387.8,892.63l-3.26-8.9-3.23,8.9h6.5Z"/><path class="cls-9" d="M419.99,893.5c0,4.16-2.62,6.78-8.35,6.78h-8.93v-22.4h8.67c4.48,0,7.14,2.34,7.14,5.82,0,2.24-1.18,3.58-2.85,4.29,2.75.86,4.32,3.1,4.32,5.5ZM407.09,886.75h4.42c1.82,0,2.56-1.15,2.56-2.69s-.83-2.46-2.4-2.46h-4.58v5.15ZM415.41,893.43c0-1.76-.7-3.3-3.78-3.3h-4.54v6.43h4.54c3.01,0,3.78-1.44,3.78-3.14Z"/><path class="cls-9" d="M446.42,900.28h-4.7c-.48-.86-.64-1.41-.64-3.74v-1.6c0-1.98-.96-3.04-2.91-3.04h-5.73v8.38h-4.38v-22.4h9.57c5.86,0,8,2.82,8,6.91,0,2.72-1.44,4.16-3.17,5.15,2.46,1.02,3.33,2.5,3.33,4.86v1.73c0,2.34.13,2.88.64,3.74ZM440.95,884.92c0-2.27-.96-3.1-3.42-3.1h-5.09v6.5h5.12c2.62,0,3.39-.93,3.39-3.39Z"/><path class="cls-9" d="M467.99,895.87h-8.83l-1.6,4.42h-4.77l8.99-22.4h3.62l8.99,22.4h-4.77l-1.63-4.42ZM466.84,892.63l-3.26-8.9-3.23,8.9h6.5Z"/><path class="cls-9" d="M499.83,877.88v22.4h-4.42v-9.38h-9.28v9.38h-4.38v-22.4h4.38v9.54h9.28v-9.54h4.42Z"/><path class="cls-9" d="M522.36,895.87h-8.83l-1.6,4.42h-4.77l8.99-22.4h3.62l8.99,22.4h-4.77l-1.63-4.42ZM521.21,892.63l-3.26-8.9-3.23,8.9h6.5Z"/><path class="cls-9" d="M559.93,900.28h-4.42v-13.34l-5.7,13.34h-3.42l-5.73-13.34v13.34h-4.38v-22.4h4.42l7.39,16.8,7.42-16.8h4.42v22.4Z"/><path class="cls-8" d="M9.21,16.27v309.97s128.41,85.89,411.59,85.89c236.6,0,379.28-82.49,379.28-82.49V16.27H9.21Z"/><polygon class="cls-10" points="231.61 64.3 231.61 81.53 257.86 62.34 234.29 62.34 231.61 64.3"/><polygon class="cls-10" points="274.88 74.58 221.02 113.96 221.02 96.73 268.05 62.34 274.88 62.34 274.88 74.58"/><path class="cls-10" d="M279.37,144.92h.57l-37.27,27.25c-3.24-3.33-5.89-7.24-7.78-11.56l39.99-29.23v9.05c0,2.48,2.01,4.49,4.49,4.49Z"/><polygon class="cls-10" points="287.54 86.15 287.54 90 231.41 131.04 231.41 118.84 224.52 118.84 274.88 82.02 274.88 86.15 287.54 86.15"/><path class="cls-10" d="M231.41,138.49l56.13-41.04v17.23l-5.69,4.16h-6.97v5.1l-42.04,30.73c-.8-3.12-1.23-6.38-1.23-9.75h-.2v-6.43Z"/><path class="cls-10" d="M288.68,145.97v17.24l-27.04,19.77c-5.28-1.26-10.15-3.59-14.36-6.74l41.4-30.27Z"/><polygon class="cls-10" points="270.36 184.04 288.68 170.65 288.68 183.94 274.88 183.94 274.88 184.04 270.36 184.04"/><path class="cls-10" d="M178.54,62.43h-11.87l-48.69,35.59-9.05,23.86,72.02-52.65h0s-2.41-6.8-2.41-6.8ZM183.04,75.14l-78.02,57.04-9.05,23.85,55.77-40.77h0s1.85-7.47,1.85-7.47h1.9l1.17,3.87,31.23-22.83-4.85-13.69ZM189.98,94.74l-31.48,23.01,4.27,14.11,32.06-23.44-4.85-13.68ZM147.55,132.17l1.94-7.83-57.43,41.99-6.5,17.14h6.62l70.17-51.3h-14.8ZM131.49,62.43l-9.6,25.29,34.59-25.29h-24.99ZM196.93,114.34l-94.55,69.13h23.57l7.08-5.18,4.12-13.81h14.77l49.85-36.45-4.84-13.69ZM210.81,153.55l-34.58,25.28,1.73,5.21h14.71l22.99-16.8-4.85-13.69ZM217.75,173.15l-14.9,10.89h18.76l-3.86-10.89ZM203.87,133.94l-41.77,30.54h9.35l2.78,8.36,34.49-25.21-4.85-13.69Z"/><path class="cls-10" d="M338.88,183.3c2.83.49,5.75.74,8.72.74,6.56,0,12.83-1.23,18.6-3.48h.01l21.29-15.57c5.75-7.09,9.63-15.75,10.93-25.23l-59.55,43.54ZM337.96,136.8v-2.18l-34.11,24.93c2.45,3.99,5.43,7.61,8.84,10.78l32.96-24.1c-4.39-.9-7.69-4.78-7.69-9.43ZM357.19,137.79l36.84-26.93c-2.01-4.25-4.58-8.17-7.61-11.68l-31.6,23.11c1.51,1.7,2.42,3.93,2.42,6.38v8.13c0,.34-.02.66-.05.99ZM347.6,81.43c-1.58,0-3.14.07-4.69.21h-.01l-42.59,31.14h0c-2.59,6.14-4.02,12.87-4.02,19.95v.23l67.09-49.05c-4.97-1.61-10.27-2.48-15.78-2.48ZM308.86,99.09l18.46-13.5c-7.14,3.08-13.43,7.72-18.46,13.5ZM369.96,86.54l-73.15,53.49c.71,5,2.14,9.76,4.18,14.18l37.1-27.13c.76-4.56,4.73-8.05,9.51-8.05.46,0,.91.03,1.36.1h.01l33.22-24.29c-3.64-3.32-7.75-6.13-12.23-8.3ZM396.32,116.63l-78.84,57.64c4.17,3.04,8.83,5.46,13.82,7.12h.01l67.59-49.42c-.07-5.36-.97-10.51-2.58-15.34Z"/><path class="cls-10" d="M668.88,82.65l-33.16,24.24c7.09-12.14,19.03-21.1,33.16-24.24Z"/><path class="cls-10" d="M699.24,85.14l-70.36,51.44c-.09-1.27-.14-2.56-.14-3.85,0-5.18.77-10.18,2.2-14.9l49.77-36.39c6.55.08,12.8,1.38,18.53,3.7Z"/><path class="cls-10" d="M716.82,96.96l-31.97,23.37c-1.41-.83-3.05-1.3-4.8-1.3-5.32,0-9.64,4.32-9.64,9.64v2.22l-35.62,26.04c-2.26-4.21-3.94-8.78-4.95-13.6l75.53-55.23c4.23,2.41,8.09,5.4,11.45,8.86Z"/><path class="cls-10" d="M727.7,113.69l-20.5,14.98h-17.51c0-1.37-.28-2.67-.81-3.84l31.89-23.31c2.84,3.69,5.18,7.78,6.93,12.17Z"/><path class="cls-10" d="M731.2,128.67h-13.82l12.3-8.99c.76,2.91,1.28,5.91,1.52,8.99Z"/><path class="cls-10" d="M684.2,145.49l-36.75,26.87c-3.62-2.98-6.82-6.45-9.5-10.3l32.57-23.81c.7,4.63,4.7,8.18,9.53,8.18,1.48,0,2.89-.34,4.15-.94Z"/><path class="cls-10" d="M694.41,138.02l-7.29,5.33c1.33-1.44,2.23-3.28,2.49-5.33h4.8Z"/><path class="cls-10" d="M728.16,138.02l-60.78,44.45h-.01c-5.32-1.36-10.3-3.54-14.81-6.41l52.03-38.04h23.57Z"/><path class="cls-10" d="M730.12,144.04c-5.15,22.89-25.61,40-50.07,40-1.47,0-2.94-.06-4.38-.19l54.45-39.81Z"/><polygon class="cls-10" points="597.99 85.13 581.24 97.37 581.24 85.13 597.99 85.13"/><polygon class="cls-10" points="622.9 85.13 622.9 91.59 581.24 122.05 581.24 104.81 608.16 85.13 622.9 85.13"/><polygon class="cls-10" points="622.9 99.04 622.9 116.27 581.24 146.73 581.24 129.5 622.9 99.04"/><polygon class="cls-10" points="581.24 154.17 622.9 123.71 622.9 140.95 581.24 171.41 581.24 154.17"/><polygon class="cls-10" points="622.9 148.4 622.9 165.63 599.63 182.64 581.24 182.64 581.24 178.86 622.9 148.4"/><polygon class="cls-10" points="609.81 182.64 622.9 173.07 622.9 182.64 609.81 182.64"/><path class="cls-10" d="M594.51,38.31l-9.35,6.84c2.4-3.06,5.63-5.45,9.35-6.84Z"/><path class="cls-10" d="M618.96,45.12l-34.75,25.41c-2.32-3.44-3.68-7.59-3.68-12.05,0-.89.05-1.77.17-2.63l25.35-18.53c5.21.96,9.76,3.81,12.91,7.8Z"/><path class="cls-10" d="M621.38,68.02h.01c1.42-2.88,2.22-6.12,2.22-9.54,0-2.88-.57-5.64-1.6-8.15l-33.75,24.68c3.74,3.14,8.55,5.02,13.81,5.02,1.09,0,2.17-.08,3.22-.24l16.09-11.77Z"/><polygon class="cls-10" points="447.25 153.42 447.25 170.66 428.95 184.04 406.52 184.04 406.52 183.2 447.25 153.42"/><polygon class="cls-10" points="439.13 184.04 447.25 178.1 447.25 184.04 439.13 184.04"/><path class="cls-10" d="M447.36,128.67c-.07.49-.11,1-.11,1.51v15.8l-40.73,29.78v-17.24l40.84-29.85Z"/><polygon class="cls-10" points="427.31 86.53 406.52 101.73 406.52 86.53 427.31 86.53"/><path class="cls-10" d="M463.77,84.54l-57.25,41.86v-17.23l30.97-22.64h9.47v4.76c4.4-4.14,10.31-6.7,16.81-6.75Z"/><path class="cls-10" d="M490.54,89.65l-84.02,61.43v-17.23l67.34-49.24c6.06.36,11.73,2.15,16.68,5.04Z"/><path class="cls-10" d="M468.6,130.18c0-5.29-3.86-9.69-8.92-10.52l36.05-26.36c2.65,2.21,4.99,4.77,6.95,7.62,3.47-9.56,12.62-16.38,23.37-16.38h5.23l-62.68,45.83v-.19Z"/><polygon class="cls-10" points="509.33 132.72 509.33 149.95 468.6 179.73 468.6 162.49 509.33 132.72"/><polygon class="cls-10" points="509.33 157.39 509.33 174.63 496.46 184.04 472.88 184.04 509.33 157.39"/><polygon class="cls-10" points="506.64 184.04 509.33 182.07 509.33 184.04 506.64 184.04"/><path class="cls-10" d="M555.51,91.51l-39.16,28.64h-.02s-.03.02-.03.02c-1.87.69-3.49,1.89-4.7,3.44h0s-43,31.44-43,31.44v-17.24l71.99-52.63c5.48,1.01,10.54,3.22,14.92,6.33Z"/><path class="cls-10" d="M530.68,130.18c0-3.93-2.12-7.36-5.29-9.21l34.84-25.47c3.3,3.26,6,7.14,7.92,11.44l-37.47,27.4v-4.16Z"/><path class="cls-10" d="M571.4,122.29v6.95l-40.72,29.78v-17.24l39.53-28.9c.78,3.01,1.19,6.16,1.19,9.41Z"/><polygon class="cls-10" points="571.4 136.69 571.4 153.92 530.68 183.69 530.68 166.46 571.4 136.69"/><polygon class="cls-10" points="571.4 161.36 571.4 178.6 563.96 184.04 540.38 184.04 571.4 161.36"/><polygon class="cls-10" points="553.17 216.74 521.85 239.64 524.41 220.54 529.6 216.74 553.17 216.74"/><polygon class="cls-10" points="555.46 247.19 546.86 270.71 542.74 273.72 519.17 273.72 555.46 247.19"/><polygon class="cls-10" points="566.59 216.74 559.17 237.03 559.17 237.04 518.17 267.01 520.74 247.89 563.35 216.74 566.59 216.74"/><polygon class="cls-10" points="315.02 242.79 290.31 260.86 290.31 242.79 315.02 242.79"/><path class="cls-10" d="M351.5,240.8l-61.19,44.74v-17.24l34.89-25.51h5.55v7.91c4.54-6.01,11.74-9.9,19.85-9.9h.9Z"/><polygon class="cls-10" points="333.88 310.48 333.88 327.71 316.67 340.3 293.1 340.3 333.88 310.48"/><polygon class="cls-10" points="326.84 340.3 333.88 335.16 333.88 340.3 326.84 340.3"/><path class="cls-10" d="M333.9,285.79c-.01.22-.02.43-.02.65v16.6l-43.57,31.85v-17.23l43.59-31.87Z"/><path class="cls-10" d="M377.77,246.27l-87.46,63.94v-17.23l71.17-52.04h.01c5.93.51,11.45,2.39,16.28,5.33Z"/><path class="cls-10" d="M355.23,286.44c0-4.99-3.44-9.18-8.07-10.35l35.71-26.11c3.53,3.04,6.48,6.74,8.68,10.89l-36.32,26.56v-.99Z"/><path class="cls-10" d="M395.95,278.55v3.78l-40.72,29.77v-17.23l38.77-28.34c1.26,3.78,1.95,7.82,1.95,12.02Z"/><polygon class="cls-10" points="395.95 289.77 395.95 307.01 355.23 336.78 355.23 319.55 395.95 289.77"/><polygon class="cls-10" points="395.95 314.46 395.95 340.3 360.6 340.3 395.95 314.46"/><path class="cls-10" d="M507.24,282.45l-13.08,9.56h13.62c0-3.35-.18-6.54-.54-9.56ZM456.74,237.73c-23,0-42.46,15.12-48.97,35.96l49.18-35.96h-.21ZM466.22,238.4l-60.38,44.14c-.3,2.35-.43,4.74-.4,7.17.04,3.29.4,6.5,1.04,9.6l76.23-55.73c-4.99-2.6-10.54-4.31-16.49-5.18ZM451.33,300.26c-.61,0-1.19-.13-1.71-.37l-31.24,22.84c3.19,3.56,6.87,6.67,10.93,9.25l43.38-31.72h-21.36ZM488.24,246.98l-32.32,23.63h.17c4.71,0,8.8,2.74,8.8,8.59h-17.6c0-.88.13-1.74.37-2.55l-39.47,28.86c1.56,4.5,3.74,8.7,6.44,12.52l33.5-24.49c.44-.55,1.02-.99,1.7-1.25h.01l48.28-35.3c-2.79-3.96-6.12-7.29-9.88-10.01ZM482.87,300.26l-47.75,34.92c5.27,2.49,11,4.14,17,4.8l54.33-39.72h-23.58ZM462.09,340.14c21.24-1.58,38.28-12.7,43.65-31.92l-43.65,31.92ZM501.26,262.13l-40.86,29.88h23.58l22.16-16.2c-1.11-5.09-2.76-9.64-4.88-13.68Z"/><path class="cls-10" d="M272.59,249.13c-1.98-4.25-4.42-8.25-7.25-11.93l-31.38,22.94c2.45,3.16,3.9,7.11,3.9,11.38v3.01l34.73-25.4ZM272.59,249.13c-1.98-4.25-4.42-8.25-7.25-11.93l-31.38,22.94c2.45,3.16,3.9,7.11,3.9,11.38v3.01l34.73-25.4ZM272.59,249.13c-1.98-4.25-4.42-8.25-7.25-11.93l-31.38,22.94c2.45,3.16,3.9,7.11,3.9,11.38v3.01l34.73-25.4ZM272.59,249.13c-1.98-4.25-4.42-8.25-7.25-11.93l-31.38,22.94c2.45,3.16,3.9,7.11,3.9,11.38v3.01l34.73-25.4ZM272.59,249.13c-1.98-4.25-4.42-8.25-7.25-11.93l-31.38,22.94c2.45,3.16,3.9,7.11,3.9,11.38v3.01l34.73-25.4ZM272.59,249.13c-1.98-4.25-4.42-8.25-7.25-11.93l-31.38,22.94c2.45,3.16,3.9,7.11,3.9,11.38v3.01l34.73-25.4ZM272.59,249.13c-1.98-4.25-4.42-8.25-7.25-11.93l-31.38,22.94c2.45,3.16,3.9,7.11,3.9,11.38v3.01l34.73-25.4ZM272.59,249.13c-1.98-4.25-4.42-8.25-7.25-11.93l-31.38,22.94c2.45,3.16,3.9,7.11,3.9,11.38v3.01l34.73-25.4ZM272.59,249.13c-1.98-4.25-4.42-8.25-7.25-11.93l-31.38,22.94c2.45,3.16,3.9,7.11,3.9,11.38v3.01l34.73-25.4ZM272.59,249.13c-1.98-4.25-4.42-8.25-7.25-11.93l-31.38,22.94c2.45,3.16,3.9,7.11,3.9,11.38v3.01l34.73-25.4ZM272.59,249.13c-1.98-4.25-4.42-8.25-7.25-11.93l-31.38,22.94c2.45,3.16,3.9,7.11,3.9,11.38v3.01l34.73-25.4ZM272.59,249.13c-1.98-4.25-4.42-8.25-7.25-11.93l-31.38,22.94c2.45,3.16,3.9,7.11,3.9,11.38v3.01l34.73-25.4ZM272.59,249.13c-1.98-4.25-4.42-8.25-7.25-11.93l-31.38,22.94c2.45,3.16,3.9,7.11,3.9,11.38v3.01l34.73-25.4ZM272.59,249.13c-1.98-4.25-4.42-8.25-7.25-11.93l-31.38,22.94c2.45,3.16,3.9,7.11,3.9,11.38v3.01l34.73-25.4ZM272.59,249.13c-1.98-4.25-4.42-8.25-7.25-11.93l-31.38,22.94c2.45,3.16,3.9,7.11,3.9,11.38v3.01l34.73-25.4ZM272.59,249.13c-1.98-4.25-4.42-8.25-7.25-11.93l-31.38,22.94c2.45,3.16,3.9,7.11,3.9,11.38v3.01l34.73-25.4ZM272.59,249.13c-1.98-4.25-4.42-8.25-7.25-11.93l-31.38,22.94c2.45,3.16,3.9,7.11,3.9,11.38v3.01l34.73-25.4ZM272.59,249.13c-1.98-4.25-4.42-8.25-7.25-11.93l-31.38,22.94c2.45,3.16,3.9,7.11,3.9,11.38v3.01l34.73-25.4ZM229.68,213.92l-79.16,57.87c-.1,1.46-.15,2.93-.15,4.41,0,4.14.39,8.18,1.14,12.1l93.59-68.42c-4.8-2.62-9.97-4.64-15.42-5.96ZM193.38,289.81l-31.5,23.03c2.67,3.84,5.76,7.38,9.2,10.52l33.53-24.52c-4.83-1.39-8.87-4.7-11.23-9.03ZM274.94,254.86l-37.11,27.13h0c-.59,9.78-8.77,17.6-18.68,17.6h-5.39l-37.94,27.74c4.02,3.05,8.41,5.63,13.1,7.66l89.33-65.32c-.52-5.14-1.65-10.1-3.31-14.81ZM191.09,271.52c0-1.83.27-3.6.77-5.27l-38.8,28.37c1.38,4.62,3.27,9.02,5.6,13.13l32.67-23.89c-.16-.97-.24-1.97-.24-2.98v-9.36ZM195.67,337.5c5.95,1.82,12.26,2.8,18.81,2.8.32,0,.63,0,.94-.01h.01l59.86-43.77c2.07-6.18,3.21-12.78,3.28-19.64l-82.9,60.62ZM227.35,339.01c18.49-3.77,34.09-15.5,43.05-31.47l-43.05,31.47ZM265.34,237.2l-31.38,22.94c2.45,3.16,3.9,7.11,3.9,11.38v3.01l34.73-25.39h0c-1.98-4.26-4.42-8.26-7.25-11.94ZM250.64,223.28h-.01l-40.39,29.53h8.91c3.82,0,7.38,1.16,10.35,3.15l31.95-23.36c-3.23-3.5-6.86-6.63-10.81-9.32ZM272.59,249.13c-1.98-4.25-4.42-8.25-7.25-11.93l-31.38,22.94c2.45,3.16,3.9,7.11,3.9,11.38v3.01l34.73-25.4ZM214.48,212.1c-7.27,0-14.26,1.21-20.78,3.45h-.01l-30.67,22.43h-.01c-5.55,7.45-9.51,16.14-11.39,25.57l69.85-51.07c-2.29-.25-4.63-.38-6.99-.38ZM272.59,249.13c-1.98-4.25-4.42-8.25-7.25-11.93l-31.38,22.94c2.45,3.16,3.9,7.11,3.9,11.38v3.01l34.73-25.4ZM272.59,249.13c-1.98-4.25-4.42-8.25-7.25-11.93l-31.38,22.94c2.45,3.16,3.9,7.11,3.9,11.38v3.01l34.73-25.4ZM272.59,249.13c-1.98-4.25-4.42-8.25-7.25-11.93l-31.38,22.94c2.45,3.16,3.9,7.11,3.9,11.38v3.01l34.73-25.4ZM272.59,249.13c-1.98-4.25-4.42-8.25-7.25-11.93l-31.38,22.94c2.45,3.16,3.9,7.11,3.9,11.38v3.01l34.73-25.4ZM272.59,249.13c-1.98-4.25-4.42-8.25-7.25-11.93l-31.38,22.94c2.45,3.16,3.9,7.11,3.9,11.38v3.01l34.73-25.4ZM272.59,249.13c-1.98-4.25-4.42-8.25-7.25-11.93l-31.38,22.94c2.45,3.16,3.9,7.11,3.9,11.38v3.01l34.73-25.4ZM272.59,249.13c-1.98-4.25-4.42-8.25-7.25-11.93l-31.38,22.94c2.45,3.16,3.9,7.11,3.9,11.38v3.01l34.73-25.4ZM272.59,249.13c-1.98-4.25-4.42-8.25-7.25-11.93l-31.38,22.94c2.45,3.16,3.9,7.11,3.9,11.38v3.01l34.73-25.4ZM272.59,249.13c-1.98-4.25-4.42-8.25-7.25-11.93l-31.38,22.94c2.45,3.16,3.9,7.11,3.9,11.38v3.01l34.73-25.4ZM272.59,249.13c-1.98-4.25-4.42-8.25-7.25-11.93l-31.38,22.94c2.45,3.16,3.9,7.11,3.9,11.38v3.01l34.73-25.4ZM272.59,249.13c-1.98-4.25-4.42-8.25-7.25-11.93l-31.38,22.94c2.45,3.16,3.9,7.11,3.9,11.38v3.01l34.73-25.4ZM272.59,249.13c-1.98-4.25-4.42-8.25-7.25-11.93l-31.38,22.94c2.45,3.16,3.9,7.11,3.9,11.38v3.01l34.73-25.4ZM272.59,249.13c-1.98-4.25-4.42-8.25-7.25-11.93l-31.38,22.94c2.45,3.16,3.9,7.11,3.9,11.38v3.01l34.73-25.4ZM272.59,249.13c-1.98-4.25-4.42-8.25-7.25-11.93l-31.38,22.94c2.45,3.16,3.9,7.11,3.9,11.38v3.01l34.73-25.4ZM272.59,249.13c-1.98-4.25-4.42-8.25-7.25-11.93l-31.38,22.94c2.45,3.16,3.9,7.11,3.9,11.38v3.01l34.73-25.4ZM272.59,249.13c-1.98-4.25-4.42-8.25-7.25-11.93l-31.38,22.94c2.45,3.16,3.9,7.11,3.9,11.38v3.01l34.73-25.4Z"/><path class="cls-10" d="M622.42,240.15l-52.6,38.46c-.94-4.03-.88-7.27-.86-8.05.12-3.85,1.01-7.27,2.27-10.22h.01l28.68-20.98h.01c3.92-.61,7.62-.71,10.79-.73,2.98-.02,7.07.33,11.7,1.52Z"/><path class="cls-10" d="M653.88,266.5l-15.37,11.24h-15.13c-.22-1.03-.1-3.17-1.22-5.28l24.34-17.79c3.42,3.94,5.77,8.1,7.38,11.83Z"/><path class="cls-10" d="M657.21,277.74h-8.52l7.3-5.34c.69,2.37,1.04,4.25,1.22,5.34Z"/><path class="cls-10" d="M623.95,280.3c1.99.09,5.3.46,9.09,1.44l-27.65,20.22h-.01c-9.5-.22-15.17-1.43-19.14-3.24l26.27-19.21c4.36,1.59,7.79.6,11.44.79Z"/><path class="cls-10" d="M607.73,275.56l-26.9,19.67c-1.36-1.16-2.58-2.41-3.94-3.69-2.24-2.13-3.86-4.56-5.02-6.99l57.51-42.05h.01c3.58,1.5,7.28,3.55,10.91,6.33.65.5,1.28,1.01,1.88,1.54l-24.72,18.08c-3.43-1.48-7.14-.99-9.1,1.36-1.48,1.78-1.47,3.94-.63,5.75Z"/><path class="cls-10" d="M569.26,303.69l-2.05,1.5c-.07-.58-.13-1.09-.19-1.51h2.24Z"/><path class="cls-10" d="M602.44,304.11l-27.63,20.2c-3.46-4.36-5.3-8.84-6.33-12.61l10.91-7.97,22.97.09c.02.1.05.19.08.29Z"/><path class="cls-10" d="M651.49,292.92l-59.73,43.68c-3.57-1.41-7.18-3.39-10.71-6.13-.74-.57-1.43-1.15-2.09-1.75l25.95-18.97c1.43,2.03,3.36,3.39,5.95,3.99,3.99.92,8.48.9,9.5-3.11.7-2.77-1.81-5.78-6.51-7.42l26.11-19.09c1.29.56,2.57,1.2,3.83,1.94,2.8,1.64,5.48,3.99,7.7,6.86Z"/><path class="cls-10" d="M651.44,326.97c-9.32,12.4-25.63,13.41-34.67,13.33-4.62-.04-10.94.05-17.84-1.5l55.75-40.76c1.27,2.61,2.16,5.48,2.53,8.52,1.27,10.46-4.21,18.34-5.77,20.41Z"/><path class="cls-5" d="M58.39,1012.97l1.83-1.89-2.36-.47.76-2.43,2.09.87-.2-2.34h2.63l-.2,2.34,2.12-.87.71,2.43-2.34.47,1.85,1.89-2.05,1.49-1.4-2.09-1.4,2.09-2.03-1.49Z"/><path class="cls-5" d="M72.75,1012.97l1.83-1.89-2.36-.47.76-2.43,2.09.87-.2-2.34h2.63l-.2,2.34,2.12-.87.71,2.43-2.34.47,1.85,1.89-2.05,1.49-1.4-2.09-1.4,2.09-2.03-1.49Z"/><path class="cls-5" d="M87.11,1012.97l1.83-1.89-2.36-.47.76-2.43,2.09.87-.2-2.34h2.63l-.2,2.34,2.12-.87.71,2.43-2.34.47,1.85,1.89-2.05,1.49-1.4-2.09-1.4,2.09-2.03-1.49Z"/><path class="cls-5" d="M101.47,1012.97l1.83-1.89-2.36-.47.76-2.43,2.09.87-.2-2.34h2.63l-.2,2.34,2.12-.87.71,2.43-2.34.47,1.85,1.89-2.05,1.49-1.4-2.09-1.4,2.09-2.03-1.49Z"/><path class="cls-5" d="M115.84,1012.97l1.83-1.89-2.36-.47.76-2.43,2.09.87-.2-2.34h2.63l-.2,2.34,2.12-.87.71,2.43-2.34.47,1.85,1.89-2.05,1.49-1.4-2.09-1.4,2.09-2.03-1.49Z"/><path class="cls-5" d="M130.2,1012.97l1.83-1.89-2.36-.47.76-2.43,2.09.87-.2-2.34h2.63l-.2,2.34,2.12-.87.71,2.43-2.34.47,1.85,1.89-2.05,1.49-1.4-2.09-1.4,2.09-2.03-1.49Z"/><path class="cls-5" d="M144.56,1012.97l1.83-1.89-2.36-.47.76-2.43,2.09.87-.2-2.34h2.63l-.2,2.34,2.12-.87.71,2.43-2.34.47,1.85,1.89-2.05,1.49-1.4-2.09-1.4,2.09-2.03-1.49Z"/><path class="cls-5" d="M158.92,1012.97l1.83-1.89-2.36-.47.76-2.43,2.09.87-.2-2.34h2.63l-.2,2.34,2.12-.87.71,2.43-2.34.47,1.85,1.89-2.05,1.49-1.4-2.09-1.4,2.09-2.03-1.49Z"/><path class="cls-5" d="M173.29,1012.97l1.83-1.89-2.36-.47.76-2.43,2.09.87-.2-2.34h2.63l-.2,2.34,2.12-.87.71,2.43-2.34.47,1.85,1.89-2.05,1.49-1.4-2.09-1.4,2.09-2.03-1.49Z"/><path class="cls-5" d="M187.65,1012.97l1.83-1.89-2.36-.47.76-2.43,2.09.87-.2-2.34h2.63l-.2,2.34,2.12-.87.71,2.43-2.34.47,1.85,1.89-2.05,1.49-1.4-2.09-1.4,2.09-2.03-1.49Z"/><path class="cls-5" d="M202.01,1012.97l1.83-1.89-2.36-.47.76-2.43,2.09.87-.2-2.34h2.63l-.2,2.34,2.12-.87.71,2.43-2.34.47,1.85,1.89-2.05,1.49-1.4-2.09-1.4,2.09-2.03-1.49Z"/><path class="cls-5" d="M216.37,1012.97l1.83-1.89-2.36-.47.76-2.43,2.09.87-.2-2.34h2.63l-.2,2.34,2.12-.87.71,2.43-2.34.47,1.85,1.89-2.05,1.49-1.4-2.09-1.4,2.09-2.03-1.49Z"/><path class="cls-5" d="M230.73,1012.97l1.83-1.89-2.36-.47.76-2.43,2.09.87-.2-2.34h2.63l-.2,2.34,2.12-.87.71,2.43-2.34.47,1.85,1.89-2.05,1.49-1.4-2.09-1.4,2.09-2.03-1.49Z"/><path class="cls-5" d="M245.1,1012.97l1.83-1.89-2.36-.47.76-2.43,2.09.87-.2-2.34h2.63l-.2,2.34,2.12-.87.71,2.43-2.34.47,1.85,1.89-2.05,1.49-1.4-2.09-1.4,2.09-2.03-1.49Z"/><path class="cls-5" d="M259.46,1012.97l1.83-1.89-2.36-.47.76-2.43,2.09.87-.2-2.34h2.63l-.2,2.34,2.12-.87.71,2.43-2.34.47,1.85,1.89-2.05,1.49-1.4-2.09-1.4,2.09-2.03-1.49Z"/><path class="cls-5" d="M273.82,1012.97l1.83-1.89-2.36-.47.76-2.43,2.09.87-.2-2.34h2.63l-.2,2.34,2.12-.87.71,2.43-2.34.47,1.85,1.89-2.05,1.49-1.4-2.09-1.4,2.09-2.03-1.49Z"/><path class="cls-5" d="M288.18,1012.97l1.83-1.89-2.36-.47.76-2.43,2.09.87-.2-2.34h2.63l-.2,2.34,2.12-.87.71,2.43-2.34.47,1.85,1.89-2.05,1.49-1.4-2.09-1.4,2.09-2.03-1.49Z"/><path class="cls-5" d="M302.55,1012.97l1.83-1.89-2.36-.47.76-2.43,2.09.87-.2-2.34h2.63l-.2,2.34,2.12-.87.71,2.43-2.34.47,1.85,1.89-2.05,1.49-1.4-2.09-1.4,2.09-2.03-1.49Z"/><path class="cls-5" d="M316.91,1012.97l1.83-1.89-2.36-.47.76-2.43,2.09.87-.2-2.34h2.63l-.2,2.34,2.12-.87.71,2.43-2.34.47,1.85,1.89-2.05,1.49-1.4-2.09-1.4,2.09-2.03-1.49Z"/><path class="cls-5" d="M331.27,1012.97l1.83-1.89-2.36-.47.76-2.43,2.09.87-.2-2.34h2.63l-.2,2.34,2.12-.87.71,2.43-2.34.47,1.85,1.89-2.05,1.49-1.4-2.09-1.4,2.09-2.03-1.49Z"/><path class="cls-5" d="M345.63,1012.97l1.83-1.89-2.36-.47.76-2.43,2.09.87-.2-2.34h2.63l-.2,2.34,2.12-.87.71,2.43-2.34.47,1.85,1.89-2.05,1.49-1.4-2.09-1.4,2.09-2.03-1.49Z"/><path class="cls-5" d="M359.99,1012.97l1.83-1.89-2.36-.47.76-2.43,2.09.87-.2-2.34h2.63l-.2,2.34,2.12-.87.71,2.43-2.34.47,1.85,1.89-2.05,1.49-1.4-2.09-1.4,2.09-2.03-1.49Z"/><path class="cls-5" d="M431.81,1012.97l1.83-1.89-2.36-.47.76-2.43,2.09.87-.2-2.34h2.63l-.2,2.34,2.12-.87.71,2.43-2.34.47,1.85,1.89-2.05,1.49-1.4-2.09-1.4,2.09-2.03-1.49Z"/><path class="cls-5" d="M446.17,1012.97l1.83-1.89-2.36-.47.76-2.43,2.09.87-.2-2.34h2.63l-.2,2.34,2.12-.87.71,2.43-2.34.47,1.85,1.89-2.05,1.49-1.4-2.09-1.4,2.09-2.03-1.49Z"/><path class="cls-5" d="M460.53,1012.97l1.83-1.89-2.36-.47.76-2.43,2.09.87-.2-2.34h2.63l-.2,2.34,2.12-.87.71,2.43-2.34.47,1.85,1.89-2.05,1.49-1.4-2.09-1.4,2.09-2.03-1.49Z"/><path class="cls-5" d="M474.89,1012.97l1.83-1.89-2.36-.47.76-2.43,2.09.87-.2-2.34h2.63l-.2,2.34,2.12-.87.71,2.43-2.34.47,1.85,1.89-2.05,1.49-1.4-2.09-1.4,2.09-2.03-1.49Z"/><path class="cls-5" d="M489.25,1012.97l1.83-1.89-2.36-.47.76-2.43,2.09.87-.2-2.34h2.63l-.2,2.34,2.12-.87.71,2.43-2.34.47,1.85,1.89-2.05,1.49-1.4-2.09-1.4,2.09-2.03-1.49Z"/><path class="cls-5" d="M503.62,1012.97l1.83-1.89-2.36-.47.76-2.43,2.09.87-.2-2.34h2.63l-.2,2.34,2.12-.87.71,2.43-2.34.47,1.85,1.89-2.05,1.49-1.4-2.09-1.4,2.09-2.03-1.49Z"/><path class="cls-5" d="M517.98,1012.97l1.83-1.89-2.36-.47.76-2.43,2.09.87-.2-2.34h2.63l-.2,2.34,2.12-.87.71,2.43-2.34.47,1.85,1.89-2.05,1.49-1.4-2.09-1.4,2.09-2.03-1.49Z"/><path class="cls-5" d="M532.34,1012.97l1.83-1.89-2.36-.47.76-2.43,2.09.87-.2-2.34h2.63l-.2,2.34,2.12-.87.71,2.43-2.34.47,1.85,1.89-2.05,1.49-1.4-2.09-1.4,2.09-2.03-1.49Z"/><path class="cls-5" d="M546.7,1012.97l1.83-1.89-2.36-.47.76-2.43,2.09.87-.2-2.34h2.63l-.2,2.34,2.12-.87.71,2.43-2.34.47,1.85,1.89-2.05,1.49-1.4-2.09-1.4,2.09-2.03-1.49Z"/><path class="cls-5" d="M561.07,1012.97l1.83-1.89-2.36-.47.76-2.43,2.09.87-.2-2.34h2.63l-.2,2.34,2.12-.87.71,2.43-2.34.47,1.85,1.89-2.05,1.49-1.4-2.09-1.4,2.09-2.03-1.49Z"/><path class="cls-5" d="M575.43,1012.97l1.83-1.89-2.36-.47.76-2.43,2.09.87-.2-2.34h2.63l-.2,2.34,2.12-.87.71,2.43-2.34.47,1.85,1.89-2.05,1.49-1.4-2.09-1.4,2.09-2.03-1.49Z"/><path class="cls-5" d="M589.79,1012.97l1.83-1.89-2.36-.47.76-2.43,2.09.87-.2-2.34h2.63l-.2,2.34,2.12-.87.71,2.43-2.34.47,1.85,1.89-2.05,1.49-1.4-2.09-1.4,2.09-2.03-1.49Z"/><path class="cls-5" d="M604.15,1012.97l1.83-1.89-2.36-.47.76-2.43,2.09.87-.2-2.34h2.63l-.2,2.34,2.12-.87.71,2.43-2.34.47,1.85,1.89-2.05,1.49-1.4-2.09-1.4,2.09-2.03-1.49Z"/><path class="cls-5" d="M618.51,1012.97l1.83-1.89-2.36-.47.76-2.43,2.09.87-.2-2.34h2.63l-.2,2.34,2.12-.87.71,2.43-2.34.47,1.85,1.89-2.05,1.49-1.4-2.09-1.4,2.09-2.03-1.49Z"/><path class="cls-5" d="M632.88,1012.97l1.83-1.89-2.36-.47.76-2.43,2.09.87-.2-2.34h2.63l-.2,2.34,2.12-.87.71,2.43-2.34.47,1.85,1.89-2.05,1.49-1.4-2.09-1.4,2.09-2.03-1.49Z"/><path class="cls-5" d="M647.24,1012.97l1.83-1.89-2.36-.47.76-2.43,2.09.87-.2-2.34h2.63l-.2,2.34,2.12-.87.71,2.43-2.34.47,1.85,1.89-2.05,1.49-1.4-2.09-1.4,2.09-2.03-1.49Z"/><path class="cls-5" d="M661.6,1012.97l1.83-1.89-2.36-.47.76-2.43,2.09.87-.2-2.34h2.63l-.2,2.34,2.12-.87.71,2.43-2.34.47,1.85,1.89-2.05,1.49-1.4-2.09-1.4,2.09-2.03-1.49Z"/><path class="cls-5" d="M675.96,1012.97l1.83-1.89-2.36-.47.76-2.43,2.09.87-.2-2.34h2.63l-.2,2.34,2.12-.87.71,2.43-2.34.47,1.85,1.89-2.05,1.49-1.4-2.09-1.4,2.09-2.03-1.49Z"/><path class="cls-5" d="M690.33,1012.97l1.83-1.89-2.36-.47.76-2.43,2.09.87-.2-2.34h2.63l-.2,2.34,2.12-.87.71,2.43-2.34.47,1.85,1.89-2.05,1.49-1.4-2.09-1.4,2.09-2.03-1.49Z"/><path class="cls-5" d="M704.69,1012.97l1.83-1.89-2.36-.47.76-2.43,2.09.87-.2-2.34h2.63l-.2,2.34,2.12-.87.71,2.43-2.34.47,1.85,1.89-2.05,1.49-1.4-2.09-1.4,2.09-2.03-1.49Z"/><path class="cls-5" d="M719.05,1012.97l1.83-1.89-2.36-.47.76-2.43,2.09.87-.2-2.34h2.63l-.2,2.34,2.12-.87.71,2.43-2.34.47,1.85,1.89-2.05,1.49-1.4-2.09-1.4,2.09-2.03-1.49Z"/><path class="cls-5" d="M733.41,1012.97l1.83-1.89-2.36-.47.76-2.43,2.09.87-.2-2.34h2.63l-.2,2.34,2.12-.87.71,2.43-2.34.47,1.85,1.89-2.05,1.49-1.4-2.09-1.4,2.09-2.03-1.49Z"/><path class="cls-5" d="M747.77,1012.97l1.83-1.89-2.36-.47.76-2.43,2.09.87-.2-2.34h2.63l-.2,2.34,2.12-.87.71,2.43-2.34.47,1.85,1.89-2.05,1.49-1.4-2.09-1.4,2.09-2.03-1.49Z"/><circle class="cls-3" cx="402.5" cy="1010.59" r="11.56"/><circle class="cls-2" cx="180.28" cy="694.92" r="12.19"/><circle class="cls-2" cx="212.34" cy="697.48" r="16.68"/><path class="cls-2" d="M158.3,822.14c9.12,0,20.32-1.77,30.99-8.25.05-.03.11.02.09.07-1.82,5.05-3.87,10.35-6.18,15.85,0,.02-.03.04-.06.04h-45.18c-.05,0-.08-.06-.05-.1,2.28-3.05,4.42-6.04,6.42-8.95.01-.02.04-.03.06-.03,3.41.68,8.26,1.36,13.91,1.36Z"/><path class="cls-2" d="M195.62,794.84c-.19.63-.37,1.24-.55,1.84-1.02,3.41-2.15,7.01-3.42,10.76h0c-16.04,12.18-34.96,11.28-44.72,9.69-.05,0-.06-.06-.04-.1,4.29-6.43,7.9-12.38,10.9-17.66.01-.03.04-.04.07-.03,3.58,1.06,8.74,2.18,14.66,2.18,7.04,0,15.19-1.57,23.09-6.68Z"/><path class="cls-2" d="M200.64,775.93s.1.02.09.07c-1.1,4.6-2.22,8.79-3.28,12.52h0c-14.03,11.76-29.55,9.63-37.59,7.31-.04-.01-.05-.06-.04-.09.75-1.34,1.44-2.64,2.09-3.87,1.78-3.38,3.59-6.79,5.37-10.3.01-.02.04-.04.06-.03,2.71.43,5.77.72,9.06.72,7.39,0,15.92-1.49,24.22-6.33Z"/><path class="cls-2" d="M203.67,761.99c-.52,2.87-1.07,5.62-1.64,8.26,0,.02-.01.03-.03.04-11.45,8.17-23.83,8.71-32.73,7.5-.04,0-.07-.05-.05-.09,1.94-3.96,3.83-8.04,5.6-12.31.01-.03.04-.04.06-.04,2.23.24,4.7.4,7.34.4,6.4,0,13.83-.92,21.36-3.82.05-.02.09.02.08.07Z"/><path class="cls-2" d="M206.08,745.05s.09.02.09.06c-.48,4.19-1.03,8.19-1.66,12.02h0c-10.13,4.47-20.4,4.91-27.99,4.27-.04,0-.07-.05-.05-.09,1.8-4.63,3.44-9.46,4.87-14.58,0-.03.04-.05.07-.04,2.88.74,6.4,1.33,10.28,1.33,4.45,0,9.38-.77,14.38-2.97Z"/><path class="cls-2" d="M207.47,727.27l.09.06c-.19,4.49-.49,8.82-.9,12.99,0,.02-.02.04-.03.05-9.18,4.95-18.26,4.11-24.22,2.55-.03,0-.05-.04-.04-.08,1-3.98,1.86-8.13,2.55-12.48,0-.03.04-.06.07-.05,2.05.34,4.31.57,6.72.57,4.86,0,10.29-.92,15.77-3.61Z"/><path class="cls-2" d="M207.68,721.94c-8.05,5.48-16.1,5.65-22.15,4.43-.03,0-.05-.04-.05-.07,1.71-15.19,1.37-27.87.82-36.19,0-.03.02-.06.06-.07l20.29-2.3s.07.02.07.06c.73,9.06,1.28,20.62,1,34.08,0,.02-.01.04-.03.05Z"/><path class="cls-7" d="M207.71,722.63c-.03,1.5-.08,3.03-.15,4.59l.15-4.59Z"/><path class="cls-2" d="M89.54,631.25c19.98-10.93,51.73-7.96,71.54.88,25.19,11.23,37.11,31.13,35.39,51.54-.52,6.16-1.52,10.57-5.51,3.4-11.13-19.98-22.75-29.17-38.36-37.56-22.96-12.33-46.25-12.55-60.91-11.98-2.19.09-4.54.1-7.73.41-1.03.1-1.65-1.11-.96-1.88,1.48-1.67,4.26-3.57,6.54-4.82Z"/><path class="cls-2" d="M200,680.8c-18.07-17.72-50.53-17.88-72.07-8.39-27.38,12.07-43.02,37.83-45.04,66.13-.61,8.54-.42,14.74,4.92,5.41,14.85-25.98,28.22-37.06,45.45-46.5,25.34-13.88,48.79-11.05,63.42-8.29,2.3.43,4.79.79,8.18,1.74.69.19,1.3-1.54.95-2.34-1.13-2.54-3.67-5.66-5.8-7.75Z"/><path class="cls-2" d="M195.14,668.62c2.68-27.51,29.04-53.18,53.06-63.02,30.54-12.51,60.82-5.5,81.71,14.13,6.3,5.92,10.36,10.72-.33,7.93-29.79-7.79-48.23-5.57-68.7.92-30.1,9.54-47.31,30.12-57.36,43.7-1.58,2.13-3.37,4.36-5.49,7.74-.43.69-2.11-.13-2.36-1.01-.81-2.79-.86-7.14-.54-10.38Z"/><path class="cls-12" d="M195.52,688.97c-.19.09-.41-.07-.36-.28,1.14-4.89,4.04-13.83,12-20.39,10.73-8.83,24.01-7.85,33.64-6.99,32.48,2.89,56.48,25.1,66.47,35.62.2.21-.02.55-.3.47-33.01-9.65-42.36-12.71-62.44-15.21-24.59-3.06-35.18.45-49.02,6.78Z"/><circle class="cls-2" cx="640.72" cy="694.92" r="12.19"/><circle class="cls-2" cx="608.65" cy="697.48" r="16.68"/><path class="cls-2" d="M662.69,822.14c-9.16,0-20.43-1.79-31.14-8.34,1.84,5.11,3.91,10.48,6.26,16.05h45.35c-2.32-3.1-4.49-6.13-6.52-9.08-3.41.68-8.28,1.37-13.95,1.37Z"/><path class="cls-2" d="M625.37,794.84c.19.63.37,1.24.55,1.84,1.02,3.41,2.15,7.01,3.42,10.76h0c16.09,12.22,35.08,11.27,44.81,9.67-4.33-6.48-7.96-12.47-10.98-17.78-3.58,1.06-8.76,2.19-14.71,2.19-7.04,0-15.19-1.57-23.09-6.68Z"/><path class="cls-2" d="M620.23,775.86c1.11,4.66,2.24,8.89,3.31,12.66h0c14.07,11.8,29.65,9.62,37.66,7.29-.76-1.37-1.47-2.69-2.13-3.94-1.79-3.39-3.6-6.82-5.39-10.34-2.72.43-5.8.73-9.1.73-7.43,0-16.01-1.51-24.35-6.4Z"/><path class="cls-2" d="M617.3,761.88c.53,2.92,1.09,5.71,1.67,8.39,11.49,8.21,23.92,8.73,32.84,7.5-1.96-4-3.87-8.12-5.66-12.43-2.24.24-4.73.4-7.39.4-6.43,0-13.9-.93-21.46-3.86Z"/><path class="cls-2" d="M614.81,745c.48,4.23,1.04,8.27,1.67,12.13h0c10.17,4.49,20.47,4.91,28.07,4.26-1.82-4.67-3.48-9.55-4.92-14.72-2.89.75-6.43,1.34-10.34,1.34-4.48,0-9.45-.78-14.48-3.01Z"/><path class="cls-2" d="M613.43,727.22c0,.11,0,.23.01.34.19,4.42.49,8.68.89,12.79,9.22,4.98,18.34,4.12,24.31,2.55-1.01-4.02-1.88-8.21-2.57-12.6-2.07.35-4.35.58-6.78.58-4.89,0-10.35-.93-15.86-3.66Z"/><path class="cls-2" d="M613.28,721.92c8.08,5.52,16.17,5.67,22.23,4.44-1.72-15.25-1.38-27.97-.82-36.31l-20.41-2.31c-.73,9.08-1.29,20.68-1,34.18Z"/><path class="cls-7" d="M613.43,727.22c-.07-1.56-.12-3.09-.15-4.59l.15,4.59Z"/><path class="cls-2" d="M731.46,631.25c-19.98-10.93-51.73-7.96-71.54.88-25.19,11.23-37.11,31.13-35.39,51.54.52,6.16,1.52,10.57,5.51,3.4,11.13-19.98,22.75-29.17,38.36-37.56,22.96-12.33,46.25-12.55,60.91-11.98,2.3.09,4.78.11,8.22.46.7.07,1.07-1.22.62-1.76-1.43-1.71-4.33-3.69-6.68-4.98Z"/><path class="cls-2" d="M620.99,680.8c18.07-17.72,50.53-17.88,72.07-8.39,27.38,12.07,43.02,37.83,45.04,66.13.61,8.54.42,14.74-4.92,5.41-14.85-25.98-28.22-37.06-45.45-46.5-25.34-13.88-48.79-11.05-63.42-8.29-2.3.43-4.79.79-8.18,1.74-.69.19-1.3-1.54-.95-2.34,1.13-2.54,3.67-5.66,5.8-7.75Z"/><path class="cls-2" d="M625.86,668.62c-2.68-27.51-29.04-53.18-53.06-63.02-30.54-12.51-60.82-5.5-81.71,14.13-6.3,5.92-10.36,10.72.33,7.93,29.79-7.79,48.23-5.57,68.7.92,30.1,9.54,47.31,30.12,57.36,43.7,1.58,2.13,3.37,4.36,5.49,7.74.43.69,2.11-.13,2.36-1.01.81-2.79.86-7.14.54-10.38Z"/><path class="cls-12" d="M625.59,689.02c.15.07.29-.1.26-.26-1.12-4.87-4.02-13.87-12.02-20.46-10.73-8.83-24.01-7.85-33.64-6.99-32.66,2.91-56.74,25.34-66.64,35.8-.16.17,0,.42.23.36,33.19-9.7,42.55-12.77,62.67-15.27,24.66-3.07,35.24.47,49.14,6.83Z"/><path class="cls-4" d="M813,1078.22H0V0h813v1078.22ZM18.96,1058.64h775.01V18.61H18.96v1040.02Z"/><path class="cls-1" d="M602.78,726.37c-15.29,27.33-94.79,48.16-190.56,48.16s-175.25-20.82-190.55-48.15c31.98,20.45,105.26,34.75,190.55,34.75s158.6-14.3,190.56-34.76Z"/><rect class="cls-2" x="80.08" y="827.85" width="656.59" height="4"/></g></g></svg>